<?xml version="1.0" encoding="UTF-8" standalone="no"?>
<!DOCTYPE svg  PUBLIC '-//W3C//DTD SVG 1.1//EN'  'http://www.w3.org/Graphics/SVG/1.1/DTD/svg11.dtd'>
<svg xmlns="http://www.w3.org/2000/svg" version="1.1">
<defs>
<font id="ProximaNova-Light" horiz-adv-x="384">
<font-face unicode-range="U+0020-FB04" panose-1="2 0 5 6 3 0 0 2 0 4" font-weight="300" font-family="a" underline-position="-133" x-height="483" ascent="790" cap-height="667" descent="-210" units-per-em="1000" underline-thickness="20" bbox="-171 -265 1060 886"/>
<missing-glyph d="M434 -90h-351v842h351v-842zM402 -60v782h-288v-782h288z" horiz-adv-x="517"/>
<glyph d="M151 0h-53v437h-80v46h80v44q0 70 35 110t96 40q53 0 92 -34l-25 -38q-27 25 -62 25q-83 0 -83 -103v-44h98v-46h-98v-437zM416 0h-53v437h-80v46h80v44q0 71 35 110.5t96 39.5q39 0 65 -15l-16 -43q-19 11 -44 11q-83 0 -83 -103v-44h98v-46h-98v-437zM637 559 q-16 0 -28 12t-12 28t12 27.5t28 11.5q17 0 28.5 -11.5t11.5 -27.5q0 -17 -11.5 -28.5t-28.5 -11.5zM532 -196q-56 0 -99 37l23 43q33 -33 71 -33t61 22t23 66v544h52v-544q0 -67 -34 -101t-97 -34z" horiz-adv-x="743" unicode="ffj" glyph-name="f_f_j"/>
<glyph d="M151 0h-53v437h-80v46h80v44q0 71 35 110.5t96 39.5q39 0 65 -15l-16 -43q-19 11 -44 11q-83 0 -83 -103v-44h98v-46h-98v-437zM372 559q-16 0 -28 12t-12 28t12 27.5t28 11.5q17 0 28.5 -11.5t11.5 -27.5q0 -17 -12 -28.5t-28 -11.5zM267 -196q-56 0 -99 37l23 43 q33 -33 71 -33t61 22t23 66v544h52v-544q0 -67 -34 -101t-97 -34z" horiz-adv-x="478" unicode="fj" glyph-name="f_j"/>
<glyph d="M151 0h-53v437h-80v46h80v44q0 71 35 110.5t96 39.5q39 0 65 -15l-16 -43q-19 11 -44 11q-83 0 -83 -103v-44h98v-46h-98v-437zM398 121q22 -36 66 -61t93 -25q79 0 124 58t45 148q0 91 -45 149t-124 58q-48 0 -92.5 -26t-66.5 -62v-239zM398 0h-52v667h52v-262 q64 90 168 90q97 0 156.5 -69.5t59.5 -184.5t-59.5 -184t-156.5 -69q-52 0 -96.5 25t-71.5 64v-77z" horiz-adv-x="835" unicode="fb" glyph-name="f_b"/>
<glyph d="M151 0h-53v437h-80v46h80v44q0 71 35 110.5t96 39.5q39 0 65 -15l-16 -43q-19 11 -44 11q-83 0 -83 -103v-44h98v-46h-98v-437zM724 0h-52v329q0 66 -30 92.5t-87 26.5q-45 0 -89 -24t-68 -59v-365h-52v667h52v-257q29 34 77 59.5t97 25.5q152 0 152 -155v-340z" horiz-adv-x="805" unicode="fh" glyph-name="f_h"/>
<glyph d="M151 0h-53v437h-80v46h80v44q0 71 35 110.5t96 39.5q39 0 65 -15l-16 -43q-19 11 -44 11q-83 0 -83 -103v-44h98v-46h-98v-437zM751 0h-70l-193 230l-90 -85v-145h-52v667h52v-460l284 276h70l-225 -218z" horiz-adv-x="770" unicode="fk" glyph-name="f_k"/>
<glyph d="M151 0h-53v437h-80v46h80v44q0 71 35 110.5t96 39.5q39 0 65 -15l-16 -43q-19 11 -44 11q-83 0 -83 -103v-44h98v-46h-98v-437zM440 -12q-94 0 -94 105v574h52v-566q0 -66 50 -66q33 0 54 23l20 -40q-32 -30 -82 -30z" horiz-adv-x="521" unicode="f" glyph-name="fl.alt1"/>
<glyph d="M151 0h-53v437h-80v46h80v44q0 70 35 110t96 40q53 0 92 -34l-25 -38q-27 25 -62 25q-83 0 -83 -103v-44h98v-46h-98v-437zM416 0h-53v437h-80v46h80v44q0 71 35 110.5t96 39.5q39 0 65 -15l-16 -43q-19 11 -44 11q-83 0 -83 -103v-44h98v-46h-98v-437zM705 -12 q-94 0 -94 105v574h52v-566q0 -66 50 -66q33 0 54 23l20 -40q-32 -30 -82 -30z" horiz-adv-x="785" unicode="ff" glyph-name="f_f_l.alt1"/>
<glyph d="M151 0h-53v437h-80v46h80v44q0 70 35 110t96 40q53 0 92 -34l-25 -38q-27 25 -62 25q-83 0 -83 -103v-44h98v-46h-98v-437zM416 0h-53v437h-80v46h80v44q0 70 35 110t96 40q53 0 92 -34l-25 -38q-27 25 -62 25q-83 0 -83 -103v-44h98v-46h-98v-437z" horiz-adv-x="530" unicode="ff" glyph-name="f_f"/>
<glyph d="M151 0h-53v437h-80v46h80v44q0 71 35 110.5t96 39.5q39 0 65 -15l-16 -43q-19 11 -44 11q-83 0 -83 -103v-44h98v-46h-98v-437zM372 559q-16 0 -28 12t-12 28t12 27.5t28 11.5q17 0 28.5 -11.5t11.5 -27.5q0 -17 -12 -28.5t-28 -11.5zM398 0h-52v483h52v-483z" horiz-adv-x="478" unicode="fi" glyph-name="fi"/>
<glyph d="M151 0h-53v437h-80v46h80v44q0 71 35 110.5t96 39.5q39 0 65 -15l-16 -43q-19 11 -44 11q-83 0 -83 -103v-44h98v-46h-98v-437zM398 0h-52v667h52v-667z" horiz-adv-x="478" unicode="fl" glyph-name="fl"/>
<glyph d="M151 0h-53v437h-80v46h80v44q0 70 35 110t96 40q53 0 92 -34l-25 -38q-27 25 -62 25q-83 0 -83 -103v-44h98v-46h-98v-437zM416 0h-53v437h-80v46h80v44q0 71 35 110.5t96 39.5q39 0 65 -15l-16 -43q-19 11 -44 11q-83 0 -83 -103v-44h98v-46h-98v-437zM637 559 q-16 0 -28 12t-12 28t12 27.5t28 11.5q17 0 28.5 -11.5t11.5 -27.5q0 -17 -11.5 -28.5t-28.5 -11.5zM663 0h-52v483h52v-483z" horiz-adv-x="743" unicode="ffi" glyph-name="f_f_i"/>
<glyph d="M151 0h-53v437h-80v46h80v44q0 70 35 110t96 40q53 0 92 -34l-25 -38q-27 25 -62 25q-83 0 -83 -103v-44h98v-46h-98v-437zM416 0h-53v437h-80v46h80v44q0 71 35 110.5t96 39.5q39 0 65 -15l-16 -43q-19 11 -44 11q-83 0 -83 -103v-44h98v-46h-98v-437zM663 0h-52v667h52 v-667z" horiz-adv-x="743" unicode="ffl" glyph-name="f_f_l"/>
<glyph d="M434 -90h-351v842h351v-842zM402 -60v782h-288v-782h288z" horiz-adv-x="517" glyph-name=".notdef"/>
<glyph horiz-adv-x="0" glyph-name=".null"/>
<glyph horiz-adv-x="333" glyph-name="nonmarkingreturn"/>
<glyph horiz-adv-x="259" unicode=" " glyph-name="space"/>
<glyph d="M130 174h-41l-13 493h67zM110 -9q-18 0 -31 13t-13 31q0 17 13 30t31 13t31 -13t13 -30q0 -18 -13 -31t-31 -13z" horiz-adv-x="219" unicode="!" glyph-name="exclam"/>
<glyph d="M109 427h-30q-21 201 -21 214q0 15 10 25.5t26 10.5q15 0 25.5 -10.5t10.5 -25.5zM238 427h-30q-21 201 -21 214q0 15 10.5 25.5t25.5 10.5q16 0 26 -10.5t10 -25.5z" horiz-adv-x="317" unicode='&quot;' glyph-name="quotedbl"/>
<glyph d="M284 0h-48l64 186h-118l-63 -186h-47l63 186h-111l13 41h112l71 213h-113l12 41h115l61 186h47l-61 -186h117l61 186h48l-63 -186h111l-11 -41h-113l-72 -213h116l-13 -41h-116zM312 227l72 213h-117l-71 -213h116z" horiz-adv-x="579" unicode="#" glyph-name="numbersign"/>
<glyph d="M273 -100v89q-144 7 -225 105l37 43q77 -88 188 -96v280q-49 14 -76.5 24.5t-61.5 31t-50 51t-16 72.5q0 76 58 124.5t146 52.5v91h46v-91q122 -10 195 -93l-38 -42q-59 71 -157 82v-252q47 -13 77.5 -25.5t64.5 -34.5t51 -55.5t17 -79.5q0 -71 -50.5 -126t-159.5 -62 v-89h-46zM469 173q0 55 -38.5 84t-111.5 51v-267q79 6 114.5 45t35.5 87zM129 503q0 -48 37 -73t107 -45v240q-63 -3 -103.5 -37t-40.5 -85z" horiz-adv-x="584" unicode="$" glyph-name="dollar"/>
<glyph d="M190 349q-68 0 -112 46.5t-44 116.5q0 71 44 118t112 47q69 0 113 -47t44 -118q0 -70 -44 -116.5t-113 -46.5zM173 0h-45l426 667h46zM530 -12q-69 0 -113 46.5t-44 116.5q0 71 44 118t113 47t113 -47t44 -118q0 -70 -44 -116.5t-113 -46.5zM190 388q48 0 79.5 36.5 t31.5 87.5q0 53 -31 89.5t-80 36.5q-48 0 -79 -36.5t-31 -89.5q0 -51 31 -87.5t79 -36.5zM530 27q49 0 79.5 36t30.5 88q0 53 -30.5 89.5t-79.5 36.5t-80 -36.5t-31 -89.5q0 -52 31 -88t80 -36z" horiz-adv-x="720" unicode="%" glyph-name="percent"/>
<glyph d="M602 0h-78q-38 33 -85 80q-82 -92 -196 -92q-87 0 -144 48t-57 134q0 72 39 117.5t110 84.5q-55 87 -55 153q0 65 46 108.5t113 43.5q63 0 101.5 -33.5t38.5 -92.5q0 -29 -11 -54.5t-24 -42t-41 -36.5t-44.5 -29.5t-52.5 -28.5q29 -40 86 -105q52 -59 89 -97 q49 73 76 162l48 -20q-47 -118 -88 -178q60 -60 129 -122zM247 34q87 0 158 81q-76 77 -99 107q-53 60 -90 113q-55 -33 -85.5 -70.5t-30.5 -91.5q0 -65 43 -102t104 -37zM192 524q0 -54 46 -127q37 19 56 31t43.5 31t35 41t10.5 49q0 40 -24.5 62t-62.5 22q-43 0 -73.5 -31 t-30.5 -78z" horiz-adv-x="639" unicode="&amp;" glyph-name="ampersand"/>
<glyph d="M109 427h-30q-21 201 -21 214q0 15 10 25.5t26 10.5q15 0 25.5 -10.5t10.5 -25.5z" horiz-adv-x="187" unicode="&apos;" glyph-name="quotesingle"/>
<glyph d="M210 -175l-31 -24q-134 203 -134 442t134 442l31 -22q-53 -109 -79.5 -204t-26.5 -216t26.5 -216t79.5 -202z" horiz-adv-x="227" unicode="(" glyph-name="parenleft"/>
<glyph d="M48 -199l-31 24q53 107 79.5 202t26.5 216t-26.5 216t-79.5 204l31 22q134 -203 134 -442t-134 -442z" horiz-adv-x="227" unicode=")" glyph-name="parenright"/>
<glyph d="M186 399h-37l5 117l-98 -64l-19 33l104 53l-104 53l19 33l98 -64l-5 117h37l-6 -117l99 64l19 -33l-105 -53l105 -53l-19 -33l-99 64z" horiz-adv-x="335" unicode="*" glyph-name="asterisk"/>
<glyph d="M467 316h-196v-217h-45v217h-197v42h197v211h45v-211h196v-42z" horiz-adv-x="496" unicode="+" glyph-name="plus"/>
<glyph d="M159 14q0 -40 -20.5 -77.5t-51.5 -58.5l-29 24q24 16 40 42.5t18 49.5q-7 -1 -10 -1q-18 0 -29.5 12t-11.5 30q0 17 12.5 30t30.5 13q21 0 36 -17t15 -47z" horiz-adv-x="219" unicode="," glyph-name="comma"/>
<glyph d="M270 218h-240v48h240v-48z" horiz-adv-x="300" unicode="-" glyph-name="hyphen"/>
<glyph d="M110 -9q-18 0 -31.5 13t-13.5 31q0 17 13.5 30t31.5 13t31 -13t13 -30q0 -18 -13 -31t-31 -13z" horiz-adv-x="219" unicode="." glyph-name="period"/>
<glyph d="M45 -20h-45l237 707h45z" horiz-adv-x="282" unicode="/" glyph-name="slash"/>
<glyph d="M305 -12q-64 0 -114 31t-77.5 82.5t-41.5 110t-14 121.5t14 121.5t41.5 109.5t77 82t114.5 31q64 0 113 -31t77 -82t42 -109.5t14 -121.5q0 -62 -14 -121t-42 -110.5t-77 -82.5t-113 -31zM305 40q50 0 87.5 26t58 69.5t30 93t9.5 104.5t-9.5 104.5t-30 93t-58 69 t-87.5 25.5q-51 0 -88.5 -25.5t-58 -69t-30.5 -93t-10 -104.5t10 -104.5t30.5 -93t58 -69.5t88.5 -26z" horiz-adv-x="608" unicode="0" glyph-name="zero"/>
<glyph d="M225 0h-57v589l-107 -114l-35 37l147 155h52v-667z" horiz-adv-x="308" unicode="1" glyph-name="one"/>
<glyph d="M496 0h-440v47q80 65 128 105t102 91t82.5 88.5t47.5 78.5t19 79q0 67 -45.5 101.5t-106.5 34.5q-60 0 -107.5 -23.5t-75.5 -63.5l-39 36q36 48 94 75.5t128 27.5q83 0 146.5 -48t63.5 -140q0 -53 -25 -106t-79 -111.5t-105.5 -104t-138.5 -115.5h351v-52z" horiz-adv-x="582" unicode="2" glyph-name="two"/>
<glyph d="M259 -12q-77 0 -136 31.5t-91 79.5l39 34q65 -93 187 -93q77 0 122.5 38t45.5 104q0 69 -49.5 102.5t-129.5 33.5q-42 0 -62 -2v54q10 -1 62 -1q72 0 120.5 32t48.5 95q0 60 -46 94.5t-114 34.5q-103 0 -179 -85l-36 36q83 101 218 101q91 0 153 -47t62 -129 q0 -47 -25 -83t-55 -51.5t-63 -21.5q54 -6 103.5 -49t49.5 -117q0 -84 -60.5 -137.5t-164.5 -53.5z" horiz-adv-x="544" unicode="3" glyph-name="three"/>
<glyph d="M408 0h-57v182h-316v51l296 434h77v-433h98v-52h-98v-182zM351 234v376l-257 -376h257z" horiz-adv-x="541" unicode="4" glyph-name="four"/>
<glyph d="M299 -12q-149 0 -225 109l38 38q67 -95 187 -95q72 0 119.5 46t47.5 115q0 75 -46.5 119t-119.5 44q-91 0 -162 -65l-43 18v350h385v-52h-328v-261q64 62 159 62q89 0 151 -56.5t62 -156.5q0 -97 -65 -156t-160 -59z" horiz-adv-x="582" unicode="5" glyph-name="five"/>
<glyph d="M303 -12q-52 0 -94 19t-70 51t-46.5 76.5t-26.5 93.5t-8 105q0 91 24.5 166t84 126.5t146.5 51.5q112 0 180 -85l-33 -41q-57 74 -147 74q-52 0 -91.5 -25.5t-61.5 -68.5t-33 -93t-11 -106q0 -21 1 -31q25 41 79 76t116 35q95 0 155 -54.5t60 -156.5q0 -87 -61 -150 t-163 -63zM301 40q79 0 123.5 49.5t44.5 110.5q0 79 -46 120t-121 41q-54 0 -103.5 -31.5t-78.5 -82.5q4 -51 22 -95t59 -78t100 -34z" horiz-adv-x="584" unicode="6" glyph-name="six"/>
<glyph d="M185 0h-63l280 615h-369v52h437v-40z" horiz-adv-x="502" unicode="7" glyph-name="seven"/>
<glyph d="M286 -12q-98 0 -162.5 49.5t-64.5 129.5q0 65 48 111.5t118 65.5q-66 18 -110.5 58.5t-44.5 102.5q0 83 64.5 127.5t151.5 44.5q86 0 151 -44.5t65 -127.5q0 -62 -44.5 -102.5t-110.5 -58.5q70 -19 118 -65.5t48 -111.5q0 -80 -64.5 -129.5t-162.5 -49.5zM286 368 q22 4 43 11.5t50 22t47 40t18 57.5q0 58 -45 92t-113 34t-113 -34t-45 -92q0 -32 18 -57.5t47 -40.5t50 -22t43 -11zM286 40q68 0 118.5 36.5t50.5 94.5q0 36 -20 65t-50 45.5t-55 25.5t-44 11q-19 -2 -44.5 -11t-55 -25.5t-49.5 -45.5t-20 -65q0 -59 49.5 -95t119.5 -36z " horiz-adv-x="571" unicode="8" glyph-name="eight"/>
<glyph d="M271 -11q-112 0 -180 85l34 41q57 -74 146 -74q53 0 92.5 25.5t61.5 69t32.5 93t10.5 105.5v31q-25 -41 -79.5 -76t-116.5 -35q-95 0 -155 54.5t-60 156.5q0 87 61 150t163 63q52 0 94 -19t70 -51t46.5 -76.5t26.5 -93.5t8 -105q0 -53 -8.5 -101.5t-28.5 -93.5 t-48.5 -77.5t-72.5 -52t-97 -19.5zM282 305q54 0 103.5 31.5t78.5 82.5q-4 51 -21.5 95t-59 78t-100.5 34q-79 0 -123.5 -49.5t-44.5 -110.5q0 -79 46 -120t121 -41z" horiz-adv-x="584" unicode="9" glyph-name="nine"/>
<glyph d="M110 403q-18 0 -31.5 13t-13.5 30q0 18 13.5 31t31.5 13t31 -13t13 -31q0 -17 -13 -30t-31 -13zM110 -9q-18 0 -31.5 13t-13.5 31q0 17 13.5 30t31.5 13t31 -13t13 -30q0 -18 -13 -31t-31 -13z" horiz-adv-x="217" unicode=":" glyph-name="colon"/>
<glyph d="M110 403q-18 0 -31.5 13t-13.5 30q0 18 13.5 31t31.5 13t31 -13t13 -31q0 -17 -13 -30t-31 -13zM159 14q0 -40 -20.5 -77t-51.5 -58l-29 24q24 16 40 42.5t18 49.5q-7 -1 -10 -1q-18 0 -29.5 12t-11.5 30q0 17 12.5 30t30.5 13q21 0 36 -17.5t15 -47.5z" horiz-adv-x="219" unicode=";" glyph-name="semicolon"/>
<glyph d="M467 90l-438 226v37l438 227v-49l-385 -197l385 -195v-49z" horiz-adv-x="496" unicode="&lt;" glyph-name="less"/>
<glyph d="M467 411h-438v42h438v-42zM467 216h-438v41h438v-41z" horiz-adv-x="496" unicode="=" glyph-name="equal"/>
<glyph d="M467 316l-438 -226v49l386 195l-386 197v49l438 -227v-37z" horiz-adv-x="496" unicode="&gt;" glyph-name="greater"/>
<glyph d="M214 176q-41 34 -41 79q0 36 20 65t48.5 49t57.5 39.5t49 47t20 61.5q0 46 -35.5 77t-98.5 31q-109 0 -176 -90l-36 37q77 105 215 105q87 0 139 -44.5t52 -109.5q0 -42 -21 -76t-51 -56t-60 -41.5t-51 -44t-21 -53.5t30 -51zM223 -9q-18 0 -31 13t-13 31q0 17 13 30 t31 13t31 -13t13 -30q0 -18 -13 -31t-31 -13z" horiz-adv-x="464" unicode="?" glyph-name="question"/>
<glyph d="M352 -70q-136 0 -226.5 90.5t-90.5 223.5q0 106 55.5 197.5t147 144t194.5 52.5q139 0 227 -92.5t88 -229.5q0 -108 -47.5 -169.5t-114.5 -61.5q-39 0 -63 25t-25 60l-1 6q-28 -39 -72 -65t-92 -26q-69 0 -111 43.5t-42 116.5q0 105 73.5 180t165.5 75q47 0 80.5 -23.5 t49.5 -59.5l13 65h49l-59 -282q-2 -12 -2 -19q0 -25 14.5 -40t35.5 -15q40 0 78 46.5t38 144.5q0 125 -80 207t-206 82q-145 0 -253.5 -109.5t-108.5 -251.5q0 -121 82 -202.5t207 -81.5q96 0 187 57l17 -25q-98 -63 -208 -63zM342 127q96 0 164 100l32 148q-11 32 -40 57.5 t-74 25.5q-79 0 -136 -64.5t-57 -146.5q0 -53 30 -86.5t81 -33.5z" horiz-adv-x="783" unicode="@" glyph-name="at"/>
<glyph d="M632 0h-66l-66 164h-353l-66 -164h-66l273 667h71zM481 216l-157 390l-158 -390h315z" horiz-adv-x="647" unicode="A" glyph-name="A"/>
<glyph d="M363 0h-280v667h274q84 0 134 -46t50 -124q0 -60 -34.5 -101.5t-82.5 -51.5q53 -8 91.5 -56.5t38.5 -107.5q0 -83 -51 -131.5t-140 -48.5zM350 368q62 0 96.5 34.5t34.5 88.5q0 53 -34.5 88.5t-96.5 35.5h-210v-247h210zM354 52q66 0 103 35.5t37 96.5q0 55 -37 93.5 t-103 38.5h-214v-264h214z" horiz-adv-x="615" unicode="B" glyph-name="B"/>
<glyph d="M396 -12q-144 0 -241 96.5t-97 248.5t97 248.5t241 96.5q150 0 243 -118l-48 -31q-32 44 -84 70.5t-111 26.5q-119 0 -198.5 -82t-79.5 -211q0 -128 80 -210.5t198 -82.5q59 0 111 26.5t84 70.5l49 -30q-98 -119 -244 -119z" horiz-adv-x="671" unicode="C" glyph-name="C"/>
<glyph d="M296 0h-213v667h213q151 0 244 -96.5t93 -237.5q0 -142 -92.5 -237.5t-244.5 -95.5zM296 52q128 0 202.5 80t74.5 201t-74 201.5t-203 80.5h-156v-563h156z" horiz-adv-x="692" unicode="D" glyph-name="D"/>
<glyph d="M506 0h-423v667h423v-52h-366v-247h359v-52h-359v-264h366v-52z" horiz-adv-x="564" unicode="E" glyph-name="E"/>
<glyph d="M140 0h-57v667h423v-52h-366v-247h359v-52h-359v-316z" horiz-adv-x="542" unicode="F" glyph-name="F"/>
<glyph d="M396 -13q-143 0 -240.5 97t-97.5 249t97.5 248.5t240.5 96.5q152 0 251 -114l-43 -31q-36 43 -90.5 68t-117.5 25q-119 0 -198.5 -82t-79.5 -211q0 -128 80 -211t198 -83q61 0 112.5 24t83.5 57v160h-252v51h309v-233q-99 -111 -253 -111z" horiz-adv-x="711" unicode="G" glyph-name="G"/>
<glyph d="M620 0h-57v317h-423v-317h-57v667h57v-298h423v298h57v-667z" horiz-adv-x="703" unicode="H" glyph-name="H"/>
<glyph d="M140 0h-57v667h57v-667z" horiz-adv-x="223" unicode="I" glyph-name="I"/>
<glyph d="M185 -12q-108 0 -171 82l35 44q56 -74 133 -74q68 0 108 42.5t40 110.5v474h57v-474q0 -100 -57 -152.5t-145 -52.5z" horiz-adv-x="470" unicode="J" glyph-name="J"/>
<glyph d="M562 0h-73l-275 314l-74 -81v-233h-57v667h57v-365l322 365h73l-284 -318z" horiz-adv-x="586" unicode="K" glyph-name="K"/>
<glyph d="M450 0h-381v667h58v-615h323v-52z" horiz-adv-x="484" unicode="L" glyph-name="L"/>
<glyph d="M707 0h-58v595l-243 -595h-22l-244 595v-595h-57v667h85l227 -555l226 555h86v-667z" horiz-adv-x="790" unicode="M" glyph-name="M"/>
<glyph d="M616 0h-56l-420 573v-573h-57v667h58l418 -565v565h57v-667z" horiz-adv-x="699" unicode="N" glyph-name="N"/>
<glyph d="M382 -12q-145 0 -234.5 98t-89.5 247t89.5 247t234.5 98q144 0 234 -98t90 -247t-90 -247t-234 -98zM382 40q118 0 191 82.5t73 210.5t-72.5 210.5t-191.5 82.5t-191.5 -82.5t-72.5 -210.5t72.5 -210.5t191.5 -82.5z" horiz-adv-x="764" unicode="O" glyph-name="O"/>
<glyph d="M140 0h-57v667h250q93 0 147 -56.5t54 -138.5t-54.5 -138.5t-146.5 -56.5h-193v-277zM327 329q66 0 106.5 40t40.5 103t-40.5 103t-106.5 40h-187v-286h187z" horiz-adv-x="571" unicode="P" glyph-name="P"/>
<glyph d="M382 -12q-145 0 -234.5 98t-89.5 247t89.5 247t234.5 98q144 0 234 -98t90 -247q0 -153 -95 -251l70 -73l-39 -36l-71 73q-80 -58 -189 -58zM382 40q86 0 151 46l-103 107l40 37l103 -108q73 84 73 211q0 128 -72.5 210.5t-191.5 82.5t-191.5 -82.5t-72.5 -210.5 t72.5 -210.5t191.5 -82.5z" horiz-adv-x="764" unicode="Q" glyph-name="Q"/>
<glyph d="M543 0h-69l-187 276h-147v-276h-57v667h249q88 0 145.5 -53t57.5 -142q0 -87 -53 -138t-132 -54zM327 328q66 0 107 40.5t41 103.5t-41 103t-107 40h-187v-287h187z" horiz-adv-x="594" unicode="R" glyph-name="R"/>
<glyph d="M290 -12q-155 0 -244 106l37 43q85 -97 209 -97q92 0 133.5 40.5t41.5 92.5q0 40 -22 67.5t-57.5 42.5t-78 27t-85 25.5t-78 32t-57.5 52t-22 80.5q0 80 63 129t156 49q145 0 226 -94l-38 -42q-70 84 -191 84q-67 0 -111.5 -34.5t-44.5 -88.5q0 -34 22 -58.5t57.5 -38 t78 -25t85 -26t78 -34.5t57.5 -56.5t22 -87.5q0 -76 -57 -132.5t-180 -56.5z" horiz-adv-x="581" unicode="S" glyph-name="S"/>
<glyph d="M311 0h-58v615h-218v52h494v-52h-218v-615z" horiz-adv-x="564" unicode="T" glyph-name="T"/>
<glyph d="M343 -12q-126 0 -193 71.5t-67 196.5v411h58v-410q0 -102 52.5 -159.5t149.5 -57.5t149.5 57.5t52.5 159.5v410h58v-411q0 -126 -66.5 -197t-193.5 -71z" horiz-adv-x="686" unicode="U" glyph-name="U"/>
<glyph d="M359 0h-71l-273 667h66l243 -603l242 603h66z" horiz-adv-x="647" unicode="V" glyph-name="V"/>
<glyph d="M658 0h-64l-160 573l-160 -573h-64l-191 667h64l161 -587l164 587h52l163 -587l161 587h64z" horiz-adv-x="867" unicode="W" glyph-name="W"/>
<glyph d="M626 0h-71l-233 301l-232 -301h-71l268 342l-253 325h72l216 -283l217 283h72l-253 -324z" horiz-adv-x="645" unicode="X" glyph-name="X"/>
<glyph d="M338 0h-58v285l-265 382h69l225 -328l225 328h69l-265 -382v-285z" horiz-adv-x="618" unicode="Y" glyph-name="Y"/>
<glyph d="M531 0h-481v50l402 565h-402v52h474v-49l-402 -566h409v-52z" horiz-adv-x="581" unicode="Z" glyph-name="Z"/>
<glyph d="M211 -190h-174v868h174v-43h-130v-782h130v-43z" horiz-adv-x="228" unicode="[" glyph-name="bracketleft"/>
<glyph d="M237 -20l-237 707h45l237 -707h-45z" horiz-adv-x="282" unicode="\" glyph-name="backslash"/>
<glyph d="M191 -190h-174v43h130v782h-130v43h174v-868z" horiz-adv-x="228" unicode="]" glyph-name="bracketright"/>
<glyph d="M409 333h-48l-147 293l-147 -293h-48l174 334h42z" horiz-adv-x="428" unicode="^" glyph-name="asciicircum"/>
<glyph d="M567 -83h-570v43h570v-43z" horiz-adv-x="564" unicode="_" glyph-name="underscore"/>
<glyph d="M216 556h-44l-172 144h62z" horiz-adv-x="216" unicode="`" glyph-name="grave"/>
<glyph d="M216 556h-44l-172 144h62z" horiz-adv-x="216" unicode="ˋ" glyph-name="grave"/>
<glyph d="M440 0h-52v57q-63 -69 -164 -69q-67 0 -118 43.5t-51 117.5q0 75 50.5 117.5t118.5 42.5q102 0 164 -69v98q0 52 -36.5 81.5t-92.5 29.5q-90 0 -152 -71l-29 36q75 81 186 81q78 0 127 -39t49 -116v-340zM242 29q95 0 146 66v106q-51 67 -146 67q-59 0 -95.5 -34 t-36.5 -86t36.5 -85.5t95.5 -33.5z" horiz-adv-x="521" unicode="a" glyph-name="a"/>
<glyph d="M133 121q22 -36 66 -61t93 -25q79 0 124 58t45 148q0 91 -45 149t-124 58q-48 0 -92.5 -26t-66.5 -62v-239zM133 0h-52v667h52v-262q64 90 168 90q97 0 156.5 -69.5t59.5 -184.5t-59.5 -184t-156.5 -69q-52 0 -96.5 25t-71.5 64v-77z" horiz-adv-x="571" unicode="b" glyph-name="b"/>
<glyph d="M288 -12q-104 0 -169 73t-65 181t65 180.5t169 72.5q106 0 171 -82l-36 -32q-49 67 -132 67t-132.5 -58.5t-49.5 -147.5t49.5 -148t132.5 -59q82 0 132 68l36 -32q-65 -83 -171 -83z" horiz-adv-x="494" unicode="c" glyph-name="c"/>
<glyph d="M490 0h-53v77q-27 -39 -71.5 -64t-96.5 -25q-97 0 -156 69t-59 184q0 114 59.5 184t155.5 70q51 0 95 -24t73 -66v262h53v-667zM278 35q49 0 93 25t66 61v239q-22 37 -66 62.5t-93 25.5q-78 0 -123.5 -58.5t-45.5 -148.5t45.5 -148t123.5 -58z" horiz-adv-x="571" unicode="d" glyph-name="d"/>
<glyph d="M295 -12q-106 0 -173.5 71t-67.5 183q0 106 66 179.5t166 73.5q106 0 167 -73t61 -183v-14h-404q4 -82 55 -137t134 -55q96 0 158 67l27 -34q-75 -78 -189 -78zM461 266q-1 70 -46.5 127t-129.5 57q-79 0 -125.5 -56.5t-49.5 -127.5h351z" horiz-adv-x="567" unicode="e" glyph-name="e"/>
<glyph d="M151 0h-53v437h-80v46h80v44q0 70 35 110t96 40q53 0 92 -34l-25 -38q-27 25 -62 25q-83 0 -83 -103v-44h98v-46h-98v-437z" horiz-adv-x="265" unicode="f" glyph-name="f"/>
<glyph d="M273 -196q-64 0 -107 15.5t-84 57.5l30 42q31 -37 68.5 -52.5t92.5 -15.5q71 0 117.5 38t46.5 115v77q-27 -40 -71.5 -65.5t-96.5 -25.5q-97 0 -156 68.5t-59 183.5q0 114 59.5 183.5t155.5 69.5q104 0 168 -90v78h53v-479q0 -104 -60.5 -152t-156.5 -48zM278 37 q49 0 93 25.5t66 62.5v235q-22 37 -66 62.5t-93 25.5q-78 0 -123.5 -58t-45.5 -148t45.5 -147.5t123.5 -57.5z" horiz-adv-x="570" unicode="g" glyph-name="g"/>
<glyph d="M459 0h-52v329q0 66 -30 92.5t-87 26.5q-45 0 -89 -24t-68 -59v-365h-52v667h52v-257q29 34 77 59.5t97 25.5q152 0 152 -155v-340z" horiz-adv-x="540" unicode="h" glyph-name="h"/>
<glyph d="M107 559q-16 0 -28 12t-12 28t12 27.5t28 11.5q17 0 28.5 -11.5t11.5 -27.5q0 -17 -11.5 -28.5t-28.5 -11.5zM133 0h-52v483h52v-483z" horiz-adv-x="214" unicode="i" glyph-name="i"/>
<glyph d="M107 559q-16 0 -28 12t-12 28t12 27.5t28 11.5q17 0 28.5 -11.5t11.5 -27.5q0 -17 -11.5 -28.5t-28.5 -11.5zM2 -196q-56 0 -99 37l23 43q33 -33 71 -33t61 22t23 66v544h52v-544q0 -67 -34 -101t-97 -34z" horiz-adv-x="214" unicode="j" glyph-name="j"/>
<glyph d="M486 0h-70l-193 230l-90 -85v-145h-52v667h52v-460l284 276h70l-225 -218z" horiz-adv-x="505" unicode="k" glyph-name="k"/>
<glyph d="M133 0h-52v667h52v-667z" horiz-adv-x="214" unicode="l" glyph-name="l"/>
<glyph d="M708 0h-52v338q0 110 -97 110q-38 0 -77.5 -24t-60.5 -58v-366h-53v338q0 110 -96 110q-38 0 -77 -24.5t-62 -58.5v-365h-52v483h52v-73q18 29 63.5 57t92.5 28q53 0 85 -26t42 -65q22 36 67 63.5t93 27.5q132 0 132 -147v-348z" horiz-adv-x="789" unicode="m" glyph-name="m"/>
<glyph d="M459 0h-52v327q0 66 -30 93.5t-87 27.5q-45 0 -89 -24t-68 -59v-365h-52v483h52v-73q29 34 77 59.5t97 25.5q152 0 152 -157v-338z" horiz-adv-x="540" unicode="n" glyph-name="n"/>
<glyph d="M285 -12q-104 0 -167.5 73t-63.5 181t63.5 180.5t167.5 72.5q105 0 169 -72.5t64 -180.5t-64 -181t-169 -73zM285 35q82 0 129.5 60.5t47.5 146.5q0 85 -47.5 145.5t-129.5 60.5q-81 0 -128.5 -60.5t-47.5 -145.5t47.5 -146t128.5 -61z" horiz-adv-x="571" unicode="o" glyph-name="o"/>
<glyph d="M301 -12q-104 0 -168 90v-262h-52v667h52v-76q27 39 71.5 63.5t96.5 24.5q97 0 156.5 -68.5t59.5 -184.5q0 -115 -59.5 -184.5t-156.5 -69.5zM292 35q79 0 124 58t45 149q0 90 -45 148t-124 58q-49 0 -93 -25t-66 -61v-239q22 -36 66.5 -62t92.5 -26z" horiz-adv-x="567" unicode="p" glyph-name="p"/>
<glyph d="M275 35q48 0 92.5 26t66.5 62v239q-22 36 -66 61t-93 25q-79 0 -124 -58t-45 -148q0 -91 45 -149t124 -58zM266 -12q-97 0 -156.5 69.5t-59.5 184.5q0 116 59.5 184.5t156.5 68.5q52 0 96.5 -24.5t71.5 -63.5v76h52v-667h-52v262q-64 -90 -168 -90z" horiz-adv-x="567" unicode="q" glyph-name="q"/>
<glyph d="M133 0h-52v483h52v-83q71 93 163 93v-57q-9 2 -26 2q-36 0 -78 -27t-59 -59v-352z" horiz-adv-x="317" unicode="r" glyph-name="r"/>
<glyph d="M225 -12q-118 0 -186 77l31 38q25 -31 66 -51t90 -20q59 0 94 27.5t35 70.5q0 36 -31.5 57t-76.5 31.5t-89.5 23t-76 42t-31.5 77.5q0 57 46.5 95.5t125.5 38.5q109 0 173 -71l-29 -37q-47 64 -144 64q-55 0 -87.5 -25t-32.5 -63q0 -33 31.5 -52t76 -29.5t89 -23.5 t76 -45t31.5 -83q0 -62 -47 -102t-134 -40z" horiz-adv-x="459" unicode="s" glyph-name="s"/>
<glyph d="M186 -12q-95 0 -95 105v344h-80v46h80v132h53v-132h98v-46h-98v-336q0 -66 50 -66q33 0 54 23l20 -40q-32 -30 -82 -30z" horiz-adv-x="275" unicode="t" glyph-name="t"/>
<glyph d="M459 0h-52v71q-32 -36 -78 -59.5t-96 -23.5q-152 0 -152 155v340h52v-328q0 -67 30 -93.5t87 -26.5q45 0 88.5 23t68.5 57v368h52v-483z" horiz-adv-x="540" unicode="u" glyph-name="u"/>
<glyph d="M270 0h-59l-204 483h58l176 -422l174 422h59z" horiz-adv-x="481" unicode="v" glyph-name="v"/>
<glyph d="M545 0h-50l-135 413l-136 -413h-50l-157 483h56l128 -410l136 410h45l136 -410l128 410h56z" horiz-adv-x="719" unicode="w" glyph-name="w"/>
<glyph d="M462 0h-62l-160 213l-161 -213h-62l191 248l-180 235h62l150 -199l149 199h62l-180 -235z" horiz-adv-x="479" unicode="x" glyph-name="x"/>
<glyph d="M49 -189l9 48q18 -8 42 -8q25 0 42.5 13t31.5 46l38 86l-205 487h58l176 -422l174 422h59l-250 -589q-38 -90 -123 -90q-29 0 -52 7z" horiz-adv-x="481" unicode="y" glyph-name="y"/>
<glyph d="M413 0h-357v43l286 394h-286v46h353v-42l-289 -395h293v-46z" horiz-adv-x="469" unicode="z" glyph-name="z"/>
<glyph d="M232 -190h-62q-44 0 -78 34.5t-34 89.5v219q0 30 -13.5 50.5t-38.5 20.5v40q25 0 38.5 20.5t13.5 50.5v219q0 54 34 89t78 35h62v-43h-62q-28 0 -48 -23t-20 -58v-222q0 -69 -45 -88q45 -19 45 -88v-222q0 -35 20 -58t48 -23h62v-43z" horiz-adv-x="249" unicode="{" glyph-name="braceleft"/>
<glyph d="M126 -20h-43v707h43v-707z" horiz-adv-x="208" unicode="|" glyph-name="bar"/>
<glyph d="M17 -190v43h62q28 0 47.5 23t19.5 58v222q0 68 45 88q-45 20 -45 88v222q0 35 -19.5 58t-47.5 23h-62v43h62q44 0 78 -35t34 -89v-219q0 -30 13.5 -50.5t38.5 -20.5v-40q-25 0 -38.5 -20.5t-13.5 -50.5v-219q0 -55 -34 -89.5t-78 -34.5h-62z" horiz-adv-x="249" unicode="}" glyph-name="braceright"/>
<glyph d="M429 667l43 -5q-5 -50 -13 -88t-23 -73.5t-39.5 -54t-58.5 -18.5t-57 20t-34.5 49t-21.5 58t-25.5 49t-38.5 20q-72 0 -90 -198l-43 7q21 232 133 232q34 0 57 -20.5t34.5 -49.5t21.5 -57.5t25.5 -49t38.5 -20.5q72 0 91 199z" horiz-adv-x="499" unicode="~" glyph-name="asciitilde"/>
<glyph horiz-adv-x="259" unicode=" " glyph-name="nbspace"/>
<glyph d="M76 -184l13 493h41l13 -493h-67zM65 449q0 17 13 30t31 13t31 -13t13 -30q0 -18 -13 -31t-31 -13t-31 13t-13 31z" horiz-adv-x="219" unicode="¡" glyph-name="exclamdown"/>
<glyph d="M257 -100v90q-92 11 -147.5 81.5t-55.5 170.5q0 99 55.5 169.5t147.5 81.5v72h44v-70q95 -4 158 -82l-36 -32q-46 62 -122 67v-413q74 3 122 68l36 -32q-61 -79 -158 -83v-88h-44zM109 242q0 -79 39.5 -135.5t108.5 -68.5v407q-69 -13 -108.5 -68.5t-39.5 -134.5z" horiz-adv-x="494" unicode="¢" glyph-name="cent"/>
<glyph d="M18 267v42h125q-3 4 -20.5 22.5t-22.5 25t-18 24.5t-18 31t-9.5 32.5t-4.5 40.5q0 79 62 135.5t154 56.5q62 0 112.5 -29t75.5 -79l-46 -29q-15 35 -53 61t-85 26q-67 0 -113 -38.5t-46 -104.5q0 -29 10.5 -56.5t22 -42.5t32.5 -39.5t30 -36.5h151v-42h-126 q10 -27 10 -53q0 -81 -81 -140q25 9 54 9q34 0 79.5 -22t74.5 -22q31 0 59.5 13t40.5 28l27 -47q-49 -47 -129 -47q-47 0 -93 23.5t-86 23.5q-42 0 -118 -40l-22 48q69 30 105.5 73t36.5 92q0 29 -16 61h-155z" horiz-adv-x="504" unicode="£" glyph-name="sterling"/>
<glyph d="M486 137l-29 -29l-56 57q-60 -51 -140 -51t-140 51l-57 -57l-28 29l56 56q-50 63 -50 140q0 79 50 140l-56 57l28 28l57 -56q59 50 140 50q79 0 140 -50l56 56l29 -28l-56 -57q50 -61 50 -140q0 -77 -50 -140zM432 333q0 71 -50 121t-121 50t-121 -50t-50 -121t50 -121 t121 -50t121 50t50 121z" horiz-adv-x="522" unicode="¤" glyph-name="currency"/>
<glyph d="M338 0h-58v126h-258v41h258v118h-258v42h229l-236 340h69l225 -328l225 328h69l-236 -340h230v-42h-259v-118h259v-41h-259v-126z" horiz-adv-x="618" unicode="¥" glyph-name="yen"/>
<glyph d="M126 -20h-43v316h43v-316zM126 371h-43v316h43v-316z" horiz-adv-x="208" unicode="¦" glyph-name="brokenbar"/>
<glyph d="M406 310q0 -86 -96 -127q96 -36 96 -121q0 -67 -49.5 -105t-131.5 -38q-113 0 -186 77l31 36q58 -72 155 -72q58 0 94 27t36 73q0 37 -31.5 59t-76.5 32.5t-89.5 23.5t-76 42t-31.5 77q0 51 34 83.5t89 45.5q-60 18 -91.5 46t-31.5 76q0 56 45.5 94t126.5 38 q112 0 172 -72l-28 -33q-49 64 -143 64q-53 0 -87 -25t-34 -67q0 -34 31.5 -53t76 -29t89 -23t76 -45t31.5 -84zM354 307q0 23 -10.5 40t-31 28.5t-38.5 18t-45 13.5q-70 -18 -98.5 -44.5t-28.5 -65.5q0 -15 5 -27t19 -22t24 -16t34.5 -13.5t35.5 -10.5t41 -10q93 40 93 109 z" horiz-adv-x="461" unicode="§" glyph-name="section"/>
<glyph d="M270 601q0 -15 -11 -26t-26 -11t-26 11t-11 26t11 26t26 11t26 -11t11 -26zM66 601q0 -15 -11 -26t-26 -11t-26 11t-11 26t11 26t26 11t26 -11t11 -26z" horiz-adv-x="262" unicode="¨" glyph-name="dieresis"/>
<glyph d="M734 334q0 -143 -101 -244t-244 -101t-244 101.5t-101 243.5q0 143 101 244t244 101t244 -101t101 -244zM706 334q0 131 -93 224t-224 93t-224 -93t-93 -224q0 -130 93 -223.5t224 -93.5t224 93t93 224zM513 208l22 -22q-57 -66 -145 -66q-87 0 -147.5 62.5t-60.5 153.5 t60.5 152t147.5 61q90 0 145 -65l-22 -22q-19 26 -53 41.5t-70 15.5q-71 0 -123 -51.5t-52 -132.5q0 -79 52 -132t123 -53q36 0 70 16t53 42z" horiz-adv-x="778" unicode="©" glyph-name="copyright"/>
<glyph d="M310 326h-42v37q-42 -45 -110 -45q-45 0 -78.5 28.5t-33.5 76.5t33.5 75.5t78.5 27.5q68 0 110 -44v61q0 33 -25 51.5t-60 18.5q-62 0 -100 -48l-22 28q51 55 127 55q54 0 88 -26t34 -79v-217zM174 348q61 0 94 42v65q-32 41 -94 41q-37 0 -61 -20.5t-24 -52.5 q0 -33 24 -54t61 -21z" horiz-adv-x="375" unicode="ª" glyph-name="ordfeminine"/>
<glyph d="M372 63h-57l-160 180l160 177h57l-160 -177zM247 63h-57l-160 180l160 177h57l-160 -177z" horiz-adv-x="402" unicode="«" glyph-name="guillemotleft"/>
<glyph d="M467 453v-237h-43v195h-395v42h438z" horiz-adv-x="499" unicode="¬" glyph-name="logicalnot"/>
<glyph d="M459 465q0 -88 -62 -150t-150 -62t-150 62t-62 150t62 150t150 62q89 0 150.5 -61.5t61.5 -150.5zM432 465q0 77 -54 131t-131 54t-131 -54t-54 -131q0 -76 54.5 -130.5t130.5 -54.5t130.5 54.5t54.5 130.5zM344 343h-38l-63 96h-46v-96h-30v243h99q32 0 53.5 -20.5 t21.5 -53.5q0 -35 -22.5 -53.5t-39.5 -18.5zM310 512q0 19 -13.5 32.5t-30.5 13.5h-69v-90h69q16 0 30 13t14 31z" horiz-adv-x="494" unicode="®" glyph-name="registered"/>
<glyph d="M363 591h-363v38h363v-38z" horiz-adv-x="363" unicode="¯" glyph-name="macron"/>
<glyph d="M363 591h-363v38h363v-38z" horiz-adv-x="363" unicode="‾" glyph-name="macron"/>
<glyph d="M257 560q0 -48 -34 -81.5t-83 -33.5q-48 0 -81.5 33.5t-33.5 81.5t33.5 82.5t81.5 34.5q49 0 83 -34.5t34 -82.5zM218 560q0 32 -23 55t-55 23q-31 0 -53.5 -23t-22.5 -55t22 -54t54 -22t55 22.5t23 53.5z" horiz-adv-x="282" unicode="°" glyph-name="degree"/>
<glyph d="M467 323h-196v-218h-45v218h-197v41h197v212h45v-212h196v-41zM467 0h-438v41h438v-41z" horiz-adv-x="496" unicode="±" glyph-name="plusminus"/>
<glyph d="M333 421h-281v35q122 87 178.5 144.5t56.5 109.5q0 40 -27 59.5t-66 19.5q-77 0 -113 -52l-27 28q48 62 141 62q55 0 95.5 -29t40.5 -86q0 -60 -54.5 -119t-158.5 -134h215v-38z" unicode="²" glyph-name="twosuperior"/>
<glyph d="M335 529q0 -51 -39 -83t-106 -32q-49 0 -87 18t-57 47l26 28q42 -55 117 -55q46 0 73 21t27 57q0 40 -30.5 59.5t-79.5 19.5q-32 0 -38 -1v38q7 -1 38 -1q46 0 75 17.5t29 55.5q0 33 -27.5 52t-68.5 19q-65 0 -111 -50l-25 27q52 61 139 61q60 0 99 -28.5t39 -77.5 q0 -41 -28 -64.5t-61 -28.5q34 -3 65 -28.5t31 -70.5z" unicode="³" glyph-name="threesuperior"/>
<glyph d="M216 700l-172 -144h-44l154 144h62z" horiz-adv-x="216" unicode="´" glyph-name="acute"/>
<glyph d="M133 -184h-52v667h52v-328q0 -67 30 -94.5t87 -27.5q45 0 88.5 24t68.5 58v368h52v-483h-52v71q-32 -36 -78 -59.5t-96 -23.5q-63 0 -100 25v-197z" horiz-adv-x="540" unicode="µ" glyph-name="mu"/>
<glyph d="M133 -184h-52v667h52v-328q0 -67 30 -94.5t87 -27.5q45 0 88.5 24t68.5 58v368h52v-483h-52v71q-32 -36 -78 -59.5t-96 -23.5q-63 0 -100 25v-197z" horiz-adv-x="540" unicode="μ" glyph-name="mu"/>
<glyph d="M368 -100h-38v729h-93v-729h-38v423q-71 0 -121.5 50.5t-50.5 121.5t50.5 121.5t121.5 50.5h169v-767z" horiz-adv-x="449" unicode="¶" glyph-name="paragraph"/>
<glyph d="M154 245q0 -18 -13 -31t-31 -13t-31 13t-13 31q0 17 13 30t31 13t31 -13t13 -30z" horiz-adv-x="219" unicode="·" glyph-name="periodcentered"/>
<glyph d="M154 245q0 -18 -13 -31t-31 -13t-31 13t-13 31q0 17 13 30t31 13t31 -13t13 -30z" horiz-adv-x="219" unicode="∙" glyph-name="periodcentered"/>
<glyph d="M97 -189q-63 0 -97 29l17 32q34 -28 79 -28q27 0 46 12.5t19 32.5q0 40 -40 40q-25 0 -41 -18l-27 16l30 84h38l-26 -67q16 11 37 11q29 0 47.5 -18t18.5 -48q0 -35 -29 -56.5t-72 -21.5z" horiz-adv-x="198" unicode="¸" glyph-name="cedilla"/>
<glyph d="M154 421h-46v341l-64 -69l-27 29l97 99h40v-400z" horiz-adv-x="214" unicode="¹" glyph-name="onesuperior"/>
<glyph d="M202 318q-70 0 -114 47.5t-44 117.5t44 117.5t114 47.5q71 0 115 -47t44 -118q0 -70 -44 -117.5t-115 -47.5zM202 355q53 0 84 36.5t31 91.5q0 54 -31 90.5t-84 36.5q-52 0 -82.5 -36t-30.5 -91t30.5 -91.5t82.5 -36.5z" horiz-adv-x="405" unicode="º" glyph-name="ordmasculine"/>
<glyph d="M247 243l-160 -180h-57l160 180l-160 177h57zM372 243l-160 -180h-57l160 180l-160 177h57z" horiz-adv-x="402" unicode="»" glyph-name="guillemotright"/>
<glyph d="M568 667l-427 -667h-45l426 667h46zM701 107h-60v-107h-44v107h-196v35l179 258h61v-256h60v-37zM597 144v215l-150 -215h150zM154 267h-46v341l-64 -69l-27 29l97 99h40v-400z" horiz-adv-x="742" unicode="¼" glyph-name="onequarter"/>
<glyph d="M568 667l-427 -667h-45l426 667h46zM730 0h-281v35q122 87 178.5 144.5t56.5 109.5q0 40 -27 59.5t-66 19.5q-77 0 -113 -52l-27 28q48 62 141 62q55 0 95.5 -29t40.5 -86q0 -60 -54.5 -119t-158.5 -134h215v-38zM154 267h-46v341l-64 -69l-27 29l97 99h40v-400z" horiz-adv-x="781" unicode="½" glyph-name="onehalf"/>
<glyph d="M685 667l-427 -667h-45l426 667h46zM818 107h-60v-107h-44v107h-196v35l179 258h61v-256h60v-37zM714 144v215l-150 -215h150zM335 375q0 -51 -39 -83t-106 -32q-49 0 -87 18t-57 47l26 28q42 -55 117 -55q46 0 73 21t27 57q0 40 -30.5 59.5t-79.5 19.5q-32 0 -38 -1v38 q7 -1 38 -1q46 0 75 17.5t29 55.5q0 33 -27.5 52t-68.5 19q-65 0 -111 -50l-25 27q52 61 139 61q60 0 99 -28.5t39 -77.5q0 -41 -28 -64.5t-61 -28.5q34 -3 65 -28.5t31 -70.5z" horiz-adv-x="859" unicode="¾" glyph-name="threequarters"/>
<glyph d="M250 304q42 -34 42 -79q0 -36 -20 -65t-49 -49t-58 -39.5t-49 -47t-20 -61.5q0 -46 36 -76.5t99 -30.5q111 0 175 89l36 -37q-77 -105 -215 -105q-87 0 -139 45t-52 110q0 42 21 76t51 56t60 41.5t51 44t21 53.5t-30 50zM242 492q18 0 31 -13t13 -31q0 -17 -13 -30 t-31 -13t-31.5 13t-13.5 30q0 18 13.5 31t31.5 13z" horiz-adv-x="392" unicode="¿" glyph-name="questiondown"/>
<glyph d="M384 728h-44l-172 144h62zM632 0h-66l-66 164h-353l-66 -164h-66l273 667h71zM481 216l-157 390l-158 -390h315z" horiz-adv-x="647" unicode="À" glyph-name="Agrave"/>
<glyph d="M481 872l-172 -144h-44l154 144h62zM632 0h-66l-66 164h-353l-66 -164h-66l273 667h71zM481 216l-157 390l-158 -390h315z" horiz-adv-x="647" unicode="Á" glyph-name="Aacute"/>
<glyph d="M450 728h-40l-86 113l-84 -113h-40l97 144h54zM632 0h-66l-66 164h-353l-66 -164h-66l273 667h71zM481 216l-157 390l-158 -390h315z" horiz-adv-x="647" unicode="Â" glyph-name="Acircumflex"/>
<glyph d="M385 726q-25 0 -43.5 16t-27 35t-23 35t-31.5 16q-24 0 -39 -24t-15 -72h-35q0 58 24.5 96t68.5 38q25 0 43.5 -16t27 -35t23 -35t31.5 -16q24 0 39 24t15 72h35q0 -59 -24.5 -96.5t-68.5 -37.5zM632 0h-66l-66 164h-353l-66 -164h-66l273 667h71zM481 216l-157 390 l-158 -390h315z" horiz-adv-x="647" unicode="Ã" glyph-name="Atilde"/>
<glyph d="M463 769q0 -15 -11 -26t-26 -11t-26 11t-11 26t11 26t26 11t26 -11t11 -26zM259 769q0 -15 -11 -26t-26 -11t-26 11t-11 26t11 26t26 11t26 -11t11 -26zM632 0h-66l-66 164h-353l-66 -164h-66l273 667h71zM481 216l-157 390l-158 -390h315z" horiz-adv-x="647" unicode="Ä" glyph-name="Adieresis"/>
<glyph d="M325 692q-40 0 -68 28.5t-28 67.5q0 40 28 68t68 28q39 0 67 -28t28 -68q0 -39 -28 -67.5t-67 -28.5zM325 724q26 0 44.5 19t18.5 45t-18.5 45t-44.5 19t-45 -19t-19 -45t19 -45t45 -19zM632 0h-66l-66 164h-353l-66 -164h-66l273 667h71zM481 216l-157 390l-158 -390 h315z" horiz-adv-x="647" unicode="Å" glyph-name="Aring"/>
<glyph d="M879 0h-423v164h-274l-102 -164h-66l421 667h444v-52h-365v-247h358v-52h-358v-264h365v-52zM456 216v390l-245 -390h245z" horiz-adv-x="939" unicode="Æ" glyph-name="AE"/>
<glyph d="M390 -185q-63 0 -97 29l17 32q34 -28 79 -28q27 0 46 12.5t19 32.5q0 40 -40 40q-25 0 -41 -18l-27 16l21 58q-134 10 -221.5 105t-87.5 239q0 152 97 248.5t241 96.5q150 0 243 -118l-48 -31q-32 44 -84 70.5t-111 26.5q-119 0 -198.5 -82t-79.5 -211q0 -128 80 -210.5 t198 -82.5q59 0 111 26.5t84 70.5l49 -30q-95 -116 -237 -119l-15 -40q16 11 37 11q29 0 47.5 -18t18.5 -48q0 -35 -29 -56.5t-72 -21.5z" horiz-adv-x="671" unicode="Ç" glyph-name="Ccedilla"/>
<glyph d="M354 728h-44l-172 144h62zM506 0h-423v667h423v-52h-366v-247h359v-52h-359v-264h366v-52z" horiz-adv-x="564" unicode="È" glyph-name="Egrave"/>
<glyph d="M451 872l-172 -144h-44l154 144h62zM506 0h-423v667h423v-52h-366v-247h359v-52h-359v-264h366v-52z" horiz-adv-x="564" unicode="É" glyph-name="Eacute"/>
<glyph d="M418 728h-40l-86 113l-84 -113h-40l97 144h54zM506 0h-423v667h423v-52h-366v-247h359v-52h-359v-264h366v-52z" horiz-adv-x="564" unicode="Ê" glyph-name="Ecircumflex"/>
<glyph d="M432 769q0 -15 -11 -26t-26 -11t-26 11t-11 26t11 26t26 11t26 -11t11 -26zM228 769q0 -15 -11 -26t-26 -11t-26 11t-11 26t11 26t26 11t26 -11t11 -26zM506 0h-423v667h423v-52h-366v-247h359v-52h-359v-264h366v-52z" horiz-adv-x="564" unicode="Ë" glyph-name="Edieresis"/>
<glyph d="M172 728h-44l-172 144h62zM140 0h-57v667h57v-667z" horiz-adv-x="223" unicode="Ì" glyph-name="Igrave"/>
<glyph d="M269 872l-172 -144h-44l154 144h62zM140 0h-57v667h57v-667z" horiz-adv-x="223" unicode="Í" glyph-name="Iacute"/>
<glyph d="M238 728h-40l-86 113l-84 -113h-40l97 144h54zM140 0h-57v667h57v-667z" horiz-adv-x="223" unicode="Î" glyph-name="Icircumflex"/>
<glyph d="M251 769q0 -15 -11 -26t-26 -11t-26 11t-11 26t11 26t26 11t26 -11t11 -26zM47 769q0 -15 -11 -26t-26 -11t-26 11t-11 26t11 26t26 11t26 -11t11 -26zM140 0h-57v667h57v-667z" horiz-adv-x="223" unicode="Ï" glyph-name="Idieresis"/>
<glyph d="M325 0h-213v308h-101v46h101v313h213q151 0 244 -96.5t93 -237.5q0 -142 -92.5 -237.5t-244.5 -95.5zM349 308h-180v-256h156q128 0 202.5 80t74.5 201t-74 201.5t-203 80.5h-156v-261h180v-46z" horiz-adv-x="721" unicode="Ð" glyph-name="Eth"/>
<glyph d="M408 726q-25 0 -43.5 16t-27 35t-23 35t-31.5 16q-24 0 -39 -24t-15 -72h-35q0 58 24.5 96t68.5 38q25 0 43.5 -16t27 -35t23 -35t31.5 -16q24 0 39 24t15 72h35q0 -59 -24.5 -96.5t-68.5 -37.5zM616 0h-56l-420 573v-573h-57v667h58l418 -565v565h57v-667z" horiz-adv-x="699" unicode="Ñ" glyph-name="Ntilde"/>
<glyph d="M446 728h-44l-172 144h62zM382 -12q-145 0 -234.5 98t-89.5 247t89.5 247t234.5 98q144 0 234 -98t90 -247t-90 -247t-234 -98zM382 40q118 0 191 82.5t73 210.5t-72.5 210.5t-191.5 82.5t-191.5 -82.5t-72.5 -210.5t72.5 -210.5t191.5 -82.5z" horiz-adv-x="764" unicode="Ò" glyph-name="Ograve"/>
<glyph d="M540 872l-172 -144h-44l154 144h62zM382 -12q-145 0 -234.5 98t-89.5 247t89.5 247t234.5 98q144 0 234 -98t90 -247t-90 -247t-234 -98zM382 40q118 0 191 82.5t73 210.5t-72.5 210.5t-191.5 82.5t-191.5 -82.5t-72.5 -210.5t72.5 -210.5t191.5 -82.5z" horiz-adv-x="764" unicode="Ó" glyph-name="Oacute"/>
<glyph d="M509 728h-40l-86 113l-84 -113h-40l97 144h54zM382 -12q-145 0 -234.5 98t-89.5 247t89.5 247t234.5 98q144 0 234 -98t90 -247t-90 -247t-234 -98zM382 40q118 0 191 82.5t73 210.5t-72.5 210.5t-191.5 82.5t-191.5 -82.5t-72.5 -210.5t72.5 -210.5t191.5 -82.5z" horiz-adv-x="764" unicode="Ô" glyph-name="Ocircumflex"/>
<glyph d="M443 726q-25 0 -43.5 16t-27 35t-23 35t-31.5 16q-24 0 -39 -24t-15 -72h-35q0 58 24.5 96t68.5 38q25 0 43.5 -16t27 -35t23 -35t31.5 -16q24 0 39 24t15 72h35q0 -59 -24.5 -96.5t-68.5 -37.5zM382 -12q-145 0 -234.5 98t-89.5 247t89.5 247t234.5 98q144 0 234 -98 t90 -247t-90 -247t-234 -98zM382 40q118 0 191 82.5t73 210.5t-72.5 210.5t-191.5 82.5t-191.5 -82.5t-72.5 -210.5t72.5 -210.5t191.5 -82.5z" horiz-adv-x="764" unicode="Õ" glyph-name="Otilde"/>
<glyph d="M520 769q0 -15 -11 -26t-26 -11t-26 11t-11 26t11 26t26 11t26 -11t11 -26zM316 769q0 -15 -11 -26t-26 -11t-26 11t-11 26t11 26t26 11t26 -11t11 -26zM382 -12q-145 0 -234.5 98t-89.5 247t89.5 247t234.5 98q144 0 234 -98t90 -247t-90 -247t-234 -98zM382 40 q118 0 191 82.5t73 210.5t-72.5 210.5t-191.5 82.5t-191.5 -82.5t-72.5 -210.5t72.5 -210.5t191.5 -82.5z" horiz-adv-x="764" unicode="Ö" glyph-name="Odieresis"/>
<glyph d="M400 153l-152 152l-151 -152l-30 29l152 152l-152 152l30 29l151 -152l152 152l29 -29l-152 -152l152 -152z" horiz-adv-x="496" unicode="×" glyph-name="multiply"/>
<glyph d="M382 -12q-93 0 -168 44l-20 -32h-51l36 56q-58 47 -89.5 119t-31.5 158q0 149 89.5 247t234.5 98q89 0 164 -43l20 32h52l-36 -56q59 -47 91.5 -119.5t32.5 -158.5q0 -149 -90 -247t-234 -98zM382 40q118 0 191 82.5t73 210.5q0 150 -94 231l-309 -486q62 -38 139 -38z M118 333q0 -147 91 -229l308 486q-59 36 -135 36q-119 0 -191.5 -82.5t-72.5 -210.5z" horiz-adv-x="764" unicode="Ø" glyph-name="Oslash"/>
<glyph d="M405 728h-44l-172 144h62zM343 -12q-126 0 -193 71.5t-67 196.5v411h58v-410q0 -102 52.5 -159.5t149.5 -57.5t149.5 57.5t52.5 159.5v410h58v-411q0 -126 -66.5 -197t-193.5 -71z" horiz-adv-x="686" unicode="Ù" glyph-name="Ugrave"/>
<glyph d="M499 872l-172 -144h-44l154 144h62zM343 -12q-126 0 -193 71.5t-67 196.5v411h58v-410q0 -102 52.5 -159.5t149.5 -57.5t149.5 57.5t52.5 159.5v410h58v-411q0 -126 -66.5 -197t-193.5 -71z" horiz-adv-x="686" unicode="Ú" glyph-name="Uacute"/>
<glyph d="M472 728h-40l-86 113l-84 -113h-40l97 144h54zM343 -12q-126 0 -193 71.5t-67 196.5v411h58v-410q0 -102 52.5 -159.5t149.5 -57.5t149.5 57.5t52.5 159.5v410h58v-411q0 -126 -66.5 -197t-193.5 -71z" horiz-adv-x="686" unicode="Û" glyph-name="Ucircumflex"/>
<glyph d="M483 769q0 -15 -11 -26t-26 -11t-26 11t-11 26t11 26t26 11t26 -11t11 -26zM279 769q0 -15 -11 -26t-26 -11t-26 11t-11 26t11 26t26 11t26 -11t11 -26zM343 -12q-126 0 -193 71.5t-67 196.5v411h58v-410q0 -102 52.5 -159.5t149.5 -57.5t149.5 57.5t52.5 159.5v410h58 v-411q0 -126 -66.5 -197t-193.5 -71z" horiz-adv-x="686" unicode="Ü" glyph-name="Udieresis"/>
<glyph d="M470 872l-172 -144h-44l154 144h62zM338 0h-58v285l-265 382h69l225 -328l225 328h69l-265 -382v-285z" horiz-adv-x="618" unicode="Ý" glyph-name="Yacute"/>
<glyph d="M140 0h-57v667h57v-124h193q93 0 147 -57t54 -139t-54.5 -138t-146.5 -56h-193v-153zM327 205q66 0 106.5 39.5t40.5 102.5q0 64 -40.5 104t-106.5 40h-187v-286h187z" horiz-adv-x="571" unicode="Þ" glyph-name="Thorn"/>
<glyph d="M557 131q0 -60 -45.5 -101.5t-133.5 -41.5q-66 0 -106.5 20t-75.5 57l31 38q54 -71 151 -71q61 0 94.5 29t33.5 69q0 36 -31 57.5t-75 32.5t-87.5 23.5t-74.5 41.5t-31 77q0 37 24.5 66t53.5 44.5t53.5 37t24.5 45.5q0 34 -33.5 54.5t-74.5 20.5q-51 0 -86.5 -33 t-35.5 -88v-509h-52v509q0 72 48 120t126 48q66 0 113.5 -32.5t47.5 -85.5q0 -30 -16.5 -53t-39.5 -38t-46 -29t-39.5 -33.5t-16.5 -44.5q0 -33 31 -51.5t75 -28.5t87.5 -22.5t74.5 -44.5t31 -83z" horiz-adv-x="578" unicode="ß" glyph-name="germandbls"/>
<glyph d="M440 0h-52v57q-63 -69 -164 -69q-67 0 -118 43.5t-51 117.5q0 75 50.5 117.5t118.5 42.5q102 0 164 -69v98q0 52 -36.5 81.5t-92.5 29.5q-90 0 -152 -71l-29 36q75 81 186 81q78 0 127 -39t49 -116v-340zM242 29q95 0 146 66v106q-51 67 -146 67q-59 0 -95.5 -34 t-36.5 -86t36.5 -85.5t95.5 -33.5zM324 556h-44l-172 144h62z" horiz-adv-x="521" unicode="à" glyph-name="agrave"/>
<glyph d="M440 0h-52v57q-63 -69 -164 -69q-67 0 -118 43.5t-51 117.5q0 75 50.5 117.5t118.5 42.5q102 0 164 -69v98q0 52 -36.5 81.5t-92.5 29.5q-90 0 -152 -71l-29 36q75 81 186 81q78 0 127 -39t49 -116v-340zM242 29q95 0 146 66v106q-51 67 -146 67q-59 0 -95.5 -34 t-36.5 -86t36.5 -85.5t95.5 -33.5zM420 700l-172 -144h-44l154 144h62z" horiz-adv-x="521" unicode="á" glyph-name="aacute"/>
<glyph d="M440 0h-52v57q-63 -69 -164 -69q-67 0 -118 43.5t-51 117.5q0 75 50.5 117.5t118.5 42.5q102 0 164 -69v98q0 52 -36.5 81.5t-92.5 29.5q-90 0 -152 -71l-29 36q75 81 186 81q78 0 127 -39t49 -116v-340zM242 29q95 0 146 66v106q-51 67 -146 67q-59 0 -95.5 -34 t-36.5 -86t36.5 -85.5t95.5 -33.5zM391 556h-40l-86 113l-84 -113h-40l97 144h54z" horiz-adv-x="521" unicode="â" glyph-name="acircumflex"/>
<glyph d="M440 0h-52v57q-63 -69 -164 -69q-67 0 -118 43.5t-51 117.5q0 75 50.5 117.5t118.5 42.5q102 0 164 -69v98q0 52 -36.5 81.5t-92.5 29.5q-90 0 -152 -71l-29 36q75 81 186 81q78 0 127 -39t49 -116v-340zM242 29q95 0 146 66v106q-51 67 -146 67q-59 0 -95.5 -34 t-36.5 -86t36.5 -85.5t95.5 -33.5zM324 554q-25 0 -43.5 16t-27 35t-23 35t-31.5 16q-24 0 -39 -24t-15 -72h-35q0 58 24.5 96t68.5 38q25 0 43.5 -16t27 -35t23 -35t31.5 -16q24 0 39 24t15 72h35q0 -59 -24.5 -96.5t-68.5 -37.5z" horiz-adv-x="521" unicode="ã" glyph-name="atilde"/>
<glyph d="M440 0h-52v57q-63 -69 -164 -69q-67 0 -118 43.5t-51 117.5q0 75 50.5 117.5t118.5 42.5q102 0 164 -69v98q0 52 -36.5 81.5t-92.5 29.5q-90 0 -152 -71l-29 36q75 81 186 81q78 0 127 -39t49 -116v-340zM242 29q95 0 146 66v106q-51 67 -146 67q-59 0 -95.5 -34 t-36.5 -86t36.5 -85.5t95.5 -33.5zM401 601q0 -15 -11 -26t-26 -11t-26 11t-11 26t11 26t26 11t26 -11t11 -26zM197 601q0 -15 -11 -26t-26 -11t-26 11t-11 26t11 26t26 11t26 -11t11 -26z" horiz-adv-x="521" unicode="ä" glyph-name="adieresis"/>
<glyph d="M440 0h-52v57q-63 -69 -164 -69q-67 0 -118 43.5t-51 117.5q0 75 50.5 117.5t118.5 42.5q102 0 164 -69v98q0 52 -36.5 81.5t-92.5 29.5q-90 0 -152 -71l-29 36q75 81 186 81q78 0 127 -39t49 -116v-340zM242 29q95 0 146 66v106q-51 67 -146 67q-59 0 -95.5 -34 t-36.5 -86t36.5 -85.5t95.5 -33.5zM264 550q-40 0 -68 28.5t-28 67.5q0 40 28 68t68 28q39 0 67 -28t28 -68q0 -39 -28 -67.5t-67 -28.5zM264 582q26 0 44.5 19t18.5 45t-18.5 45t-44.5 19t-45 -19t-19 -45t19 -45t45 -19z" horiz-adv-x="521" unicode="å" glyph-name="aring"/>
<glyph d="M844 225h-404q4 -82 55 -137t134 -55q94 0 158 67l27 -34q-75 -78 -189 -78q-129 0 -199 106q-70 -106 -200 -106q-68 0 -119.5 43.5t-51.5 117.5t50 117t119 43q101 0 164 -67v96q0 52 -36.5 81.5t-92.5 29.5q-90 0 -152 -71l-29 36q75 81 186 81q70 0 112.5 -30 t50.5 -87q27 52 75.5 84.5t115.5 32.5q105 0 165.5 -73.5t60.5 -182.5v-14zM440 266h351q0 70 -46 127t-130 57q-79 0 -125.5 -56.5t-49.5 -127.5zM405 126q-17 32 -17 74q-51 68 -146 68q-59 0 -95.5 -34t-36.5 -86t36.5 -85.5t95.5 -33.5q109 0 163 97z" horiz-adv-x="897" unicode="æ" glyph-name="ae"/>
<glyph d="M289 -187q-63 0 -97 29l17 32q34 -28 79 -28q27 0 46 12.5t19 32.5q0 40 -40 40q-25 0 -41 -18l-27 16l21 60q-96 8 -154 79.5t-58 173.5q0 108 65 180.5t169 72.5q106 0 171 -82l-36 -32q-49 67 -132 67t-132.5 -58.5t-49.5 -147.5t49.5 -148t132.5 -59q82 0 132 68 l36 -32q-61 -78 -156 -83l-16 -42q16 11 37 11q29 0 47.5 -18t18.5 -48q0 -35 -29 -56.5t-72 -21.5z" horiz-adv-x="494" unicode="ç" glyph-name="ccedilla"/>
<glyph d="M295 -12q-106 0 -173.5 71t-67.5 183q0 106 66 179.5t166 73.5q106 0 167 -73t61 -183v-14h-404q4 -82 55 -137t134 -55q96 0 158 67l27 -34q-75 -78 -189 -78zM461 266q-1 70 -46.5 127t-129.5 57q-79 0 -125.5 -56.5t-49.5 -127.5h351zM347 556h-44l-172 144h62z" horiz-adv-x="567" unicode="è" glyph-name="egrave"/>
<glyph d="M295 -12q-106 0 -173.5 71t-67.5 183q0 106 66 179.5t166 73.5q106 0 167 -73t61 -183v-14h-404q4 -82 55 -137t134 -55q96 0 158 67l27 -34q-75 -78 -189 -78zM461 266q-1 70 -46.5 127t-129.5 57q-79 0 -125.5 -56.5t-49.5 -127.5h351zM444 700l-172 -144h-44l154 144 h62z" horiz-adv-x="567" unicode="é" glyph-name="eacute"/>
<glyph d="M295 -12q-106 0 -173.5 71t-67.5 183q0 106 66 179.5t166 73.5q106 0 167 -73t61 -183v-14h-404q4 -82 55 -137t134 -55q96 0 158 67l27 -34q-75 -78 -189 -78zM461 266q-1 70 -46.5 127t-129.5 57q-79 0 -125.5 -56.5t-49.5 -127.5h351zM413 556h-40l-86 113l-84 -113 h-40l97 144h54z" horiz-adv-x="567" unicode="ê" glyph-name="ecircumflex"/>
<glyph d="M295 -12q-106 0 -173.5 71t-67.5 183q0 106 66 179.5t166 73.5q106 0 167 -73t61 -183v-14h-404q4 -82 55 -137t134 -55q96 0 158 67l27 -34q-75 -78 -189 -78zM461 266q-1 70 -46.5 127t-129.5 57q-79 0 -125.5 -56.5t-49.5 -127.5h351zM426 601q0 -15 -11 -26t-26 -11 t-26 11t-11 26t11 26t26 11t26 -11t11 -26zM222 601q0 -15 -11 -26t-26 -11t-26 11t-11 26t11 26t26 11t26 -11t11 -26z" horiz-adv-x="567" unicode="ë" glyph-name="edieresis"/>
<glyph d="M166 556h-44l-172 144h62zM133 0h-52v483h52v-483z" horiz-adv-x="214" unicode="ì" glyph-name="igrave"/>
<glyph d="M264 700l-172 -144h-44l154 144h62zM133 0h-52v483h52v-483z" horiz-adv-x="214" unicode="í" glyph-name="iacute"/>
<glyph d="M232 556h-40l-86 113l-84 -113h-40l97 144h54zM133 0h-52v483h52v-483z" horiz-adv-x="214" unicode="î" glyph-name="icircumflex"/>
<glyph d="M246 601q0 -15 -11 -26t-26 -11t-26 11t-11 26t11 26t26 11t26 -11t11 -26zM42 601q0 -15 -11 -26t-26 -11t-26 11t-11 26t11 26t26 11t26 -11t11 -26zM133 0h-52v483h52v-483z" horiz-adv-x="214" unicode="ï" glyph-name="idieresis"/>
<glyph d="M130 510l-14 34l121 53q-19 13 -81 53l30 44q62 -38 108 -72l109 48l14 -33l-91 -41q192 -160 192 -352q0 -111 -64 -183.5t-169 -72.5q-103 0 -167 71t-64 179q0 107 62 178t160 71q96 0 157 -87q-57 94 -161 172zM285 35q82 0 129.5 59.5t47.5 143.5q0 83 -47.5 142.5 t-129.5 59.5q-81 0 -128.5 -59.5t-47.5 -142.5q0 -84 47.5 -143.5t128.5 -59.5z" horiz-adv-x="571" unicode="ð" glyph-name="eth"/>
<glyph d="M461 0h-52v327q0 66 -30 93.5t-87 27.5q-45 0 -89 -24t-68 -59v-365h-52v483h52v-73q29 34 77 59.5t97 25.5q152 0 152 -157v-338zM331 554q-25 0 -43.5 16t-27 35t-23 35t-31.5 16q-24 0 -39 -24t-15 -72h-35q0 58 24.5 96t68.5 38q25 0 43.5 -16t27 -35t23 -35 t31.5 -16q24 0 39 24t15 72h35q0 -59 -24.5 -96.5t-68.5 -37.5z" horiz-adv-x="540" unicode="ñ" glyph-name="ntilde"/>
<glyph d="M285 -12q-104 0 -167.5 73t-63.5 181t63.5 180.5t167.5 72.5q105 0 169 -72.5t64 -180.5t-64 -181t-169 -73zM285 35q82 0 129.5 60.5t47.5 146.5q0 85 -47.5 145.5t-129.5 60.5q-81 0 -128.5 -60.5t-47.5 -145.5t47.5 -146t128.5 -61zM346 556h-44l-172 144h62z" horiz-adv-x="571" unicode="ò" glyph-name="ograve"/>
<glyph d="M285 -12q-104 0 -167.5 73t-63.5 181t63.5 180.5t167.5 72.5q105 0 169 -72.5t64 -180.5t-64 -181t-169 -73zM285 35q82 0 129.5 60.5t47.5 146.5q0 85 -47.5 145.5t-129.5 60.5q-81 0 -128.5 -60.5t-47.5 -145.5t47.5 -146t128.5 -61zM443 700l-172 -144h-44l154 144h62 z" horiz-adv-x="571" unicode="ó" glyph-name="oacute"/>
<glyph d="M285 -12q-104 0 -167.5 73t-63.5 181t63.5 180.5t167.5 72.5q105 0 169 -72.5t64 -180.5t-64 -181t-169 -73zM285 35q82 0 129.5 60.5t47.5 146.5q0 85 -47.5 145.5t-129.5 60.5q-81 0 -128.5 -60.5t-47.5 -145.5t47.5 -146t128.5 -61zM412 556h-40l-86 113l-84 -113h-40 l97 144h54z" horiz-adv-x="571" unicode="ô" glyph-name="ocircumflex"/>
<glyph d="M285 -12q-104 0 -167.5 73t-63.5 181t63.5 180.5t167.5 72.5q105 0 169 -72.5t64 -180.5t-64 -181t-169 -73zM285 35q82 0 129.5 60.5t47.5 146.5q0 85 -47.5 145.5t-129.5 60.5q-81 0 -128.5 -60.5t-47.5 -145.5t47.5 -146t128.5 -61zM346 554q-25 0 -43.5 16t-27 35 t-23 35t-31.5 16q-24 0 -39 -24t-15 -72h-35q0 58 24.5 96t68.5 38q25 0 43.5 -16t27 -35t23 -35t31.5 -16q24 0 39 24t15 72h35q0 -59 -24.5 -96.5t-68.5 -37.5z" horiz-adv-x="571" unicode="õ" glyph-name="otilde"/>
<glyph d="M285 -12q-104 0 -167.5 73t-63.5 181t63.5 180.5t167.5 72.5q105 0 169 -72.5t64 -180.5t-64 -181t-169 -73zM285 35q82 0 129.5 60.5t47.5 146.5q0 85 -47.5 145.5t-129.5 60.5q-81 0 -128.5 -60.5t-47.5 -145.5t47.5 -146t128.5 -61zM425 601q0 -15 -11 -26t-26 -11 t-26 11t-11 26t11 26t26 11t26 -11t11 -26zM221 601q0 -15 -11 -26t-26 -11t-26 11t-11 26t11 26t26 11t26 -11t11 -26z" horiz-adv-x="571" unicode="ö" glyph-name="odieresis"/>
<glyph d="M295 531q0 -16 -11.5 -28t-27.5 -12t-28 12t-12 28t11.5 27.5t28.5 11.5q16 0 27.5 -11.5t11.5 -27.5zM482 316h-453v42h453v-42zM295 139q0 -16 -11.5 -28t-27.5 -12t-28 11.5t-12 28.5q0 16 12 27.5t28 11.5t27.5 -11.5t11.5 -27.5z" horiz-adv-x="511" unicode="÷" glyph-name="divide"/>
<glyph d="M118 0h-44l45 59q-65 71 -65 183q0 108 63.5 180.5t167.5 72.5q78 0 135 -43l24 31h44l-41 -53q71 -73 71 -188q0 -108 -64 -181t-169 -73q-82 0 -140 47zM285 35q82 0 129.5 60.5t47.5 146.5q0 85 -48 145l-238 -312q45 -40 109 -40zM109 242q0 -83 43 -141l237 311 q-44 36 -104 36q-81 0 -128.5 -60.5t-47.5 -145.5z" horiz-adv-x="571" unicode="ø" glyph-name="oslash"/>
<glyph d="M459 0h-52v71q-32 -36 -78 -59.5t-96 -23.5q-152 0 -152 155v340h52v-328q0 -67 30 -93.5t87 -26.5q45 0 88.5 23t68.5 57v368h52v-483zM332 556h-44l-172 144h62z" horiz-adv-x="540" unicode="ù" glyph-name="ugrave"/>
<glyph d="M459 0h-52v71q-32 -36 -78 -59.5t-96 -23.5q-152 0 -152 155v340h52v-328q0 -67 30 -93.5t87 -26.5q45 0 88.5 23t68.5 57v368h52v-483zM428 700l-172 -144h-44l154 144h62z" horiz-adv-x="540" unicode="ú" glyph-name="uacute"/>
<glyph d="M459 0h-52v71q-32 -36 -78 -59.5t-96 -23.5q-152 0 -152 155v340h52v-328q0 -67 30 -93.5t87 -26.5q45 0 88.5 23t68.5 57v368h52v-483zM395 556h-40l-86 113l-84 -113h-40l97 144h54z" horiz-adv-x="540" unicode="û" glyph-name="ucircumflex"/>
<glyph d="M459 0h-52v71q-32 -36 -78 -59.5t-96 -23.5q-152 0 -152 155v340h52v-328q0 -67 30 -93.5t87 -26.5q45 0 88.5 23t68.5 57v368h52v-483zM413 601q0 -15 -11 -26t-26 -11t-26 11t-11 26t11 26t26 11t26 -11t11 -26zM209 601q0 -15 -11 -26t-26 -11t-26 11t-11 26t11 26 t26 11t26 -11t11 -26z" horiz-adv-x="540" unicode="ü" glyph-name="udieresis"/>
<glyph d="M49 -189l9 48q18 -8 42 -8q25 0 42.5 13t31.5 46l38 86l-205 487h58l176 -422l174 422h59l-250 -589q-38 -90 -123 -90q-29 0 -52 7zM398 700l-172 -144h-44l154 144h62z" horiz-adv-x="481" unicode="ý" glyph-name="yacute"/>
<glyph d="M301 -12q-104 0 -168 90v-262h-52v851h52v-260q27 39 71.5 63.5t96.5 24.5q97 0 156.5 -68.5t59.5 -184.5q0 -115 -59.5 -184.5t-156.5 -69.5zM292 35q79 0 124 58t45 149q0 90 -45 148t-124 58q-49 0 -93 -25t-66 -61v-239q22 -36 66.5 -62t92.5 -26z" horiz-adv-x="567" unicode="þ" glyph-name="thorn"/>
<glyph d="M49 -189l9 48q18 -8 42 -8q25 0 42.5 13t31.5 46l38 86l-205 487h58l176 -422l174 422h59l-250 -589q-38 -90 -123 -90q-29 0 -52 7zM380 601q0 -15 -11 -26t-26 -11t-26 11t-11 26t11 26t26 11t26 -11t11 -26zM176 601q0 -15 -11 -26t-26 -11t-26 11t-11 26t11 26t26 11 t26 -11t11 -26z" horiz-adv-x="481" unicode="ÿ" glyph-name="ydieresis"/>
<glyph d="M632 0h-66l-66 164h-353l-66 -164h-66l273 667h71zM481 216l-157 390l-158 -390h315zM505 749h-363v38h363v-38z" horiz-adv-x="647" unicode="Ā" glyph-name="Amacron"/>
<glyph d="M440 0h-52v57q-63 -69 -164 -69q-67 0 -118 43.5t-51 117.5q0 75 50.5 117.5t118.5 42.5q102 0 164 -69v98q0 52 -36.5 81.5t-92.5 29.5q-90 0 -152 -71l-29 36q75 81 186 81q78 0 127 -39t49 -116v-340zM242 29q95 0 146 66v106q-51 67 -146 67q-59 0 -95.5 -34 t-36.5 -86t36.5 -85.5t95.5 -33.5zM441 579h-363v38h363v-38z" horiz-adv-x="521" unicode="ā" glyph-name="amacron"/>
<glyph d="M632 0h-66l-66 164h-353l-66 -164h-66l273 667h71zM481 216l-157 390l-158 -390h315zM499 813q-65 -88 -175 -88q-109 0 -176 88l29 25q54 -75 147 -75q92 0 147 75z" horiz-adv-x="647" unicode="Ă" glyph-name="Abreve"/>
<glyph d="M440 0h-52v57q-63 -69 -164 -69q-67 0 -118 43.5t-51 117.5q0 75 50.5 117.5t118.5 42.5q102 0 164 -69v98q0 52 -36.5 81.5t-92.5 29.5q-90 0 -152 -71l-29 36q75 81 186 81q78 0 127 -39t49 -116v-340zM242 29q95 0 146 66v106q-51 67 -146 67q-59 0 -95.5 -34 t-36.5 -86t36.5 -85.5t95.5 -33.5zM435 654q-65 -88 -175 -88q-109 0 -176 88l29 25q54 -75 147 -75q92 0 147 75z" horiz-adv-x="521" unicode="ă" glyph-name="abreve"/>
<glyph d="M656 -109l31 -16q-26 -61 -86 -61q-37 0 -61 21.5t-24 63.5q0 58 56 101h-6l-66 164h-353l-66 -164h-66l273 667h71l273 -667q-79 -38 -79 -99q0 -54 48 -54q41 0 55 44zM481 216l-157 390l-158 -390h315z" horiz-adv-x="647" unicode="Ą" glyph-name="Aogonek"/>
<glyph d="M464 -109l31 -16q-26 -61 -86 -61q-37 0 -61 21.5t-24 63.5q0 62 64 106v52q-63 -69 -164 -69q-67 0 -118 43.5t-51 117.5q0 75 50.5 117.5t118.5 42.5q102 0 164 -69v98q0 52 -36.5 81.5t-92.5 29.5q-90 0 -152 -71l-29 36q75 81 186 81q78 0 127 -39t49 -116v-340 q-79 -38 -79 -99q0 -54 48 -54q41 0 55 44zM242 29q95 0 146 66v106q-51 67 -146 67q-59 0 -95.5 -34t-36.5 -86t36.5 -85.5t95.5 -33.5z" horiz-adv-x="521" unicode="ą" glyph-name="aogonek"/>
<glyph d="M396 -12q-144 0 -241 96.5t-97 248.5t97 248.5t241 96.5q150 0 243 -118l-48 -31q-32 44 -84 70.5t-111 26.5q-119 0 -198.5 -82t-79.5 -211q0 -128 80 -210.5t198 -82.5q59 0 111 26.5t84 70.5l49 -30q-98 -119 -244 -119zM553 872l-172 -144h-44l154 144h62z" horiz-adv-x="671" unicode="Ć" glyph-name="Cacute"/>
<glyph d="M288 -12q-104 0 -169 73t-65 181t65 180.5t169 72.5q106 0 171 -82l-36 -32q-49 67 -132 67t-132.5 -58.5t-49.5 -147.5t49.5 -148t132.5 -59q82 0 132 68l36 -32q-65 -83 -171 -83zM448 700l-172 -144h-44l154 144h62z" horiz-adv-x="494" unicode="ć" glyph-name="cacute"/>
<glyph d="M396 -12q-144 0 -241 96.5t-97 248.5t97 248.5t241 96.5q150 0 243 -118l-48 -31q-32 44 -84 70.5t-111 26.5q-119 0 -198.5 -82t-79.5 -211q0 -128 80 -210.5t198 -82.5q59 0 111 26.5t84 70.5l49 -30q-98 -119 -244 -119zM521 728h-40l-86 113l-84 -113h-40l97 144h54z " horiz-adv-x="671" unicode="Ĉ" glyph-name="Ccircumflex"/>
<glyph d="M288 -12q-104 0 -169 73t-65 181t65 180.5t169 72.5q106 0 171 -82l-36 -32q-49 67 -132 67t-132.5 -58.5t-49.5 -147.5t49.5 -148t132.5 -59q82 0 132 68l36 -32q-65 -83 -171 -83zM416 556h-40l-86 113l-84 -113h-40l97 144h54z" horiz-adv-x="494" unicode="ĉ" glyph-name="ccircumflex"/>
<glyph d="M396 -12q-144 0 -241 96.5t-97 248.5t97 248.5t241 96.5q150 0 243 -118l-48 -31q-32 44 -84 70.5t-111 26.5q-119 0 -198.5 -82t-79.5 -211q0 -128 80 -210.5t198 -82.5q59 0 111 26.5t84 70.5l49 -30q-98 -119 -244 -119zM399 732q-16 0 -27 11t-11 27t11 27t27 11 q15 0 26 -11t11 -27t-11 -27t-26 -11z" horiz-adv-x="671" unicode="Ċ" glyph-name="Cdotaccent"/>
<glyph d="M288 -12q-104 0 -169 73t-65 181t65 180.5t169 72.5q106 0 171 -82l-36 -32q-49 67 -132 67t-132.5 -58.5t-49.5 -147.5t49.5 -148t132.5 -59q82 0 132 68l36 -32q-65 -83 -171 -83zM291 582q-16 0 -27 11t-11 27t11 27t27 11q15 0 26 -11t11 -27t-11 -27t-26 -11z" horiz-adv-x="494" unicode="ċ" glyph-name="cdotaccent"/>
<glyph d="M396 -12q-144 0 -241 96.5t-97 248.5t97 248.5t241 96.5q150 0 243 -118l-48 -31q-32 44 -84 70.5t-111 26.5q-119 0 -198.5 -82t-79.5 -211q0 -128 80 -210.5t198 -82.5q59 0 111 26.5t84 70.5l49 -30q-98 -119 -244 -119zM425 728h-54l-100 144h40l86 -113l84 113h40z " horiz-adv-x="671" unicode="Č" glyph-name="Ccaron"/>
<glyph d="M288 -12q-104 0 -169 73t-65 181t65 180.5t169 72.5q106 0 171 -82l-36 -32q-49 67 -132 67t-132.5 -58.5t-49.5 -147.5t49.5 -148t132.5 -59q82 0 132 68l36 -32q-65 -83 -171 -83zM320 556h-54l-100 144h40l86 -113l84 113h40z" horiz-adv-x="494" unicode="č" glyph-name="ccaron"/>
<glyph d="M296 0h-213v667h213q151 0 244 -96.5t93 -237.5q0 -142 -92.5 -237.5t-244.5 -95.5zM296 52q128 0 202.5 80t74.5 201t-74 201.5t-203 80.5h-156v-563h156zM375 728h-54l-100 144h40l86 -113l84 113h40z" horiz-adv-x="692" unicode="Ď" glyph-name="Dcaron"/>
<glyph d="M490 0h-53v77q-27 -39 -71.5 -64t-96.5 -25q-97 0 -156 69t-59 184q0 114 59.5 184t155.5 70q51 0 95 -24t73 -66v262h53v-667zM278 35q49 0 93 25t66 61v239q-22 37 -66 62.5t-93 25.5q-78 0 -123.5 -58.5t-45.5 -148.5t45.5 -148t123.5 -58zM628 621q0 -38 -19 -72.5 t-48 -55.5l-27 22q23 17 38.5 42t16.5 47q-7 -1 -10 -1q-16 0 -26 11t-10 27t11 27.5t27 11.5q20 0 33.5 -16t13.5 -43z" horiz-adv-x="625" unicode="ď" glyph-name="dcaron"/>
<glyph d="M325 0h-213v308h-101v46h101v313h213q151 0 244 -96.5t93 -237.5q0 -142 -92.5 -237.5t-244.5 -95.5zM349 308h-180v-256h156q128 0 202.5 80t74.5 201t-74 201.5t-203 80.5h-156v-261h180v-46z" horiz-adv-x="721" unicode="Đ" glyph-name="Dcroat"/>
<glyph d="M490 0h-53v77q-27 -39 -71.5 -64t-96.5 -25q-97 0 -156 69t-59 184q0 114 59.5 184t155.5 70q51 0 95 -24t73 -66v133h-161v38h161v91h53v-91h72v-38h-72v-538zM278 35q49 0 93 25t66 61v239q-22 37 -66 62.5t-93 25.5q-78 0 -123.5 -58.5t-45.5 -148.5t45.5 -148 t123.5 -58z" horiz-adv-x="574" unicode="đ" glyph-name="dcroat"/>
<glyph d="M506 0h-423v667h423v-52h-366v-247h359v-52h-359v-264h366v-52zM473 749h-363v38h363v-38z" horiz-adv-x="564" unicode="Ē" glyph-name="Emacron"/>
<glyph d="M295 -12q-106 0 -173.5 71t-67.5 183q0 106 66 179.5t166 73.5q106 0 167 -73t61 -183v-14h-404q4 -82 55 -137t134 -55q96 0 158 67l27 -34q-75 -78 -189 -78zM461 266q-1 70 -46.5 127t-129.5 57q-79 0 -125.5 -56.5t-49.5 -127.5h351zM465 579h-363v38h363v-38z" horiz-adv-x="567" unicode="ē" glyph-name="emacron"/>
<glyph d="M506 0h-423v667h423v-52h-366v-247h359v-52h-359v-264h366v-52zM467 813q-65 -88 -175 -88q-109 0 -176 88l29 25q54 -75 147 -75q92 0 147 75z" horiz-adv-x="564" unicode="Ĕ" glyph-name="Ebreve"/>
<glyph d="M295 -12q-106 0 -173.5 71t-67.5 183q0 106 66 179.5t166 73.5q106 0 167 -73t61 -183v-14h-404q4 -82 55 -137t134 -55q96 0 158 67l27 -34q-75 -78 -189 -78zM461 266q-1 70 -46.5 127t-129.5 57q-79 0 -125.5 -56.5t-49.5 -127.5h351zM464 654q-65 -88 -175 -88 q-109 0 -176 88l29 25q54 -75 147 -75q92 0 147 75z" horiz-adv-x="567" unicode="ĕ" glyph-name="ebreve"/>
<glyph d="M506 0h-423v667h423v-52h-366v-247h359v-52h-359v-264h366v-52zM301 732q-16 0 -27 11t-11 27t11 27t27 11q15 0 26 -11t11 -27t-11 -27t-26 -11z" horiz-adv-x="564" unicode="Ė" glyph-name="Edotaccent"/>
<glyph d="M295 -12q-106 0 -173.5 71t-67.5 183q0 106 66 179.5t166 73.5q106 0 167 -73t61 -183v-14h-404q4 -82 55 -137t134 -55q96 0 158 67l27 -34q-75 -78 -189 -78zM461 266q-1 70 -46.5 127t-129.5 57q-79 0 -125.5 -56.5t-49.5 -127.5h351zM288 582q-16 0 -27 11t-11 27 t11 27t27 11q15 0 26 -11t11 -27t-11 -27t-26 -11z" horiz-adv-x="567" unicode="ė" glyph-name="edotaccent"/>
<glyph d="M529 -109l31 -16q-26 -61 -86 -61q-37 0 -61 21.5t-24 63.5q0 58 56 101h-362v667h423v-52h-366v-247h359v-52h-359v-264h366v-52h-1q-79 -38 -79 -99q0 -54 48 -54q41 0 55 44z" horiz-adv-x="564" unicode="Ę" glyph-name="Eogonek"/>
<glyph d="M295 -12q-106 0 -173.5 71t-67.5 183q0 106 66 179.5t166 73.5q106 0 167 -73t61 -183v-14h-404q4 -82 55 -137t134 -55q96 0 158 67l27 -34q-47 -50 -112 -68q-74 -38 -74 -97q0 -54 48 -54q41 0 55 44l31 -16q-26 -61 -86 -61q-37 0 -61 21.5t-24 63.5q0 49 42 89h-8z M461 266q-1 70 -46.5 127t-129.5 57q-79 0 -125.5 -56.5t-49.5 -127.5h351z" horiz-adv-x="567" unicode="ę" glyph-name="eogonek"/>
<glyph d="M506 0h-423v667h423v-52h-366v-247h359v-52h-359v-264h366v-52zM325 728h-54l-100 144h40l86 -113l84 113h40z" horiz-adv-x="564" unicode="Ě" glyph-name="Ecaron"/>
<glyph d="M295 -12q-106 0 -173.5 71t-67.5 183q0 106 66 179.5t166 73.5q106 0 167 -73t61 -183v-14h-404q4 -82 55 -137t134 -55q96 0 158 67l27 -34q-75 -78 -189 -78zM461 266q-1 70 -46.5 127t-129.5 57q-79 0 -125.5 -56.5t-49.5 -127.5h351zM316 556h-54l-100 144h40 l86 -113l84 113h40z" horiz-adv-x="567" unicode="ě" glyph-name="ecaron"/>
<glyph d="M396 -13q-143 0 -240.5 97t-97.5 249t97.5 248.5t240.5 96.5q152 0 251 -114l-43 -31q-36 43 -90.5 68t-117.5 25q-119 0 -198.5 -82t-79.5 -211q0 -128 80 -211t198 -83q61 0 112.5 24t83.5 57v160h-252v51h309v-233q-99 -111 -253 -111zM526 728h-40l-86 113l-84 -113 h-40l97 144h54z" horiz-adv-x="711" unicode="Ĝ" glyph-name="Gcircumflex"/>
<glyph d="M273 -196q-64 0 -107 15.5t-84 57.5l30 42q31 -37 68.5 -52.5t92.5 -15.5q71 0 117.5 38t46.5 115v77q-27 -40 -71.5 -65.5t-96.5 -25.5q-97 0 -156 68.5t-59 183.5q0 114 59.5 183.5t155.5 69.5q104 0 168 -90v78h53v-479q0 -104 -60.5 -152t-156.5 -48zM278 37 q49 0 93 25.5t66 62.5v235q-22 37 -66 62.5t-93 25.5q-78 0 -123.5 -58t-45.5 -148t45.5 -147.5t123.5 -57.5zM413 550h-40l-86 113l-84 -113h-40l97 144h54z" horiz-adv-x="570" unicode="ĝ" glyph-name="gcircumflex"/>
<glyph d="M396 -13q-143 0 -240.5 97t-97.5 249t97.5 248.5t240.5 96.5q152 0 251 -114l-43 -31q-36 43 -90.5 68t-117.5 25q-119 0 -198.5 -82t-79.5 -211q0 -128 80 -211t198 -83q61 0 112.5 24t83.5 57v160h-252v51h309v-233q-99 -111 -253 -111zM574 813q-65 -88 -175 -88 q-109 0 -176 88l29 25q54 -75 147 -75q92 0 147 75z" horiz-adv-x="711" unicode="Ğ" glyph-name="Gbreve"/>
<glyph d="M273 -196q-64 0 -107 15.5t-84 57.5l30 42q31 -37 68.5 -52.5t92.5 -15.5q71 0 117.5 38t46.5 115v77q-27 -40 -71.5 -65.5t-96.5 -25.5q-97 0 -156 68.5t-59 183.5q0 114 59.5 183.5t155.5 69.5q104 0 168 -90v78h53v-479q0 -104 -60.5 -152t-156.5 -48zM278 37 q49 0 93 25.5t66 62.5v235q-22 37 -66 62.5t-93 25.5q-78 0 -123.5 -58t-45.5 -148t45.5 -147.5t123.5 -57.5zM460 654q-65 -88 -175 -88q-109 0 -176 88l29 25q54 -75 147 -75q92 0 147 75z" horiz-adv-x="570" unicode="ğ" glyph-name="gbreve"/>
<glyph d="M396 -13q-143 0 -240.5 97t-97.5 249t97.5 248.5t240.5 96.5q152 0 251 -114l-43 -31q-36 43 -90.5 68t-117.5 25q-119 0 -198.5 -82t-79.5 -211q0 -128 80 -211t198 -83q61 0 112.5 24t83.5 57v160h-252v51h309v-233q-99 -111 -253 -111zM399 732q-16 0 -27 11t-11 27 t11 27t27 11q15 0 26 -11t11 -27t-11 -27t-26 -11z" horiz-adv-x="711" unicode="Ġ" glyph-name="Gdotaccent"/>
<glyph d="M273 -196q-64 0 -107 15.5t-84 57.5l30 42q31 -37 68.5 -52.5t92.5 -15.5q71 0 117.5 38t46.5 115v77q-27 -40 -71.5 -65.5t-96.5 -25.5q-97 0 -156 68.5t-59 183.5q0 114 59.5 183.5t155.5 69.5q104 0 168 -90v78h53v-479q0 -104 -60.5 -152t-156.5 -48zM278 37 q49 0 93 25.5t66 62.5v235q-22 37 -66 62.5t-93 25.5q-78 0 -123.5 -58t-45.5 -148t45.5 -147.5t123.5 -57.5zM285 582q-16 0 -27 11t-11 27t11 27t27 11q15 0 26 -11t11 -27t-11 -27t-26 -11z" horiz-adv-x="570" unicode="ġ" glyph-name="gdotaccent"/>
<glyph d="M396 -13q-143 0 -240.5 97t-97.5 249t97.5 248.5t240.5 96.5q152 0 251 -114l-43 -31q-36 43 -90.5 68t-117.5 25q-119 0 -198.5 -82t-79.5 -211q0 -128 80 -211t198 -83q61 0 112.5 24t83.5 57v160h-252v51h309v-233q-99 -111 -253 -111zM444 -137q0 -38 -19 -72.5 t-48 -55.5l-27 22q23 17 38.5 42t16.5 47q-7 -1 -10 -1q-16 0 -26 11t-10 27t11 27.5t27 11.5q20 0 33.5 -16t13.5 -43z" horiz-adv-x="711" unicode="Ģ" glyph-name="Gcommaaccent"/>
<glyph d="M237 615q0 41 19 78.5t45 56.5l29 -23q-23 -16 -38.5 -41t-16.5 -47q2 1 4 1q15 0 27.5 -11.5t12.5 -27.5q0 -15 -12 -27t-28 -12q-18 0 -30 14t-12 39zM273 -196q-64 0 -107 15.5t-84 57.5l30 42q31 -37 68.5 -52.5t92.5 -15.5q71 0 117.5 38t46.5 115v77 q-27 -40 -71.5 -65.5t-96.5 -25.5q-97 0 -156 68.5t-59 183.5q0 114 59.5 183.5t155.5 69.5q104 0 168 -90v78h53v-479q0 -104 -60.5 -152t-156.5 -48zM278 37q49 0 93 25.5t66 62.5v235q-22 37 -66 62.5t-93 25.5q-78 0 -123.5 -58t-45.5 -148t45.5 -147.5t123.5 -57.5z " horiz-adv-x="570" unicode="ģ" glyph-name="gcommaaccent"/>
<glyph d="M620 0h-57v317h-423v-317h-57v667h57v-298h423v298h57v-667zM474 728h-40l-86 113l-84 -113h-40l97 144h54z" horiz-adv-x="703" unicode="Ĥ" glyph-name="Hcircumflex"/>
<glyph d="M459 0h-52v329q0 66 -30 92.5t-87 26.5q-45 0 -89 -24t-68 -59v-365h-52v667h52v-257q29 34 77 59.5t97 25.5q152 0 152 -155v-340zM234 728h-40l-86 113l-84 -113h-40l97 144h54z" horiz-adv-x="540" unicode="ĥ" glyph-name="hcircumflex"/>
<glyph d="M631 0h-57v317h-423v-317h-57v501h-83v38h83v128h57v-128h423v128h57v-128h82v-38h-82v-501zM151 369h423v132h-423v-132z" horiz-adv-x="724" unicode="Ħ" glyph-name="Hbar"/>
<glyph d="M297 538h-162v-128q29 34 77 59.5t97 25.5q152 0 152 -155v-340h-52v329q0 66 -30 92.5t-87 26.5q-45 0 -89 -24t-68 -59v-365h-52v538h-72v38h72v91h52v-91h162v-38z" horiz-adv-x="542" unicode="ħ" glyph-name="hbar"/>
<glyph d="M140 0h-57v667h57v-667zM172 726q-25 0 -43.5 16t-27 35t-23 35t-31.5 16q-24 0 -39 -24t-15 -72h-35q0 58 24.5 96t68.5 38q25 0 43.5 -16t27 -35t23 -35t31.5 -16q24 0 39 24t15 72h35q0 -59 -24.5 -96.5t-68.5 -37.5z" horiz-adv-x="223" unicode="Ĩ" glyph-name="Itilde"/>
<glyph d="M133 0h-52v483h52v-483zM167 542q-25 0 -43.5 16t-27 35t-23 35t-31.5 16q-24 0 -39 -24t-15 -72h-35q0 58 24.5 96t68.5 38q25 0 43.5 -16t27 -35t23 -35t31.5 -16q24 0 39 24t15 72h35q0 -59 -24.5 -96.5t-68.5 -37.5z" horiz-adv-x="214" unicode="ĩ" glyph-name="itilde"/>
<glyph d="M140 0h-57v667h57v-667zM294 749h-363v38h363v-38z" horiz-adv-x="223" unicode="Ī" glyph-name="Imacron"/>
<glyph d="M133 0h-52v483h52v-483zM289 579h-363v38h363v-38z" horiz-adv-x="214" unicode="ī" glyph-name="imacron"/>
<glyph d="M140 0h-57v667h57v-667zM288 813q-65 -88 -175 -88q-109 0 -176 88l29 25q54 -75 147 -75q92 0 147 75z" horiz-adv-x="223" unicode="Ĭ" glyph-name="Ibreve"/>
<glyph d="M133 0h-52v483h52v-483zM283 654q-65 -88 -175 -88q-109 0 -176 88l29 25q54 -75 147 -75q92 0 147 75z" horiz-adv-x="214" unicode="ĭ" glyph-name="ibreve"/>
<glyph d="M164 -109l31 -16q-26 -61 -86 -61q-37 0 -61 21.5t-24 63.5q0 60 59 103v665h57v-667q-79 -38 -79 -99q0 -54 48 -54q41 0 55 44z" horiz-adv-x="223" unicode="Į" glyph-name="Iogonek"/>
<glyph d="M157 -109l31 -16q-26 -61 -86 -61q-37 0 -61 21.5t-24 63.5q0 62 64 106v478h52v-483q-79 -38 -79 -99q0 -54 48 -54q41 0 55 44zM107 559q-16 0 -28 12t-12 28t12 27.5t28 11.5q17 0 28.5 -11.5t11.5 -27.5q0 -17 -11.5 -28.5t-28.5 -11.5z" horiz-adv-x="214" unicode="į" glyph-name="iogonek"/>
<glyph d="M140 0h-57v667h57v-667zM112 732q-16 0 -27 11t-11 27t11 27t27 11q15 0 26 -11t11 -27t-11 -27t-26 -11z" horiz-adv-x="223" unicode="İ" glyph-name="Idotaccent"/>
<glyph d="M133 0h-52v483h52v-483z" horiz-adv-x="214" unicode="ı" glyph-name="dotlessi"/>
<glyph d="M140 0h-57v667h57v-667zM408 -12q-108 0 -171 82l35 44q56 -74 133 -74q68 0 108 42.5t40 110.5v474h57v-474q0 -100 -57 -152.5t-145 -52.5z" horiz-adv-x="693" unicode="Ĳ" glyph-name="IJ"/>
<glyph d="M107 559q-16 0 -28 12t-12 28t12 27.5t28 11.5q17 0 28.5 -11.5t11.5 -27.5q0 -17 -11.5 -28.5t-28.5 -11.5zM133 0h-52v483h52v-483zM321 559q-16 0 -28 12t-12 28t12 27.5t28 11.5q17 0 28.5 -11.5t11.5 -27.5q0 -17 -11.5 -28.5t-28.5 -11.5zM216 -196q-56 0 -99 37 l23 43q33 -33 71 -33t61 22t23 66v544h52v-544q0 -67 -34 -101t-97 -34z" horiz-adv-x="427" unicode="ĳ" glyph-name="ij"/>
<glyph d="M185 -12q-108 0 -171 82l35 44q56 -74 133 -74q68 0 108 42.5t40 110.5v474h57v-474q0 -100 -57 -152.5t-145 -52.5zM483 728h-40l-86 113l-84 -113h-40l97 144h54z" horiz-adv-x="470" unicode="Ĵ" glyph-name="Jcircumflex"/>
<glyph d="M2 -196q-56 0 -99 37l23 43q33 -33 71 -33t61 22t23 66v544h52v-544q0 -67 -34 -101t-97 -34zM234 556h-40l-86 113l-84 -113h-40l97 144h54z" horiz-adv-x="214" unicode="ĵ" glyph-name="jcircumflex"/>
<glyph d="M562 0h-73l-275 314l-74 -81v-233h-57v667h57v-365l322 365h73l-284 -318zM345 -137q0 -38 -19 -72.5t-48 -55.5l-27 22q23 17 38.5 42t16.5 47q-7 -1 -10 -1q-16 0 -26 11t-10 27t11 27.5t27 11.5q20 0 33.5 -16t13.5 -43z" horiz-adv-x="589" unicode="Ķ" glyph-name="Kcommaaccent"/>
<glyph d="M486 0h-70l-193 230l-90 -85v-145h-52v667h52v-460l284 276h70l-225 -218zM304 -137q0 -38 -19 -72.5t-48 -55.5l-27 22q23 17 38.5 42t16.5 47q-7 -1 -10 -1q-16 0 -26 11t-10 27t11 27.5t27 11.5q20 0 33.5 -16t13.5 -43z" horiz-adv-x="505" unicode="ķ" glyph-name="kcommaaccent"/>
<glyph d="M486 0h-70l-193 230l-90 -85v-145h-52v483h52v-276l284 276h70l-225 -218z" horiz-adv-x="505" unicode="ĸ" glyph-name="kgreenlandic"/>
<glyph d="M450 0h-381v667h58v-615h323v-52zM417 872l-172 -144h-44l154 144h62z" horiz-adv-x="484" unicode="Ĺ" glyph-name="Lacute"/>
<glyph d="M133 0h-52v667h52v-667zM264 872l-172 -144h-44l154 144h62z" horiz-adv-x="214" unicode="ĺ" glyph-name="lacute"/>
<glyph d="M450 0h-381v667h58v-615h323v-52zM292 -137q0 -38 -19 -72.5t-48 -55.5l-27 22q23 17 38.5 42t16.5 47q-7 -1 -10 -1q-16 0 -26 11t-10 27t11 27.5t27 11.5q20 0 33.5 -16t13.5 -43z" horiz-adv-x="484" unicode="Ļ" glyph-name="Lcommaaccent"/>
<glyph d="M133 0h-52v667h52v-667zM158 -137q0 -38 -19 -72.5t-48 -55.5l-27 22q23 17 38.5 42t16.5 47q-7 -1 -10 -1q-16 0 -26 11t-10 27t11 27.5t27 11.5q20 0 33.5 -16t13.5 -43z" horiz-adv-x="214" unicode="ļ" glyph-name="lcommaaccent"/>
<glyph d="M450 0h-381v667h58v-615h323v-52zM313 620q0 -38 -19 -72.5t-48 -55.5l-27 22q23 17 38.5 42t16.5 47q-7 -1 -10 -1q-16 0 -26 11t-10 27t11 27.5t27 11.5q20 0 33.5 -16t13.5 -43z" horiz-adv-x="484" unicode="Ľ" glyph-name="Lcaron"/>
<glyph d="M133 0h-52v667h52v-667zM286 620q0 -38 -19 -72.5t-48 -55.5l-27 22q23 17 38.5 42t16.5 47q-7 -1 -10 -1q-16 0 -26 11t-10 27t11 27.5t27 11.5q20 0 33.5 -16t13.5 -43z" horiz-adv-x="264" unicode="ľ" glyph-name="lcaron"/>
<glyph d="M450 0h-381v667h58v-615h323v-52zM393 342q0 -18 -13 -31t-31 -13t-31 13t-13 31q0 17 13 30t31 13t31 -13t13 -30z" horiz-adv-x="494" unicode="Ŀ" glyph-name="Ldot"/>
<glyph d="M133 0h-52v667h52v-667zM288 245q0 -18 -13 -31t-31 -13t-31 13t-13 31q0 17 13 30t31 13t31 -13t13 -30z" horiz-adv-x="273" unicode="ŀ" glyph-name="ldot"/>
<glyph d="M11 234v52l93 54v327h58v-293l105 61v-53l-105 -61v-269h323v-52h-381v288z" horiz-adv-x="520" unicode="Ł" glyph-name="Lslash"/>
<glyph d="M11 238v46l102 58v325h52v-295l101 58v-46l-101 -58v-326h-52v296z" horiz-adv-x="277" unicode="ł" glyph-name="lslash"/>
<glyph d="M616 0h-56l-420 573v-573h-57v667h58l418 -565v565h57v-667zM506 872l-172 -144h-44l154 144h62z" horiz-adv-x="699" unicode="Ń" glyph-name="Nacute"/>
<glyph d="M461 0h-52v327q0 66 -30 93.5t-87 27.5q-45 0 -89 -24t-68 -59v-365h-52v483h52v-73q29 34 77 59.5t97 25.5q152 0 152 -157v-338zM426 700l-172 -144h-44l154 144h62z" horiz-adv-x="540" unicode="ń" glyph-name="nacute"/>
<glyph d="M616 0h-56l-420 573v-573h-57v667h58l418 -565v565h57v-667zM401 -137q0 -38 -19 -72.5t-48 -55.5l-27 22q23 17 38.5 42t16.5 47q-7 -1 -10 -1q-16 0 -26 11t-10 27t11 27.5t27 11.5q20 0 33.5 -16t13.5 -43z" horiz-adv-x="699" unicode="Ņ" glyph-name="Ncommaaccent"/>
<glyph d="M461 0h-52v327q0 66 -30 93.5t-87 27.5q-45 0 -89 -24t-68 -59v-365h-52v483h52v-73q29 34 77 59.5t97 25.5q152 0 152 -157v-338zM321 -137q0 -38 -19 -72.5t-48 -55.5l-27 22q23 17 38.5 42t16.5 47q-7 -1 -10 -1q-16 0 -26 11t-10 27t11 27.5t27 11.5q20 0 33.5 -16 t13.5 -43z" horiz-adv-x="540" unicode="ņ" glyph-name="ncommaaccent"/>
<glyph d="M616 0h-56l-420 573v-573h-57v667h58l418 -565v565h57v-667zM378 728h-54l-100 144h40l86 -113l84 113h40z" horiz-adv-x="699" unicode="Ň" glyph-name="Ncaron"/>
<glyph d="M461 0h-52v327q0 66 -30 93.5t-87 27.5q-45 0 -89 -24t-68 -59v-365h-52v483h52v-73q29 34 77 59.5t97 25.5q152 0 152 -157v-338zM299 556h-54l-100 144h40l86 -113l84 113h40z" horiz-adv-x="540" unicode="ň" glyph-name="ncaron"/>
<glyph d="M461 0h-52v327q0 66 -30 93.5t-87 27.5q-45 0 -89 -24t-68 -59v-365h-52v483h52v-73q29 34 77 59.5t97 25.5q152 0 152 -157v-338zM156 675q0 -38 -19 -72.5t-48 -55.5l-27 22q23 17 38.5 42t16.5 47q-7 -1 -10 -1q-16 0 -26 11t-10 27t11 27.5t27 11.5q20 0 33.5 -16 t13.5 -43z" horiz-adv-x="540" unicode="ŉ" glyph-name="napostrophe"/>
<glyph d="M414 -196q-108 0 -171 82l35 44q56 -74 134 -74q66 0 105.5 39.5t41.5 105.5l-419 572v-573h-57v667h58l418 -565v565h57v-661q0 -99 -57 -150.5t-145 -51.5z" horiz-adv-x="699" unicode="Ŋ" glyph-name="Eng"/>
<glyph d="M328 -196q-57 0 -98 37l22 43q33 -33 71 -33t61 22t23 66v388q0 66 -30 93.5t-87 27.5q-45 0 -89 -24t-68 -59v-365h-52v483h52v-73q29 34 77 59.5t97 25.5q152 0 152 -157v-399q0 -67 -34 -101t-97 -34z" horiz-adv-x="540" unicode="ŋ" glyph-name="eng"/>
<glyph d="M382 -12q-145 0 -234.5 98t-89.5 247t89.5 247t234.5 98q144 0 234 -98t90 -247t-90 -247t-234 -98zM382 40q118 0 191 82.5t73 210.5t-72.5 210.5t-191.5 82.5t-191.5 -82.5t-72.5 -210.5t72.5 -210.5t191.5 -82.5zM563 749h-363v38h363v-38z" horiz-adv-x="764" unicode="Ō" glyph-name="Omacron"/>
<glyph d="M285 -12q-104 0 -167.5 73t-63.5 181t63.5 180.5t167.5 72.5q105 0 169 -72.5t64 -180.5t-64 -181t-169 -73zM285 35q82 0 129.5 60.5t47.5 146.5q0 85 -47.5 145.5t-129.5 60.5q-81 0 -128.5 -60.5t-47.5 -145.5t47.5 -146t128.5 -61zM467 579h-363v38h363v-38z" horiz-adv-x="571" unicode="ō" glyph-name="omacron"/>
<glyph d="M382 -12q-145 0 -234.5 98t-89.5 247t89.5 247t234.5 98q144 0 234 -98t90 -247t-90 -247t-234 -98zM382 40q118 0 191 82.5t73 210.5t-72.5 210.5t-191.5 82.5t-191.5 -82.5t-72.5 -210.5t72.5 -210.5t191.5 -82.5zM556 813q-65 -88 -175 -88q-109 0 -176 88l29 25 q54 -75 147 -75q92 0 147 75z" horiz-adv-x="764" unicode="Ŏ" glyph-name="Obreve"/>
<glyph d="M285 -12q-104 0 -167.5 73t-63.5 181t63.5 180.5t167.5 72.5q105 0 169 -72.5t64 -180.5t-64 -181t-169 -73zM285 35q82 0 129.5 60.5t47.5 146.5q0 85 -47.5 145.5t-129.5 60.5q-81 0 -128.5 -60.5t-47.5 -145.5t47.5 -146t128.5 -61zM462 654q-65 -88 -175 -88 q-109 0 -176 88l29 25q54 -75 147 -75q92 0 147 75z" horiz-adv-x="571" unicode="ŏ" glyph-name="obreve"/>
<glyph d="M382 -12q-145 0 -234.5 98t-89.5 247t89.5 247t234.5 98q144 0 234 -98t90 -247t-90 -247t-234 -98zM382 40q118 0 191 82.5t73 210.5t-72.5 210.5t-191.5 82.5t-191.5 -82.5t-72.5 -210.5t72.5 -210.5t191.5 -82.5zM430 872l-115 -144h-37l97 144h55zM569 872l-115 -144 h-37l97 144h55z" horiz-adv-x="764" unicode="Ő" glyph-name="Ohungarumlaut"/>
<glyph d="M285 -12q-104 0 -167.5 73t-63.5 181t63.5 180.5t167.5 72.5q105 0 169 -72.5t64 -180.5t-64 -181t-169 -73zM285 35q82 0 129.5 60.5t47.5 146.5q0 85 -47.5 145.5t-129.5 60.5q-81 0 -128.5 -60.5t-47.5 -145.5t47.5 -146t128.5 -61zM333 700l-115 -144h-37l97 144h55z M472 700l-115 -144h-37l97 144h55z" horiz-adv-x="571" unicode="ő" glyph-name="ohungarumlaut"/>
<glyph d="M1055 0h-423v139q-37 -72 -105.5 -111.5t-147.5 -39.5q-143 0 -232 98t-89 247t89 246.5t232 97.5q79 0 147.5 -39t105.5 -110v139h423v-52h-365v-247h358v-52h-358v-264h365v-52zM632 221v225q-31 88 -96.5 133.5t-152.5 45.5q-120 0 -192.5 -82t-72.5 -210 q0 -129 72.5 -211t192.5 -82q86 0 151.5 46t97.5 135z" horiz-adv-x="1115" unicode="Œ" glyph-name="OE"/>
<glyph d="M922 225h-403q3 -82 54 -137t134 -55q96 0 158 67l28 -34q-76 -78 -189 -78q-89 0 -142 46.5t-72 104.5q-9 -25 -23.5 -48t-38 -48t-60.5 -40t-83 -15q-104 0 -167.5 73t-63.5 181t63.5 180.5t167.5 72.5q46 0 83.5 -15.5t61.5 -40.5t38 -48t22 -47q19 55 70.5 103 t133.5 48q106 0 167 -73t61 -183v-14zM518 266h351q0 70 -46 127t-130 57q-79 0 -125.5 -56.5t-49.5 -127.5zM462 242q0 86 -48 146t-129 60q-80 0 -128 -60t-48 -146t48 -147t128 -61q81 0 129 60.5t48 147.5z" horiz-adv-x="975" unicode="œ" glyph-name="oe"/>
<glyph d="M543 0h-69l-187 276h-147v-276h-57v667h249q88 0 145.5 -53t57.5 -142q0 -87 -53 -138t-132 -54zM327 328q66 0 107 40.5t41 103.5t-41 103t-107 40h-187v-287h187zM454 872l-172 -144h-44l154 144h62z" horiz-adv-x="594" unicode="Ŕ" glyph-name="Racute"/>
<glyph d="M133 0h-52v483h52v-83q71 93 163 93v-57q-9 2 -26 2q-36 0 -78 -27t-59 -59v-352zM344 700l-172 -144h-44l154 144h62z" horiz-adv-x="317" unicode="ŕ" glyph-name="racute"/>
<glyph d="M543 0h-69l-187 276h-147v-276h-57v667h249q88 0 145.5 -53t57.5 -142q0 -87 -53 -138t-132 -54zM327 328q66 0 107 40.5t41 103.5t-41 103t-107 40h-187v-287h187zM349 -137q0 -38 -19 -72.5t-48 -55.5l-27 22q23 17 38.5 42t16.5 47q-7 -1 -10 -1q-16 0 -26 11t-10 27 t11 27.5t27 11.5q20 0 33.5 -16t13.5 -43z" horiz-adv-x="594" unicode="Ŗ" glyph-name="Rcommaaccent"/>
<glyph d="M133 0h-52v483h52v-83q71 93 163 93v-57q-9 2 -26 2q-36 0 -78 -27t-59 -59v-352zM210 -137q0 -38 -19 -72.5t-48 -55.5l-27 22q23 17 38.5 42t16.5 47q-7 -1 -10 -1q-16 0 -26 11t-10 27t11 27.5t27 11.5q20 0 33.5 -16t13.5 -43z" horiz-adv-x="317" unicode="ŗ" glyph-name="rcommaaccent"/>
<glyph d="M543 0h-69l-187 276h-147v-276h-57v667h249q88 0 145.5 -53t57.5 -142q0 -87 -53 -138t-132 -54zM327 328q66 0 107 40.5t41 103.5t-41 103t-107 40h-187v-287h187zM326 728h-54l-100 144h40l86 -113l84 113h40z" horiz-adv-x="594" unicode="Ř" glyph-name="Rcaron"/>
<glyph d="M133 0h-52v483h52v-83q71 93 163 93v-57q-9 2 -26 2q-36 0 -78 -27t-59 -59v-352zM215 556h-54l-100 144h40l86 -113l84 113h40z" horiz-adv-x="317" unicode="ř" glyph-name="rcaron"/>
<glyph d="M290 -12q-155 0 -244 106l37 43q85 -97 209 -97q92 0 133.5 40.5t41.5 92.5q0 40 -22 67.5t-57.5 42.5t-78 27t-85 25.5t-78 32t-57.5 52t-22 80.5q0 80 63 129t156 49q145 0 226 -94l-38 -42q-70 84 -191 84q-67 0 -111.5 -34.5t-44.5 -88.5q0 -34 22 -58.5t57.5 -38 t78 -25t85 -26t78 -34.5t57.5 -56.5t22 -87.5q0 -76 -57 -132.5t-180 -56.5zM447 872l-172 -144h-44l154 144h62z" horiz-adv-x="581" unicode="Ś" glyph-name="Sacute"/>
<glyph d="M225 -12q-118 0 -186 77l31 38q25 -31 66 -51t90 -20q59 0 94 27.5t35 70.5q0 36 -31.5 57t-76.5 31.5t-89.5 23t-76 42t-31.5 77.5q0 57 46.5 95.5t125.5 38.5q109 0 173 -71l-29 -37q-47 64 -144 64q-55 0 -87.5 -25t-32.5 -63q0 -33 31.5 -52t76 -29.5t89 -23.5 t76 -45t31.5 -83q0 -62 -47 -102t-134 -40zM387 700l-172 -144h-44l154 144h62z" horiz-adv-x="459" unicode="ś" glyph-name="sacute"/>
<glyph d="M408 728h-40l-86 113l-84 -113h-40l97 144h54zM290 -12q-155 0 -244 106l37 43q85 -97 209 -97q92 0 133.5 40.5t41.5 92.5q0 40 -22 67.5t-57.5 42.5t-78 27t-85 25.5t-78 32t-57.5 52t-22 80.5q0 80 63 129t156 49q145 0 226 -94l-38 -42q-70 84 -191 84 q-67 0 -111.5 -34.5t-44.5 -88.5q0 -34 22 -58.5t57.5 -38t78 -25t85 -26t78 -34.5t57.5 -56.5t22 -87.5q0 -76 -57 -132.5t-180 -56.5z" horiz-adv-x="581" unicode="Ŝ" glyph-name="Scircumflex"/>
<glyph d="M225 -12q-118 0 -186 77l31 38q25 -31 66 -51t90 -20q59 0 94 27.5t35 70.5q0 36 -31.5 57t-76.5 31.5t-89.5 23t-76 42t-31.5 77.5q0 57 46.5 95.5t125.5 38.5q109 0 173 -71l-29 -37q-47 64 -144 64q-55 0 -87.5 -25t-32.5 -63q0 -33 31.5 -52t76 -29.5t89 -23.5 t76 -45t31.5 -83q0 -62 -47 -102t-134 -40zM350 556h-40l-86 113l-84 -113h-40l97 144h54z" horiz-adv-x="459" unicode="ŝ" glyph-name="scircumflex"/>
<glyph d="M286 -189q-63 0 -97 29l17 32q34 -28 79 -28q27 0 46 12.5t19 32.5q0 40 -40 40q-25 0 -41 -18l-27 16l22 62q-137 8 -218 105l37 43q85 -97 209 -97q92 0 133.5 40.5t41.5 92.5q0 40 -22 67.5t-57.5 42.5t-78 27t-85 25.5t-78 32t-57.5 52t-22 80.5q0 80 63 129t156 49 q145 0 226 -94l-38 -42q-70 84 -191 84q-67 0 -111.5 -34.5t-44.5 -88.5q0 -34 22 -58.5t57.5 -38t78 -25t85 -26t78 -34.5t57.5 -56.5t22 -87.5q0 -74 -54.5 -130t-171.5 -59l-17 -44q16 11 37 11q29 0 47.5 -18t18.5 -48q0 -35 -29 -56.5t-72 -21.5z" horiz-adv-x="581" unicode="Ş" glyph-name="Scedilla"/>
<glyph d="M224 -189q-63 0 -97 29l17 32q34 -28 79 -28q27 0 46 12.5t19 32.5q0 40 -40 40q-25 0 -41 -18l-27 16l22 62q-102 6 -163 76l31 38q25 -31 66 -51t90 -20q59 0 94 27.5t35 70.5q0 36 -31.5 57t-76.5 31.5t-89.5 23t-76 42t-31.5 77.5q0 57 46.5 95.5t125.5 38.5 q109 0 173 -71l-29 -37q-47 64 -144 64q-55 0 -87.5 -25t-32.5 -63q0 -33 31.5 -52t76 -29.5t89 -23.5t76 -45t31.5 -83q0 -59 -43.5 -98t-123.5 -43l-17 -45q16 11 37 11q29 0 47.5 -18t18.5 -48q0 -35 -29 -56.5t-72 -21.5z" horiz-adv-x="459" unicode="ş" glyph-name="scedilla"/>
<glyph d="M312 728h-54l-100 144h40l86 -113l84 113h40zM290 -12q-155 0 -244 106l37 43q85 -97 209 -97q92 0 133.5 40.5t41.5 92.5q0 40 -22 67.5t-57.5 42.5t-78 27t-85 25.5t-78 32t-57.5 52t-22 80.5q0 80 63 129t156 49q145 0 226 -94l-38 -42q-70 84 -191 84 q-67 0 -111.5 -34.5t-44.5 -88.5q0 -34 22 -58.5t57.5 -38t78 -25t85 -26t78 -34.5t57.5 -56.5t22 -87.5q0 -76 -57 -132.5t-180 -56.5z" horiz-adv-x="581" unicode="Š" glyph-name="Scaron"/>
<glyph d="M225 -12q-118 0 -186 77l31 38q25 -31 66 -51t90 -20q59 0 94 27.5t35 70.5q0 36 -31.5 57t-76.5 31.5t-89.5 23t-76 42t-31.5 77.5q0 57 46.5 95.5t125.5 38.5q109 0 173 -71l-29 -37q-47 64 -144 64q-55 0 -87.5 -25t-32.5 -63q0 -33 31.5 -52t76 -29.5t89 -23.5 t76 -45t31.5 -83q0 -62 -47 -102t-134 -40zM254 556h-54l-100 144h40l86 -113l84 113h40z" horiz-adv-x="459" unicode="š" glyph-name="scaron"/>
<glyph d="M311 0h-58v615h-218v52h494v-52h-218v-615zM333 -137q0 -38 -19 -72.5t-48 -55.5l-27 22q23 17 38.5 42t16.5 47q-7 -1 -10 -1q-16 0 -26 11t-10 27t11 27.5t27 11.5q20 0 33.5 -16t13.5 -43z" horiz-adv-x="564" unicode="Ţ" glyph-name="Tcommaaccent"/>
<glyph d="M311 0h-58v615h-218v52h494v-52h-218v-615zM333 -137q0 -38 -19 -72.5t-48 -55.5l-27 22q23 17 38.5 42t16.5 47q-7 -1 -10 -1q-16 0 -26 11t-10 27t11 27.5t27 11.5q20 0 33.5 -16t13.5 -43z" horiz-adv-x="564" unicode="Ț" glyph-name="Tcommaaccent"/>
<glyph d="M186 -12q-95 0 -95 105v344h-80v46h80v132h53v-132h98v-46h-98v-336q0 -66 50 -66q33 0 54 23l20 -40q-32 -30 -82 -30zM189 -137q0 -38 -19 -72.5t-48 -55.5l-27 22q23 17 38.5 42t16.5 47q-7 -1 -10 -1q-16 0 -26 11t-10 27t11 27.5t27 11.5q20 0 33.5 -16t13.5 -43z " horiz-adv-x="275" unicode="ţ" glyph-name="tcommaaccent"/>
<glyph d="M186 -12q-95 0 -95 105v344h-80v46h80v132h53v-132h98v-46h-98v-336q0 -66 50 -66q33 0 54 23l20 -40q-32 -30 -82 -30zM189 -137q0 -38 -19 -72.5t-48 -55.5l-27 22q23 17 38.5 42t16.5 47q-7 -1 -10 -1q-16 0 -26 11t-10 27t11 27.5t27 11.5q20 0 33.5 -16t13.5 -43z " horiz-adv-x="275" unicode="ț" glyph-name="tcommaaccent"/>
<glyph d="M311 0h-58v615h-218v52h494v-52h-218v-615zM311 728h-54l-100 144h40l86 -113l84 113h40z" horiz-adv-x="564" unicode="Ť" glyph-name="Tcaron"/>
<glyph d="M186 -12q-95 0 -95 105v344h-80v46h80v132h53v-132h98v-46h-98v-336q0 -66 50 -66q33 0 54 23l20 -40q-32 -30 -82 -30zM293 675q0 -38 -19 -72.5t-48 -55.5l-27 22q23 17 38.5 42t16.5 47q-7 -1 -10 -1q-16 0 -26 11t-10 27t11 27.5t27 11.5q20 0 33.5 -16t13.5 -43z " horiz-adv-x="285" unicode="ť" glyph-name="tcaron"/>
<glyph d="M311 0h-58v307h-158v38h158v270h-218v52h494v-52h-218v-270h158v-38h-158v-307z" horiz-adv-x="564" unicode="Ŧ" glyph-name="Tbar"/>
<glyph d="M214 234h-70v-133q0 -66 50 -66q33 0 54 23l20 -40q-32 -30 -82 -30q-95 0 -95 105v141h-80v38h80v165h-80v46h80v132h53v-132h98v-46h-98v-165h70v-38z" horiz-adv-x="275" unicode="ŧ" glyph-name="tbar"/>
<glyph d="M343 -12q-126 0 -193 71.5t-67 196.5v411h58v-410q0 -102 52.5 -159.5t149.5 -57.5t149.5 57.5t52.5 159.5v410h58v-411q0 -126 -66.5 -197t-193.5 -71zM406 726q-25 0 -43.5 16t-27 35t-23 35t-31.5 16q-24 0 -39 -24t-15 -72h-35q0 58 24.5 96t68.5 38q25 0 43.5 -16 t27 -35t23 -35t31.5 -16q24 0 39 24t15 72h35q0 -59 -24.5 -96.5t-68.5 -37.5z" horiz-adv-x="686" unicode="Ũ" glyph-name="Utilde"/>
<glyph d="M459 0h-52v71q-32 -36 -78 -59.5t-96 -23.5q-152 0 -152 155v340h52v-328q0 -67 30 -93.5t87 -26.5q45 0 88.5 23t68.5 57v368h52v-483zM330 554q-25 0 -43.5 16t-27 35t-23 35t-31.5 16q-24 0 -39 -24t-15 -72h-35q0 58 24.5 96t68.5 38q25 0 43.5 -16t27 -35t23 -35 t31.5 -16q24 0 39 24t15 72h35q0 -59 -24.5 -96.5t-68.5 -37.5z" horiz-adv-x="540" unicode="ũ" glyph-name="utilde"/>
<glyph d="M343 -12q-126 0 -193 71.5t-67 196.5v411h58v-410q0 -102 52.5 -159.5t149.5 -57.5t149.5 57.5t52.5 159.5v410h58v-411q0 -126 -66.5 -197t-193.5 -71zM525 749h-363v38h363v-38z" horiz-adv-x="686" unicode="Ū" glyph-name="Umacron"/>
<glyph d="M459 0h-52v71q-32 -36 -78 -59.5t-96 -23.5q-152 0 -152 155v340h52v-328q0 -67 30 -93.5t87 -26.5q45 0 88.5 23t68.5 57v368h52v-483zM451 579h-363v38h363v-38z" horiz-adv-x="540" unicode="ū" glyph-name="umacron"/>
<glyph d="M343 -12q-126 0 -193 71.5t-67 196.5v411h58v-410q0 -102 52.5 -159.5t149.5 -57.5t149.5 57.5t52.5 159.5v410h58v-411q0 -126 -66.5 -197t-193.5 -71zM522 813q-65 -88 -175 -88q-109 0 -176 88l29 25q54 -75 147 -75q92 0 147 75z" horiz-adv-x="686" unicode="Ŭ" glyph-name="Ubreve"/>
<glyph d="M459 0h-52v71q-32 -36 -78 -59.5t-96 -23.5q-152 0 -152 155v340h52v-328q0 -67 30 -93.5t87 -26.5q45 0 88.5 23t68.5 57v368h52v-483zM447 654q-65 -88 -175 -88q-109 0 -176 88l29 25q54 -75 147 -75q92 0 147 75z" horiz-adv-x="540" unicode="ŭ" glyph-name="ubreve"/>
<glyph d="M343 -12q-126 0 -193 71.5t-67 196.5v411h58v-410q0 -102 52.5 -159.5t149.5 -57.5t149.5 57.5t52.5 159.5v410h58v-411q0 -126 -66.5 -197t-193.5 -71zM344 692q-40 0 -68 28.5t-28 67.5q0 40 28 68t68 28q39 0 67 -28t28 -68q0 -39 -28 -67.5t-67 -28.5zM344 724 q26 0 44.5 19t18.5 45t-18.5 45t-44.5 19t-45 -19t-19 -45t19 -45t45 -19z" horiz-adv-x="686" unicode="Ů" glyph-name="Uring"/>
<glyph d="M459 0h-52v71q-32 -36 -78 -59.5t-96 -23.5q-152 0 -152 155v340h52v-328q0 -67 30 -93.5t87 -26.5q45 0 88.5 23t68.5 57v368h52v-483zM270 556q-40 0 -68 28.5t-28 67.5q0 40 28 68t68 28q39 0 67 -28t28 -68q0 -39 -28 -67.5t-67 -28.5zM270 588q26 0 44.5 19t18.5 45 t-18.5 45t-44.5 19t-45 -19t-19 -45t19 -45t45 -19z" horiz-adv-x="540" unicode="ů" glyph-name="uring"/>
<glyph d="M343 -12q-126 0 -193 71.5t-67 196.5v411h58v-410q0 -102 52.5 -159.5t149.5 -57.5t149.5 57.5t52.5 159.5v410h58v-411q0 -126 -66.5 -197t-193.5 -71zM391 872l-115 -144h-37l97 144h55zM530 872l-115 -144h-37l97 144h55z" horiz-adv-x="686" unicode="Ű" glyph-name="Uhungarumlaut"/>
<glyph d="M459 0h-52v71q-32 -36 -78 -59.5t-96 -23.5q-152 0 -152 155v340h52v-328q0 -67 30 -93.5t87 -26.5q45 0 88.5 23t68.5 57v368h52v-483zM317 700l-115 -144h-37l97 144h55zM456 700l-115 -144h-37l97 144h55z" horiz-adv-x="540" unicode="ű" glyph-name="uhungarumlaut"/>
<glyph d="M456 -109l31 -16q-26 -61 -86 -61q-37 0 -61 21.5t-24 63.5q0 49 42 89h-15q-126 0 -193 71.5t-67 196.5v411h58v-410q0 -102 52.5 -159.5t149.5 -57.5t149.5 57.5t52.5 159.5v410h58v-411q0 -103 -45.5 -170.5t-132.5 -88.5q-72 -36 -72 -96q0 -54 48 -54q41 0 55 44z " horiz-adv-x="686" unicode="Ų" glyph-name="Uogonek"/>
<glyph d="M483 -109l31 -16q-26 -61 -86 -61q-37 0 -61 21.5t-24 63.5q0 62 64 106v66q-32 -36 -78 -59.5t-96 -23.5q-152 0 -152 155v340h52v-328q0 -67 30 -93.5t87 -26.5q45 0 88.5 23t68.5 57v368h52v-483q-79 -38 -79 -99q0 -54 48 -54q41 0 55 44z" horiz-adv-x="540" unicode="ų" glyph-name="uogonek"/>
<glyph d="M658 0h-64l-160 573l-160 -573h-64l-191 667h64l161 -587l164 587h52l163 -587l161 587h64zM559 728h-40l-86 113l-84 -113h-40l97 144h54z" horiz-adv-x="867" unicode="Ŵ" glyph-name="Wcircumflex"/>
<glyph d="M545 0h-50l-135 413l-136 -413h-50l-157 483h56l128 -410l136 410h45l136 -410l128 410h56zM485 556h-40l-86 113l-84 -113h-40l97 144h54z" horiz-adv-x="719" unicode="ŵ" glyph-name="wcircumflex"/>
<glyph d="M436 728h-40l-86 113l-84 -113h-40l97 144h54zM338 0h-58v285l-265 382h69l225 -328l225 328h69l-265 -382v-285z" horiz-adv-x="618" unicode="Ŷ" glyph-name="Ycircumflex"/>
<glyph d="M49 -189l9 48q18 -8 42 -8q25 0 42.5 13t31.5 46l38 86l-205 487h58l176 -422l174 422h59l-250 -589q-38 -90 -123 -90q-29 0 -52 7zM366 556h-40l-86 113l-84 -113h-40l97 144h54z" horiz-adv-x="481" unicode="ŷ" glyph-name="ycircumflex"/>
<glyph d="M452 769q0 -15 -11 -26t-26 -11t-26 11t-11 26t11 26t26 11t26 -11t11 -26zM248 769q0 -15 -11 -26t-26 -11t-26 11t-11 26t11 26t26 11t26 -11t11 -26zM338 0h-58v285l-265 382h69l225 -328l225 328h69l-265 -382v-285z" horiz-adv-x="618" unicode="Ÿ" glyph-name="Ydieresis"/>
<glyph d="M531 0h-481v50l402 565h-402v52h474v-49l-402 -566h409v-52zM447 872l-172 -144h-44l154 144h62z" horiz-adv-x="581" unicode="Ź" glyph-name="Zacute"/>
<glyph d="M413 0h-357v43l286 394h-286v46h353v-42l-289 -395h293v-46zM391 700l-172 -144h-44l154 144h62z" horiz-adv-x="469" unicode="ź" glyph-name="zacute"/>
<glyph d="M531 0h-481v50l402 565h-402v52h474v-49l-402 -566h409v-52zM290 732q-16 0 -27 11t-11 27t11 27t27 11q15 0 26 -11t11 -27t-11 -27t-26 -11z" horiz-adv-x="581" unicode="Ż" glyph-name="Zdotaccent"/>
<glyph d="M413 0h-357v43l286 394h-286v46h353v-42l-289 -395h293v-46zM235 582q-16 0 -27 11t-11 27t11 27t27 11q15 0 26 -11t11 -27t-11 -27t-26 -11z" horiz-adv-x="469" unicode="ż" glyph-name="zdotaccent"/>
<glyph d="M319 728h-54l-100 144h40l86 -113l84 113h40zM531 0h-481v50l402 565h-402v52h474v-49l-402 -566h409v-52z" horiz-adv-x="581" unicode="Ž" glyph-name="Zcaron"/>
<glyph d="M413 0h-357v43l286 394h-286v46h353v-42l-289 -395h293v-46zM256 556h-54l-100 144h40l86 -113l84 113h40z" horiz-adv-x="469" unicode="ž" glyph-name="zcaron"/>
<glyph d="M151 0h-53v437h-80v46h80v44q0 70 35 110t96 40q53 0 92 -34l-25 -38q-27 25 -62 25q-83 0 -83 -103v-527z" horiz-adv-x="265" unicode="ſ" glyph-name="longs"/>
<glyph d="M91 -161h-58l93 421h-74v49h84l49 221q16 68 59.5 107.5t104.5 39.5q53 0 85 -33l-30 -42q-20 23 -51 23q-41 0 -70.5 -27.5t-40.5 -74.5l-48 -214h151v-49h-161z" horiz-adv-x="422" unicode="ƒ" glyph-name="florin"/>
<glyph d="M879 0h-423v164h-274l-102 -164h-66l421 667h444v-52h-365v-247h358v-52h-358v-264h365v-52zM456 216v390l-245 -390h245zM641 872l-172 -144h-44l154 144h62z" horiz-adv-x="939" unicode="Ǽ" glyph-name="AEacute"/>
<glyph d="M844 225h-404q4 -82 55 -137t134 -55q94 0 158 67l27 -34q-75 -78 -189 -78q-129 0 -199 106q-70 -106 -200 -106q-68 0 -119.5 43.5t-51.5 117.5t50 117t119 43q101 0 164 -67v96q0 52 -36.5 81.5t-92.5 29.5q-90 0 -152 -71l-29 36q75 81 186 81q70 0 112.5 -30 t50.5 -87q27 52 75.5 84.5t115.5 32.5q105 0 165.5 -73.5t60.5 -182.5v-14zM440 266h351q0 70 -46 127t-130 57q-79 0 -125.5 -56.5t-49.5 -127.5zM405 126q-17 32 -17 74q-51 68 -146 68q-59 0 -95.5 -34t-36.5 -86t36.5 -85.5t95.5 -33.5q109 0 163 97zM587 700l-172 -144 h-44l154 144h62z" horiz-adv-x="897" unicode="ǽ" glyph-name="aeacute"/>
<glyph d="M540 872l-172 -144h-44l154 144h62zM382 -12q-93 0 -168 44l-20 -32h-51l36 56q-58 47 -89.5 119t-31.5 158q0 149 89.5 247t234.5 98q89 0 164 -43l20 32h52l-36 -56q59 -47 91.5 -119.5t32.5 -158.5q0 -149 -90 -247t-234 -98zM382 40q118 0 191 82.5t73 210.5 q0 150 -94 231l-309 -486q62 -38 139 -38zM118 333q0 -147 91 -229l308 486q-59 36 -135 36q-119 0 -191.5 -82.5t-72.5 -210.5z" horiz-adv-x="764" unicode="Ǿ" glyph-name="Oslashacute"/>
<glyph d="M443 700l-172 -144h-44l154 144h62zM118 0h-44l45 59q-65 71 -65 183q0 108 63.5 180.5t167.5 72.5q78 0 135 -43l24 31h44l-41 -53q71 -73 71 -188q0 -108 -64 -181t-169 -73q-82 0 -140 47zM285 35q82 0 129.5 60.5t47.5 146.5q0 85 -48 145l-238 -312q45 -40 109 -40z M109 242q0 -83 43 -141l237 311q-44 36 -104 36q-81 0 -128.5 -60.5t-47.5 -145.5z" horiz-adv-x="571" unicode="ǿ" glyph-name="oslashacute"/>
<glyph d="M292 -12q-155 0 -244 106l37 43q85 -97 209 -97q92 0 133.5 40.5t41.5 92.5q0 40 -22 67.5t-57.5 42.5t-78 27t-85 25.5t-78 32t-57.5 52t-22 80.5q0 80 63 129t156 49q145 0 226 -94l-38 -42q-70 84 -191 84q-67 0 -111.5 -34.5t-44.5 -88.5q0 -34 22 -58.5t57.5 -38 t78 -25t85 -26t78 -34.5t57.5 -56.5t22 -87.5q0 -76 -57 -132.5t-180 -56.5zM339 -137q0 -38 -19 -72.5t-48 -55.5l-27 22q23 17 38.5 42t16.5 47q-7 -1 -10 -1q-16 0 -26 11t-10 27t11 27.5t27 11.5q20 0 33.5 -16t13.5 -43z" horiz-adv-x="584" unicode="Ș" glyph-name="Scommaaccent"/>
<glyph d="M225 -12q-118 0 -186 77l31 38q25 -31 66 -51t90 -20q59 0 94 27.5t35 70.5q0 36 -31.5 57t-76.5 31.5t-89.5 23t-76 42t-31.5 77.5q0 57 46.5 95.5t125.5 38.5q109 0 173 -71l-29 -37q-47 64 -144 64q-55 0 -87.5 -25t-32.5 -63q0 -33 31.5 -52t76 -29.5t89 -23.5 t76 -45t31.5 -83q0 -62 -47 -102t-134 -40zM282 -137q0 -38 -19 -72.5t-48 -55.5l-27 22q23 17 38.5 42t16.5 47q-7 -1 -10 -1q-16 0 -26 11t-10 27t11 27.5t27 11.5q20 0 33.5 -16t13.5 -43z" horiz-adv-x="461" unicode="ș" glyph-name="scommaaccent"/>
<glyph d="M328 326h-43v208q0 43 -19.5 60.5t-56.5 17.5q-29 0 -57.5 -15t-44.5 -36v-235h-42v434h42v-167q19 22 51 38.5t66 16.5q104 0 104 -108v-214z" horiz-adv-x="393" unicode="ʰ" glyph-name="hsuperior"/>
<glyph d="M328 326h-43v208q0 43 -19.5 60.5t-56.5 17.5q-29 0 -57.5 -15t-44.5 -36v-235h-42v434h42v-167q19 22 51 38.5t66 16.5q104 0 104 -108v-214z" horiz-adv-x="393" unicode="" glyph-name="hsuperior"/>
<glyph d="M250 556h-40l-86 113l-84 -113h-40l97 144h54z" horiz-adv-x="250" unicode="ˆ" glyph-name="circumflex"/>
<glyph d="M154 556h-54l-100 144h40l86 -113l84 113h40z" horiz-adv-x="250" unicode="ˇ" glyph-name="caron"/>
<glyph d="M351 654q-65 -88 -175 -88q-109 0 -176 88l29 25q54 -75 147 -75q92 0 147 75z" horiz-adv-x="351" unicode="˘" glyph-name="breve"/>
<glyph d="M43 582q-16 0 -27 11t-11 27t11 27t27 11q15 0 26 -11t11 -27t-11 -27t-26 -11z" horiz-adv-x="85" unicode="˙" glyph-name="dotaccent"/>
<glyph d="M96 557q-40 0 -68 28.5t-28 67.5q0 40 28 68t68 28q39 0 67 -28t28 -68q0 -39 -28 -67.5t-67 -28.5zM96 589q26 0 44.5 19t18.5 45t-18.5 45t-44.5 19t-45 -19t-19 -45t19 -45t45 -19z" horiz-adv-x="191" unicode="˚" glyph-name="ring"/>
<glyph d="M140 -109l31 -16q-26 -61 -86 -61q-37 0 -61 21.5t-24 63.5q0 36 24.5 68.5t63.5 52.5l28 -20q-79 -38 -79 -99q0 -54 48 -54q41 0 55 44z" horiz-adv-x="171" unicode="˛" glyph-name="ogonek"/>
<glyph d="M214 554q-25 0 -43.5 16t-27 35t-23 35t-31.5 16q-24 0 -39 -24t-15 -72h-35q0 58 24.5 96t68.5 38q25 0 43.5 -16t27 -35t23 -35t31.5 -16q24 0 39 24t15 72h35q0 -59 -24.5 -96.5t-68.5 -37.5z" horiz-adv-x="307" unicode="˜" glyph-name="tilde"/>
<glyph d="M152 700l-115 -144h-37l97 144h55zM291 700l-115 -144h-37l97 144h55z" horiz-adv-x="291" unicode="˝" glyph-name="hungarumlaut"/>
<glyph d="M632 0h-617l273 667h71zM549 52l-225 554l-226 -554h451z" horiz-adv-x="647" unicode="Δ" glyph-name="Delta"/>
<glyph d="M632 0h-617l273 667h71zM549 52l-225 554l-226 -554h451z" horiz-adv-x="647" unicode="∆" glyph-name="Delta"/>
<glyph d="M77 0v52h141q-71 43 -115.5 115.5t-44.5 173.5q0 146 89.5 241.5t234.5 95.5t234.5 -95.5t89.5 -241.5q0 -101 -44 -173.5t-115 -115.5h142v-52h-228v52q74 18 129.5 92t55.5 189q0 127 -71 209.5t-193 82.5t-193 -82.5t-71 -209.5q0 -114 56 -188t130 -93v-52h-227z" horiz-adv-x="764" unicode="Ω" glyph-name="Omega"/>
<glyph d="M77 0v52h141q-71 43 -115.5 115.5t-44.5 173.5q0 146 89.5 241.5t234.5 95.5t234.5 -95.5t89.5 -241.5q0 -101 -44 -173.5t-115 -115.5h142v-52h-228v52q74 18 129.5 92t55.5 189q0 127 -71 209.5t-193 82.5t-193 -82.5t-71 -209.5q0 -114 56 -188t130 -93v-52h-227z" horiz-adv-x="764" unicode="Ω" glyph-name="Omega"/>
<glyph d="M421 0h-55v452h-197v-452h-55v452h-79v48h465v-48h-79v-452z" horiz-adv-x="535" unicode="π" glyph-name="pi"/>
<glyph d="M563 218h-533v48h533v-48z" horiz-adv-x="593" unicode="–" glyph-name="endash"/>
<glyph d="M803 218h-773v48h773v-48z" horiz-adv-x="833" unicode="—" glyph-name="emdash"/>
<glyph d="M51 541q0 40 20.5 77t51.5 59l29 -24q-24 -16 -40 -42.5t-18 -50.5q0 2 10 2q18 0 29.5 -12t11.5 -30q0 -17 -12.5 -30t-30.5 -13q-21 0 -36 17t-15 47z" horiz-adv-x="219" unicode="‘" glyph-name="quoteleft"/>
<glyph d="M159 613q0 -40 -20.5 -77t-51.5 -59l-29 24q24 16 40 42.5t18 50.5q0 -2 -10 -2q-18 0 -29.5 12t-11.5 30q0 17 12.5 30t30.5 13q21 0 36 -17t15 -47z" horiz-adv-x="219" unicode="’" glyph-name="quoteright"/>
<glyph d="M159 14q0 -40 -20.5 -77.5t-51.5 -58.5l-29 24q24 16 40 42.5t18 49.5q-7 -1 -10 -1q-18 0 -29.5 12t-11.5 30q0 17 12.5 30t30.5 13q21 0 36 -17t15 -47z" horiz-adv-x="219" unicode="‚" glyph-name="quotesinglbase"/>
<glyph d="M60 541q0 40 20.5 77t50.5 59l30 -24q-24 -17 -41 -43t-18 -50q2 2 11 2q17 0 28.5 -12t11.5 -30t-12 -30.5t-30 -12.5q-21 0 -36 17t-15 47zM202 541q0 40 20 77t51 59l30 -24q-24 -17 -41 -43t-18 -50q2 2 11 2q17 0 28.5 -12t11.5 -30t-12.5 -30.5t-30.5 -12.5 q-21 0 -35.5 17t-14.5 47z" horiz-adv-x="361" unicode="“" glyph-name="quotedblleft"/>
<glyph d="M300 613q0 -40 -20 -77t-51 -59l-30 24q24 17 41 43t18 50q-2 -2 -11 -2q-17 0 -28.5 12t-11.5 30t12.5 30.5t30.5 12.5q21 0 35.5 -17t14.5 -47zM159 613q0 -40 -20.5 -77t-51.5 -59l-29 24q24 16 40 42.5t18 50.5q0 -2 -10 -2q-18 0 -29.5 12t-11.5 30q0 17 12.5 30 t30.5 13q21 0 36 -17t15 -47z" horiz-adv-x="361" unicode="”" glyph-name="quotedblright"/>
<glyph d="M159 14q0 -40 -20.5 -77.5t-51.5 -58.5l-29 24q24 16 40 42.5t18 49.5q-7 -1 -10 -1q-18 0 -29.5 12t-11.5 30q0 17 12.5 30t30.5 13q21 0 36 -17t15 -47zM300 14q0 -41 -20 -78t-51 -58l-30 24q24 16 40.5 42.5t18.5 49.5h-4q-5 -1 -7 -1q-17 0 -28.5 12t-11.5 30 t12.5 30.5t30.5 12.5q21 0 35.5 -17t14.5 -47z" horiz-adv-x="361" unicode="„" glyph-name="quotedblbase"/>
<glyph d="M233 535l-89 4l4 -212h-39l4 212l-89 -4v35l89 -3l-4 110h39l-4 -110l89 3v-35z" horiz-adv-x="257" unicode="†" glyph-name="dagger"/>
<glyph d="M233 570v-35l-89 4v-221l89 4v-35l-89 3l4 -110h-39l4 110l-89 -3v35l89 -4v221l-89 -4v35l89 -3l-4 110h39l-4 -110z" horiz-adv-x="257" unicode="‡" glyph-name="daggerdbl"/>
<glyph d="M283 242q0 -42 -30 -72t-73 -30t-73 30t-30 72q0 43 30 73t73 30t73 -30t30 -73z" horiz-adv-x="358" unicode="•" glyph-name="bullet"/>
<glyph d="M154 35q0 -18 -13 -31t-31 -13t-31 13t-13 31q0 17 13 30t31 13t31 -13t13 -30zM373 35q0 -18 -13 -31t-31 -13t-31 13t-13 31q0 17 13 30t31 13t31 -13t13 -30zM592 35q0 -18 -13 -31t-31 -13t-31 13t-13 31q0 17 13 30t31 13t31 -13t13 -30z" horiz-adv-x="657" unicode="…" glyph-name="ellipsis"/>
<glyph d="M347 512q0 -70 -44 -116.5t-113 -46.5q-68 0 -112 46.5t-44 116.5q0 71 44 118t112 47q69 0 113 -47t44 -118zM600 667l-427 -667h-45l426 667h46zM687 151q0 -70 -44 -116.5t-113 -46.5t-113 46.5t-44 116.5q0 71 44 118t113 47t113 -47t44 -118zM301 512q0 54 -31 91 t-80 37q-48 0 -79 -37t-31 -91q0 -53 31 -89t79 -36q49 0 80 36t31 89zM640 151q0 54 -30.5 90.5t-79.5 36.5t-80 -36.5t-31 -90.5q0 -53 31 -89.5t80 -36.5t79.5 36.5t30.5 89.5zM1034 151q0 -70 -44 -116.5t-113 -46.5t-113 46.5t-44 116.5q0 71 44 118t113 47t113 -47 t44 -118zM988 151q0 54 -31 90.5t-80 36.5t-80 -36.5t-31 -90.5q0 -53 31 -89.5t80 -36.5t80 36.5t31 89.5z" horiz-adv-x="1067" unicode="‰" glyph-name="perthousand"/>
<glyph d="M247 63h-57l-160 180l160 177h57l-160 -177z" horiz-adv-x="277" unicode="‹" glyph-name="guilsinglleft"/>
<glyph d="M247 243l-160 -180h-57l160 180l-160 177h57z" horiz-adv-x="277" unicode="›" glyph-name="guilsinglright"/>
<glyph d="M301 667l-427 -667h-45l426 667h46z" horiz-adv-x="130" unicode="⁄" glyph-name="fraction"/>
<glyph d="M301 667l-427 -667h-45l426 667h46z" horiz-adv-x="130" unicode="∕" glyph-name="fraction"/>
<glyph d="M349 621q0 -51 -15 -96.5t-52 -78t-90 -32.5q-78 0 -117.5 62.5t-39.5 144.5q0 83 39.5 144.5t117.5 61.5t117.5 -62t39.5 -144zM302 621q0 71 -26.5 119.5t-83.5 48.5q-58 0 -84.5 -48.5t-26.5 -119.5t27 -120t84 -49t83.5 49t26.5 120z" unicode="⁰" glyph-name="zerosuperior"/>
<glyph d="M343 528h-60v-107h-44v107h-196v35l179 258h61v-256h60v-37zM239 565v215l-150 -215h150z" unicode="⁴" glyph-name="foursuperior"/>
<glyph d="M335 545q0 -59 -41 -95t-103 -36q-96 0 -143 65l27 30q42 -57 116 -57q44 0 72 26t28 65q0 42 -27.5 67.5t-71.5 25.5q-58 0 -99 -40l-33 13v212h248v-38h-203v-149q38 38 99 38q55 0 93 -33.5t38 -93.5z" unicode="⁵" glyph-name="fivesuperior"/>
<glyph d="M342 543q0 -53 -39.5 -91t-103.5 -38q-80 0 -118.5 58.5t-38.5 148.5q0 87 41.5 146.5t123.5 59.5q68 0 113 -48l-23 -32q-36 42 -90 42q-60 0 -90 -47.5t-31 -114.5q0 -14 1 -20q16 24 49 44.5t71 20.5q59 0 97 -33.5t38 -95.5zM297 542q0 46 -27.5 69.5t-72.5 23.5 q-31 0 -60.5 -17.5t-47.5 -46.5q4 -49 31 -84t78 -35q46 0 72.5 28t26.5 62z" unicode="⁶" glyph-name="sixsuperior"/>
<glyph d="M315 790l-174 -369h-49l173 362h-230v38h280v-31z" horiz-adv-x="359" unicode="⁷" glyph-name="sevensuperior"/>
<glyph d="M338 522q0 -49 -42 -78.5t-104 -29.5t-104 29t-42 79q0 39 30 66.5t74 38.5q-41 10 -69 34.5t-28 60.5q0 52 41.5 78.5t97.5 26.5t97.5 -26.5t41.5 -78.5q0 -37 -27.5 -61t-68.5 -34q43 -11 73 -38.5t30 -66.5zM287 719q0 33 -27 52t-68 19t-68 -19t-27 -52q0 -54 95 -76 q95 21 95 76zM293 525q0 39 -35.5 60t-65.5 25q-17 -2 -37.5 -9.5t-42.5 -28t-22 -47.5q0 -34 30 -54.5t72 -20.5t71.5 20.5t29.5 54.5z" unicode="⁸" glyph-name="eightsuperior"/>
<glyph d="M42 698q0 53 39 91t104 38q80 0 118.5 -58.5t38.5 -148.5q0 -87 -41.5 -146.5t-122.5 -59.5q-69 0 -114 48l23 32q34 -42 91 -42q59 0 88.5 47.5t30.5 115.5v19q-17 -24 -50 -44.5t-69 -20.5q-59 0 -97.5 33.5t-38.5 95.5zM87 699q0 -45 27.5 -69t71.5 -24q32 0 62 18 t47 47q-4 48 -31 83t-78 35q-46 0 -72.5 -28t-26.5 -62z" unicode="⁹" glyph-name="ninesuperior"/>
<glyph d="M138 368l-25 -12q-86 116 -86 265q0 148 86 265l25 -12q-65 -128 -65 -253q0 -126 65 -253z" horiz-adv-x="148" unicode="⁽" glyph-name="parenleftsuperior"/>
<glyph d="M137 621q0 -148 -86 -265l-26 12q65 127 65 253q0 125 -65 253l26 12q86 -117 86 -265z" horiz-adv-x="148" unicode="⁾" glyph-name="parenrightsuperior"/>
<glyph d="M328 326h-43v207q0 79 -76 79q-29 0 -57 -15t-44 -36v-235h-43v314h43v-47q19 22 50.5 38.5t64.5 16.5q58 0 81.5 -27.5t23.5 -80.5v-214z" horiz-adv-x="393" unicode="ⁿ" glyph-name="nsuperior"/>
<glyph d="M349 54q0 -51 -15 -96.5t-52 -78t-90 -32.5q-78 0 -117.5 62.5t-39.5 144.5q0 83 39.5 144.5t117.5 61.5t117.5 -62t39.5 -144zM302 54q0 71 -26.5 119.5t-83.5 48.5q-58 0 -84.5 -48.5t-26.5 -119.5t27 -120t84 -49t83.5 49t26.5 120z" unicode="₀" glyph-name="zeroinferior"/>
<glyph d="M154 -146h-46v341l-64 -69l-27 29l97 99h40v-400z" horiz-adv-x="214" unicode="₁" glyph-name="oneinferior"/>
<glyph d="M333 -146h-281v35q122 87 178.5 144.5t56.5 109.5q0 40 -27 59.5t-66 19.5q-77 0 -113 -52l-27 28q48 62 141 62q55 0 95.5 -29t40.5 -86q0 -60 -54.5 -119t-158.5 -134h215v-38z" unicode="₂" glyph-name="twoinferior"/>
<glyph d="M335 -38q0 -51 -39 -83t-106 -32q-49 0 -87 18t-57 47l26 28q42 -55 117 -55q46 0 73 21t27 57q0 40 -30.5 59.5t-79.5 19.5q-32 0 -38 -1v38q7 -1 38 -1q46 0 75 17.5t29 55.5q0 33 -27.5 52t-68.5 19q-65 0 -111 -50l-25 27q52 61 139 61q60 0 99 -28.5t39 -77.5 q0 -41 -28 -64.5t-61 -28.5q34 -3 65 -28.5t31 -70.5z" unicode="₃" glyph-name="threeinferior"/>
<glyph d="M343 -39h-60v-107h-44v107h-196v35l179 258h61v-256h60v-37zM239 -2v215l-150 -215h150z" unicode="₄" glyph-name="fourinferior"/>
<glyph d="M335 -22q0 -59 -41 -95t-103 -36q-96 0 -143 65l27 30q42 -57 116 -57q44 0 72 26t28 65q0 42 -27.5 67.5t-71.5 25.5q-58 0 -99 -40l-33 13v212h248v-38h-203v-149q38 38 99 38q55 0 93 -33.5t38 -93.5z" unicode="₅" glyph-name="fiveinferior"/>
<glyph d="M342 -24q0 -53 -39.5 -91t-103.5 -38q-80 0 -118.5 58.5t-38.5 148.5q0 87 41.5 146.5t123.5 59.5q68 0 113 -48l-23 -32q-36 42 -90 42q-60 0 -90 -47.5t-31 -114.5q0 -14 1 -20q16 24 49 44.5t71 20.5q59 0 97 -33.5t38 -95.5zM297 -25q0 46 -27.5 69.5t-72.5 23.5 q-31 0 -60.5 -17.5t-47.5 -46.5q4 -49 31 -84t78 -35q46 0 72.5 28t26.5 62z" unicode="₆" glyph-name="sixinferior"/>
<glyph d="M315 223l-174 -369h-49l173 362h-230v38h280v-31z" horiz-adv-x="359" unicode="₇" glyph-name="seveninferior"/>
<glyph d="M338 -45q0 -49 -42 -78.5t-104 -29.5t-104 29t-42 79q0 39 30 66.5t74 38.5q-41 10 -69 34.5t-28 60.5q0 52 41.5 78.5t97.5 26.5t97.5 -26.5t41.5 -78.5q0 -37 -27.5 -61t-68.5 -34q43 -11 73 -38.5t30 -66.5zM287 152q0 33 -27 52t-68 19t-68 -19t-27 -52q0 -54 95 -76 q95 21 95 76zM293 -42q0 39 -35.5 60t-65.5 25q-17 -2 -37.5 -9.5t-42.5 -28t-22 -47.5q0 -34 30 -54.5t72 -20.5t71.5 20.5t29.5 54.5z" unicode="₈" glyph-name="eightinferior"/>
<glyph d="M42 131q0 53 39 91t104 38q80 0 118.5 -58.5t38.5 -148.5q0 -87 -41.5 -146.5t-122.5 -59.5q-69 0 -114 48l23 32q34 -42 91 -42q59 0 88.5 47.5t30.5 115.5v19q-17 -24 -50 -44.5t-69 -20.5q-59 0 -97.5 33.5t-38.5 95.5zM87 132q0 -45 27.5 -69t71.5 -24q32 0 62 18 t47 47q-4 48 -31 83t-78 35q-46 0 -72.5 -28t-26.5 -62z" unicode="₉" glyph-name="nineinferior"/>
<glyph d="M138 -199l-25 -12q-86 116 -86 265q0 148 86 265l25 -12q-65 -128 -65 -253q0 -126 65 -253z" horiz-adv-x="148" unicode="₍" glyph-name="parenleftinferior"/>
<glyph d="M137 54q0 -148 -86 -265l-26 12q65 127 65 253q0 125 -65 253l26 12q86 -117 86 -265z" horiz-adv-x="148" unicode="₎" glyph-name="parenrightinferior"/>
<glyph d="M398 -12q-4 0 -13 0.5t-14 0.5l-30 -89h-40l31 94q-49 10 -85 27l-40 -121h-40l46 139q-71 45 -112 121.5t-41 172.5q0 152 97 248.5t241 96.5q11 0 29 -2l31 92h40l-33 -97q46 -10 84 -31l43 128h40l-50 -150q29 -21 59 -58l-48 -31q-13 18 -30 33l-175 -522h10 q59 0 111 26.5t84 70.5l49 -30q-98 -119 -244 -119zM120 333q0 -153 112 -239l178 531q-2 0 -6 0.5t-6 0.5q-119 0 -198.5 -82t-79.5 -211zM265 73q38 -21 84 -29l182 543q-34 23 -83 34z" horiz-adv-x="674" unicode="₡" glyph-name="colonmonetary"/>
<glyph d="M151 0h-57v149h-83v38h83v480h423v-52h-366v-247h359v-52h-359v-129h223v-38h-223v-149z" horiz-adv-x="553" unicode="₣" glyph-name="frenchfranc"/>
<glyph d="M18 325v39h76q-44 57 -44 121q0 79 62 135.5t154 56.5q62 0 112.5 -29t75.5 -79l-46 -29q-15 35 -53 61t-85 26q-67 0 -113 -38.5t-46 -104.5q0 -62 49 -120h197v-39h-163q33 -40 43 -77h120v-38h-116q-2 -79 -81 -136q25 9 54 9q34 0 79.5 -22t74.5 -22q31 0 59.5 13 t40.5 28l27 -47q-49 -47 -129 -47q-47 0 -93 23.5t-86 23.5q-42 0 -118 -40l-22 48q69 30 105.5 73t36.5 92v4h-171v38h163q-11 31 -53 77h-110z" horiz-adv-x="504" unicode="₤" glyph-name="lira"/>
<glyph d="M627 0h-56l-180 246h-240v-246h-57v246h-83v38h83v107h-83v38h83v238h58l176 -238h242v238h57v-238h83v-38h-83v-107h83v-38h-83v-246zM356 391l79 -107h135v107h-214zM151 391v-107h212l-79 107h-133zM463 246l107 -144v144h-107zM151 573v-144h105z" horiz-adv-x="722" unicode="₦" glyph-name="uni20A6"/>
<glyph d="M620 452h-76q-7 -75 -60.5 -125t-139.5 -50h-193v-277h-57v452h-83v41h83v174h250q86 0 139.5 -49.5t60.5 -124.5h76v-41zM338 329q60 0 99.5 34t46.5 89h-333v-123h187zM151 615v-122h333q-7 55 -46.5 88.5t-99.5 33.5h-187z" horiz-adv-x="624" unicode="₧" glyph-name="peseta"/>
<glyph d="M543 0h-69l-187 276h-147v-276h-57v667h249q88 0 145.5 -53t57.5 -142q0 -87 -53 -138t-132 -54zM327 328q66 0 107 40.5t41 103.5t-41 103t-107 40h-187v-287h187zM761 -12q-118 0 -186 77l31 38q25 -31 66 -51t90 -20q59 0 94 27.5t35 70.5q0 36 -31.5 57t-76.5 31.5 t-89.5 23t-76 42t-31.5 77.5q0 57 46.5 95.5t125.5 38.5q109 0 173 -71l-29 -37q-47 64 -144 64q-55 0 -87.5 -25t-32.5 -63q0 -33 31.5 -52t76 -29.5t89 -23.5t76 -45t31.5 -83q0 -62 -47 -102t-134 -40z" horiz-adv-x="996" unicode="₨" glyph-name="rupee"/>
<glyph d="M658 0h-64l-69 246h-182l-69 -246h-64l-71 246h-115v38h104l-30 107h-74v38h63l-68 238h64l65 -238h193l67 238h52l66 -238h193l65 238h64l-68 -238h64v-38h-75l-30 -107h105v-38h-116zM159 391l29 -107h113l30 107h-172zM536 391l30 -107h113l29 107h-172zM383 391 l-30 -107h161l-30 107h-101zM198 246l46 -166l46 166h-92zM577 246l46 -166l45 166h-91zM434 573l-40 -144h80z" horiz-adv-x="867" unicode="₩" glyph-name="uni20A9"/>
<glyph d="M510 0h-232v393h52v-345h180q167 0 167 164v338h53v-340q0 -210 -220 -210zM81 550h231q220 0 220 -210v-184h-52v182q0 164 -168 164h-179v-502h-52v550z" horiz-adv-x="810" unicode="₪" glyph-name="afii57636"/>
<glyph d="M417 -12q-121 0 -210.5 69t-117.5 185h-54v41h47q-3 24 -3 50q0 27 3 52h-47v41h55q28 114 117.5 183t209.5 69q150 0 243 -118l-48 -31q-32 44 -84 70.5t-111 26.5q-95 0 -167.5 -54.5t-98.5 -145.5h326v-41h-334q-4 -23 -4 -52q0 -26 3 -50h335v-41h-326 q26 -92 98.5 -147t167.5 -55q59 0 111 26.5t84 70.5l49 -30q-98 -119 -244 -119z" horiz-adv-x="690" unicode="€" glyph-name="Euro"/>
<glyph d="M81 93v420q0 69 49 116.5t125 47.5q70 0 116 -33.5t46 -84.5q0 -42 -28 -75t-81 -69l-175 -118v-199q0 -30 12.5 -48t37.5 -18q33 0 54 24l20 -38q-30 -30 -82 -30q-43 0 -68.5 25.5t-25.5 79.5zM133 353l154 103q41 28 60 50.5t19 51.5q0 34 -33.5 56t-77.5 22 q-51 0 -86.5 -34.5t-35.5 -89.5v-159z" horiz-adv-x="454" unicode="ℓ" glyph-name="afii61289"/>
<glyph d="M616 0h-56l-420 573v-573h-57v667h58l418 -565v565h57v-667zM901 350q-70 0 -114 47.5t-44 117.5t44 117.5t114 47.5q71 0 115 -47t44 -118q0 -70 -44 -117.5t-115 -47.5zM901 387q53 0 84 36.5t31 91.5q0 54 -31 90.5t-84 36.5q-52 0 -82.5 -36t-30.5 -91t30.5 -91.5 t82.5 -36.5z" horiz-adv-x="1104" unicode="№" glyph-name="afii61352"/>
<glyph d="M734 334q0 -142 -101 -243.5t-244 -101.5t-244 101.5t-101 243.5t101 243.5t244 101.5t244 -101.5t101 -243.5zM706 334q0 130 -93 223.5t-224 93.5t-224 -93.5t-93 -223.5t93 -223.5t224 -93.5t224 93.5t93 223.5zM547 421q0 -52 -36 -83t-89 -31h-112v-176h-33v405h145 q53 0 89 -30.5t36 -84.5zM514 421q0 38 -25.5 60.5t-66.5 22.5h-112v-165h112q41 0 66.5 22t25.5 60z" horiz-adv-x="778" unicode="℗" glyph-name="published"/>
<glyph d="M439 447h-28v182l-75 -182h-8l-75 182v-182h-28v220h43l64 -160l64 160h43v-220zM188 506q0 -31 -22.5 -49t-64.5 -18q-55 0 -86 36l18 21q28 -32 66 -32q56 0 56 39q0 19 -21.5 30t-46.5 15t-46.5 19t-21.5 42q0 28 22.5 46t57.5 18q55 0 82 -32l-18 -19q-23 27 -63 27 q-21 0 -34.5 -10t-13.5 -26q0 -17 21 -27t47 -14.5t47 -20.5t21 -45z" horiz-adv-x="476" unicode="℠" glyph-name="servicemark"/>
<glyph d="M419 447h-28v182l-75 -182h-8l-75 182v-182h-28v220h43l64 -160l64 160h43v-220zM169 641h-62v-194h-28v194h-62v26h152v-26z" horiz-adv-x="454" unicode="™" glyph-name="trademark"/>
<glyph d="M811 324h-632q-5 0 -5 -5v-190q0 -14 9 -23q98 -103 240 -103q151 0 250 115h57q-54 -63 -135 -99.5t-174 -36.5q-161 0 -275.5 103t-114.5 248t114.5 248t275.5 103t275.5 -103t114.5 -248v-9zM668 349v191q0 14 -10 24q-97 99 -235 99q-140 0 -239 -102 q-10 -10 -10 -24v-188q0 -6 5 -6h485q4 0 4 6z" horiz-adv-x="842" unicode="℮" glyph-name="estimated"/>
<glyph d="M568 667l-427 -667h-45l426 667h46zM732 108q0 -51 -39 -83t-106 -32q-49 0 -87 18t-57 47l26 28q42 -55 117 -55q46 0 73 21t27 57q0 40 -30.5 59.5t-79.5 19.5q-32 0 -38 -1v38q7 -1 38 -1q46 0 75 17.5t29 55.5q0 33 -27.5 52t-68.5 19q-65 0 -111 -50l-25 27 q52 61 139 61q60 0 99 -28.5t39 -77.5q0 -41 -28 -64.5t-61 -28.5q34 -3 65 -28.5t31 -70.5zM154 267h-46v341l-64 -69l-27 29l97 99h40v-400z" horiz-adv-x="781" unicode="⅓" glyph-name="onethird"/>
<glyph d="M685 667l-427 -667h-45l426 667h46zM849 108q0 -51 -39 -83t-106 -32q-49 0 -87 18t-57 47l26 28q42 -55 117 -55q46 0 73 21t27 57q0 40 -30.5 59.5t-79.5 19.5q-32 0 -38 -1v38q7 -1 38 -1q46 0 75 17.5t29 55.5q0 33 -27.5 52t-68.5 19q-65 0 -111 -50l-25 27 q52 61 139 61q60 0 99 -28.5t39 -77.5q0 -41 -28 -64.5t-61 -28.5q34 -3 65 -28.5t31 -70.5zM333 267h-281v35q122 87 178.5 144.5t56.5 109.5q0 40 -27 59.5t-66 19.5q-77 0 -113 -52l-27 28q48 62 141 62q55 0 95.5 -29t40.5 -86q0 -60 -54.5 -119t-158.5 -134h215v-38z " horiz-adv-x="898" unicode="⅔" glyph-name="twothirds"/>
<glyph d="M568 667l-427 -667h-45l426 667h46zM735 101q0 -49 -42 -78.5t-104 -29.5t-104 29t-42 79q0 39 30 66.5t74 38.5q-41 10 -69 34.5t-28 60.5q0 52 41.5 78.5t97.5 26.5t97.5 -26.5t41.5 -78.5q0 -37 -27.5 -61t-68.5 -34q43 -11 73 -38.5t30 -66.5zM684 298q0 33 -27 52 t-68 19t-68 -19t-27 -52q0 -54 95 -76q95 21 95 76zM690 104q0 39 -35.5 60t-65.5 25q-17 -2 -37.5 -9.5t-42.5 -28t-22 -47.5q0 -34 30 -54.5t72 -20.5t71.5 20.5t29.5 54.5zM154 267h-46v341l-64 -69l-27 29l97 99h40v-400z" horiz-adv-x="781" unicode="⅛" glyph-name="oneeighth"/>
<glyph d="M685 667l-427 -667h-45l426 667h46zM852 101q0 -49 -42 -78.5t-104 -29.5t-104 29t-42 79q0 39 30 66.5t74 38.5q-41 10 -69 34.5t-28 60.5q0 52 41.5 78.5t97.5 26.5t97.5 -26.5t41.5 -78.5q0 -37 -27.5 -61t-68.5 -34q43 -11 73 -38.5t30 -66.5zM801 298q0 33 -27 52 t-68 19t-68 -19t-27 -52q0 -54 95 -76q95 21 95 76zM807 104q0 39 -35.5 60t-65.5 25q-17 -2 -37.5 -9.5t-42.5 -28t-22 -47.5q0 -34 30 -54.5t72 -20.5t71.5 20.5t29.5 54.5zM335 375q0 -51 -39 -83t-106 -32q-49 0 -87 18t-57 47l26 28q42 -55 117 -55q46 0 73 21t27 57 q0 40 -30.5 59.5t-79.5 19.5q-32 0 -38 -1v38q7 -1 38 -1q46 0 75 17.5t29 55.5q0 33 -27.5 52t-68.5 19q-65 0 -111 -50l-25 27q52 61 139 61q60 0 99 -28.5t39 -77.5q0 -41 -28 -64.5t-61 -28.5q34 -3 65 -28.5t31 -70.5z" horiz-adv-x="898" unicode="⅜" glyph-name="threeeighths"/>
<glyph d="M684 667l-427 -667h-45l426 667h46zM850 101q0 -49 -42 -78.5t-104 -29.5t-104 29t-42 79q0 39 30 66.5t74 38.5q-41 10 -69 34.5t-28 60.5q0 52 41.5 78.5t97.5 26.5t97.5 -26.5t41.5 -78.5q0 -37 -27.5 -61t-68.5 -34q43 -11 73 -38.5t30 -66.5zM799 298q0 33 -27 52 t-68 19t-68 -19t-27 -52q0 -54 95 -76q95 21 95 76zM805 104q0 39 -35.5 60t-65.5 25q-17 -2 -37.5 -9.5t-42.5 -28t-22 -47.5q0 -34 30 -54.5t72 -20.5t71.5 20.5t29.5 54.5zM335 391q0 -59 -41 -95t-103 -36q-96 0 -143 65l27 30q42 -57 116 -57q44 0 72 26t28 65 q0 42 -27.5 67.5t-71.5 25.5q-58 0 -99 -40l-33 13v212h248v-38h-203v-149q38 38 99 38q55 0 93 -33.5t38 -93.5z" horiz-adv-x="896" unicode="⅝" glyph-name="fiveeighths"/>
<glyph d="M599 667l-427 -667h-45l426 667h46zM765 101q0 -49 -42 -78.5t-104 -29.5t-104 29t-42 79q0 39 30 66.5t74 38.5q-41 10 -69 34.5t-28 60.5q0 52 41.5 78.5t97.5 26.5t97.5 -26.5t41.5 -78.5q0 -37 -27.5 -61t-68.5 -34q43 -11 73 -38.5t30 -66.5zM714 298q0 33 -27 52 t-68 19t-68 -19t-27 -52q0 -54 95 -76q95 21 95 76zM720 104q0 39 -35.5 60t-65.5 25q-17 -2 -37.5 -9.5t-42.5 -28t-22 -47.5q0 -34 30 -54.5t72 -20.5t71.5 20.5t29.5 54.5zM315 636l-174 -369h-49l173 362h-230v38h280v-31z" horiz-adv-x="811" unicode="⅞" glyph-name="seveneighths"/>
<glyph d="M538 211h-269l12 -130l-281 205l281 204l-12 -129h269v-150z" horiz-adv-x="582" unicode="←" glyph-name="arrowleft"/>
<glyph d="M216 17v269l-130 -12l205 281l204 -281l-129 12v-269h-150z" horiz-adv-x="582" unicode="↑" glyph-name="arrowup"/>
<glyph d="M584 286l-281 -205l12 130h-268v150h268l-12 129z" horiz-adv-x="582" unicode="→" glyph-name="arrowright"/>
<glyph d="M366 555v-269l130 12l-205 -281l-204 281l129 -12v269h150z" horiz-adv-x="582" unicode="↓" glyph-name="arrowdown"/>
<glyph d="M285 -12q-104 0 -167.5 71.5t-63.5 178.5q0 106 62 177.5t160 71.5q96 0 156 -84q-32 67 -101 131t-162 108l38 37q61 -30 114 -72t98.5 -96t72 -123t26.5 -143q0 -112 -64 -184.5t-169 -72.5zM285 35q82 0 129.5 59t47.5 144q0 84 -47.5 143t-129.5 59q-81 0 -128.5 -59 t-47.5 -143t47.5 -143.5t128.5 -59.5z" horiz-adv-x="571" unicode="∂" glyph-name="partialdiff"/>
<glyph d="M527 -90h-58v705h-265v-705h-58v705h-111v52h603v-52h-111v-705z" horiz-adv-x="673" unicode="∏" glyph-name="product"/>
<glyph d="M129 615l242 -316l-245 -337h387v-52h-455v52l243 336l-242 317v52h454v-52h-384z" horiz-adv-x="571" unicode="∑" glyph-name="summation"/>
<glyph d="M467 313h-438v42h438v-42z" horiz-adv-x="496" unicode="−" glyph-name="minus"/>
<glyph d="M436 0h-46l-138 338l-165 -67l-15 39l203 81l139 -335l250 611h45z" horiz-adv-x="744" unicode="√" glyph-name="radical"/>
<glyph d="M178 175q-72 0 -110.5 48t-38.5 112q0 65 38.5 112.5t110.5 47.5q48 0 84 -32t58 -82q22 50 58.5 82t84.5 32q73 0 111.5 -47.5t38.5 -112.5q0 -64 -38.5 -112t-111.5 -48q-48 0 -84.5 32t-58.5 82q-22 -50 -58 -82t-84 -32zM461 217q50 0 78.5 33t28.5 85q0 53 -28.5 86 t-78.5 33q-74 0 -121 -119q20 -50 50.5 -84t70.5 -34zM181 217q74 0 120 118q-47 119 -120 119q-51 0 -79.5 -33t-28.5 -86q0 -52 28.5 -85t79.5 -33z" horiz-adv-x="642" unicode="∞" glyph-name="infinity"/>
<glyph d="M79 -100h-62v43h62q28 0 47.5 23t19.5 58v620q0 54 34 89t78 35h62v-43h-62q-28 0 -47.5 -23t-19.5 -58v-620q0 -55 -34 -89.5t-78 -34.5z" horiz-adv-x="337" unicode="∫" glyph-name="integral"/>
<glyph d="M29 216v47q47 -35 110 -35q47 0 104 31t114 31q63 0 110 -29v-47q-47 34 -110 34q-47 0 -104.5 -30.5t-113.5 -30.5q-61 0 -110 29zM29 407v47q47 -34 110 -34q47 0 104 30.5t114 30.5q62 0 110 -28v-48q-47 35 -110 35q-47 0 -104.5 -30.5t-113.5 -30.5q-63 0 -110 28z " horiz-adv-x="496" unicode="≈" glyph-name="approxequal"/>
<glyph d="M118 93h-45l78 123h-122v41h148l98 154h-246v42h273l77 121h46l-78 -121h120v-42h-147l-98 -154h245v-41h-271z" horiz-adv-x="496" unicode="≠" glyph-name="notequal"/>
<glyph d="M467 95l-438 225v38l438 227v-50l-385 -196l385 -195v-49zM467 0h-438v41h438v-41z" horiz-adv-x="496" unicode="≤" glyph-name="lessequal"/>
<glyph d="M467 320l-438 -225v49l386 195l-386 196v50l438 -227v-38zM467 0h-439v41h439v-41z" horiz-adv-x="496" unicode="≥" glyph-name="greaterequal"/>
<glyph d="M589 286l-535 -309v618z" horiz-adv-x="587" unicode="⊲" glyph-name="triangleright"/>
<glyph d="M535 595v-618l-535 309z" horiz-adv-x="587" unicode="⊳" glyph-name="triangleleft"/>
<glyph d="M230 154v78h-78q-32 0 -53.5 -22.5t-21.5 -55.5t22 -56t54 -23t54.5 23.5t22.5 55.5zM230 435v79q0 32 -22 55t-54 23t-54.5 -23t-22.5 -55t22.5 -55.5t54.5 -23.5h76zM265 265h137v137h-137v-137zM590 154q0 33 -21.5 55.5t-53.5 22.5h-78v-78q0 -32 22.5 -55.5 t54.5 -23.5t54 23t22 56zM590 514q0 32 -22 55t-54 23t-54.5 -23t-22.5 -55v-79h78q32 0 53.5 23t21.5 56zM625 154q0 -46 -32.5 -79t-78.5 -33t-79 33t-33 79v78h-137v-78q0 -46 -33 -79t-79 -33t-78.5 33t-32.5 79t32.5 78.5t78.5 32.5h77v137h-76q-46 0 -79 33t-33 79 t33 78.5t79 32.5t78.5 -32.5t32.5 -78.5v-79h137v79q0 46 33 78.5t79 32.5t78.5 -32.5t32.5 -78.5t-32.5 -79t-78.5 -33h-77v-137h77q46 0 78.5 -32.5t32.5 -78.5z" horiz-adv-x="667" unicode="⌘" glyph-name="uni2318"/>
<glyph d="M230 154v78h-78q-32 0 -53.5 -22.5t-21.5 -55.5t22 -56t54 -23t54.5 23.5t22.5 55.5zM230 435v79q0 32 -22 55t-54 23t-54.5 -23t-22.5 -55t22.5 -55.5t54.5 -23.5h76zM265 265h137v137h-137v-137zM590 154q0 33 -21.5 55.5t-53.5 22.5h-78v-78q0 -32 22.5 -55.5 t54.5 -23.5t54 23t22 56zM590 514q0 32 -22 55t-54 23t-54.5 -23t-22.5 -55v-79h78q32 0 53.5 23t21.5 56zM625 154q0 -46 -32.5 -79t-78.5 -33t-79 33t-33 79v78h-137v-78q0 -46 -33 -79t-79 -33t-78.5 33t-32.5 79t32.5 78.5t78.5 32.5h77v137h-76q-46 0 -79 33t-33 79 t33 78.5t79 32.5t78.5 -32.5t32.5 -78.5v-79h137v79q0 46 33 78.5t79 32.5t78.5 -32.5t32.5 -78.5t-32.5 -79t-78.5 -33h-77v-137h77q46 0 78.5 -32.5t32.5 -78.5z" horiz-adv-x="667" unicode="" glyph-name="uni2318"/>
<glyph d="M618 0h-571v572h571v-572z" horiz-adv-x="661" unicode="■" glyph-name="blacksquare"/>
<glyph d="M617 29l-619 1l309 535z" horiz-adv-x="616" unicode="▲" glyph-name="triagup"/>
<glyph d="M617 510l-310 -535l-309 535h619z" horiz-adv-x="616" unicode="▼" glyph-name="triagdn"/>
<glyph d="M198 0h-21l-158 334l158 333h21l158 -333zM188 41l132 293l-133 292l-132 -292z" horiz-adv-x="375" unicode="◊" glyph-name="lozenge"/>
<glyph d="M644 285q0 -123 -87 -210t-210 -87t-210 87t-87 210t87 210t210 87t210 -87t87 -210z" horiz-adv-x="695" unicode="●" glyph-name="circlesolid"/>
<glyph d="M759 421l-235 -171l90 -275l-235 170l-234 -170l89 275l-234 171h290l89 276l90 -276h290z" horiz-adv-x="759" unicode="★" glyph-name="blackstar"/>
<glyph d="M616 0h-571v572h571v-572zM572 41v490h-483v-490h483z" horiz-adv-x="661" unicode="☐" glyph-name="ballotbox"/>
<glyph d="M671 698l-69 -126h14v-572h-571v572h509l81 150zM572 41v474l-230 -424l-202 246l33 31l163 -201l196 364h-443v-490h483z" horiz-adv-x="661" unicode="☑" glyph-name="boxchecked"/>
<glyph d="M501 285l-251 -250l-250 250l250 251z" horiz-adv-x="501" unicode="♦" glyph-name="diamond"/>
<glyph d="M531 698l-329 -607l-202 246l33 31l163 -201l299 555z" horiz-adv-x="531" unicode="✓" glyph-name="checkmark"/>
<glyph d="M490 0h-53v77q-27 -39 -71.5 -64t-96.5 -25q-97 0 -156 69t-59 184q0 114 59.5 184t155.5 70q104 0 168 -90v78h53v-483zM278 35q49 0 93 25t66 61v239q-22 36 -66 62t-93 26q-78 0 -123.5 -58.5t-45.5 -148.5t45.5 -148t123.5 -58z" horiz-adv-x="571" unicode="" glyph-name="a.alt1"/>
<glyph d="M151 0h-53v437h-80v46h80v44q0 71 35 110.5t96 39.5q39 0 65 -15l-16 -43q-19 11 -44 11q-83 0 -83 -103v-44h98v-46h-98v-437z" horiz-adv-x="265" unicode="" glyph-name="f.alt1"/>
<glyph d="M175 -12q-94 0 -94 105v574h52v-566q0 -66 50 -66q33 0 54 23l20 -40q-32 -30 -82 -30z" horiz-adv-x="256" unicode="" glyph-name="l.alt1"/>
<glyph d="M253 -196q-108 0 -178 73l31 42q52 -68 147 -68q72 0 113 40.5t41 112.5v72q-32 -36 -78 -59.5t-96 -23.5q-152 0 -152 155v335h52v-324q0 -66 30 -92.5t87 -26.5q45 0 88.5 23t68.5 57v363h52v-479q0 -100 -59.5 -150t-146.5 -50z" horiz-adv-x="540" unicode="" glyph-name="y.alt1"/>
<glyph d="M393 -13q-141 0 -238 97t-97 249t97.5 248.5t240.5 96.5q152 0 251 -114l-43 -31q-36 43 -90.5 68t-117.5 25q-119 0 -198.5 -82t-79.5 -211q0 -128 80 -211t198 -83q110 0 172.5 68.5t73.5 172.5h-302v52h364q0 -153 -82 -249t-229 -96z" horiz-adv-x="711" unicode="" glyph-name="G.alt1"/>
<glyph d="M343 -12q-123 0 -206 80.5t-83 206.5t83.5 206.5t207.5 80.5q129 0 216 -94l-40 -32q-70 77 -176 77q-100 0 -167 -67t-67 -171t67 -171.5t167 -67.5q81 0 138 52t67 141h-228v48h287q0 -128 -73 -208.5t-193 -80.5z" horiz-adv-x="647" unicode="" glyph-name="G.smcp.alt1"/>
<glyph d="M448 700l-172 -144h-44l154 144h62zM490 0h-53v77q-27 -39 -71.5 -64t-96.5 -25q-97 0 -156 69t-59 184q0 114 59.5 184t155.5 70q104 0 168 -90v78h53v-483zM278 35q49 0 93 25t66 61v239q-22 36 -66 62t-93 26q-78 0 -123.5 -58.5t-45.5 -148.5t45.5 -148t123.5 -58z " horiz-adv-x="571" unicode="" glyph-name="aacute.alt1"/>
<glyph d="M352 556h-44l-172 144h62zM490 0h-53v77q-27 -39 -71.5 -64t-96.5 -25q-97 0 -156 69t-59 184q0 114 59.5 184t155.5 70q104 0 168 -90v78h53v-483zM278 35q49 0 93 25t66 61v239q-22 36 -66 62t-93 26q-78 0 -123.5 -58.5t-45.5 -148.5t45.5 -148t123.5 -58z" horiz-adv-x="571" unicode="" glyph-name="agrave.alt1"/>
<glyph d="M416 556h-40l-86 113l-84 -113h-40l97 144h54zM490 0h-53v77q-27 -39 -71.5 -64t-96.5 -25q-97 0 -156 69t-59 184q0 114 59.5 184t155.5 70q104 0 168 -90v78h53v-483zM278 35q49 0 93 25t66 61v239q-22 36 -66 62t-93 26q-78 0 -123.5 -58.5t-45.5 -148.5t45.5 -148 t123.5 -58z" horiz-adv-x="571" unicode="" glyph-name="acircumflex.alt1"/>
<glyph d="M429 601q0 -15 -11 -26t-26 -11t-26 11t-11 26t11 26t26 11t26 -11t11 -26zM225 601q0 -15 -11 -26t-26 -11t-26 11t-11 26t11 26t26 11t26 -11t11 -26zM490 0h-53v77q-27 -39 -71.5 -64t-96.5 -25q-97 0 -156 69t-59 184q0 114 59.5 184t155.5 70q104 0 168 -90v78h53 v-483zM278 35q49 0 93 25t66 61v239q-22 36 -66 62t-93 26q-78 0 -123.5 -58.5t-45.5 -148.5t45.5 -148t123.5 -58z" horiz-adv-x="571" unicode="" glyph-name="adieresis.alt1"/>
<glyph d="M350 554q-25 0 -43.5 16t-27 35t-23 35t-31.5 16q-24 0 -39 -24t-15 -72h-35q0 58 24.5 96t68.5 38q25 0 43.5 -16t27 -35t23 -35t31.5 -16q24 0 39 24t15 72h35q0 -59 -24.5 -96.5t-68.5 -37.5zM490 0h-53v77q-27 -39 -71.5 -64t-96.5 -25q-97 0 -156 69t-59 184 q0 114 59.5 184t155.5 70q104 0 168 -90v78h53v-483zM278 35q49 0 93 25t66 61v239q-22 36 -66 62t-93 26q-78 0 -123.5 -58.5t-45.5 -148.5t45.5 -148t123.5 -58z" horiz-adv-x="571" unicode="" glyph-name="atilde.alt1"/>
<glyph d="M287 557q-40 0 -68 28.5t-28 67.5q0 40 28 68t68 28q39 0 67 -28t28 -68q0 -39 -28 -67.5t-67 -28.5zM287 589q26 0 44.5 19t18.5 45t-18.5 45t-44.5 19t-45 -19t-19 -45t19 -45t45 -19zM490 0h-53v77q-27 -39 -71.5 -64t-96.5 -25q-97 0 -156 69t-59 184q0 114 59.5 184 t155.5 70q104 0 168 -90v78h53v-483zM278 35q49 0 93 25t66 61v239q-22 36 -66 62t-93 26q-78 0 -123.5 -58.5t-45.5 -148.5t45.5 -148t123.5 -58z" horiz-adv-x="571" unicode="" glyph-name="aring.alt1"/>
<glyph d="M474 591h-363v38h363v-38zM490 0h-53v77q-27 -39 -71.5 -64t-96.5 -25q-97 0 -156 69t-59 184q0 114 59.5 184t155.5 70q104 0 168 -90v78h53v-483zM278 35q49 0 93 25t66 61v239q-22 36 -66 62t-93 26q-78 0 -123.5 -58.5t-45.5 -148.5t45.5 -148t123.5 -58z" horiz-adv-x="571" unicode="" glyph-name="amacron.alt1"/>
<glyph d="M465 654q-65 -88 -175 -88q-109 0 -176 88l29 25q54 -75 147 -75q92 0 147 75zM490 0h-53v77q-27 -39 -71.5 -64t-96.5 -25q-97 0 -156 69t-59 184q0 114 59.5 184t155.5 70q104 0 168 -90v78h53v-483zM278 35q49 0 93 25t66 61v239q-22 36 -66 62t-93 26 q-78 0 -123.5 -58.5t-45.5 -148.5t45.5 -148t123.5 -58z" horiz-adv-x="571" unicode="" glyph-name="abreve.alt1"/>
<glyph d="M515 -109l31 -16q-26 -61 -86 -61q-37 0 -61 21.5t-24 63.5q0 60 62 105v73q-27 -39 -71.5 -64t-96.5 -25q-97 0 -156 69t-59 184q0 114 59.5 184t155.5 70q104 0 168 -90v78h53v-483q-78 -37 -78 -99q0 -54 48 -54q41 0 55 44zM278 35q49 0 93 25t66 61v239 q-22 36 -66 62t-93 26q-78 0 -123.5 -58.5t-45.5 -148.5t45.5 -148t123.5 -58z" horiz-adv-x="571" unicode="" glyph-name="aogonek.alt1"/>
<glyph d="M490 0h-53v77q-27 -39 -71.5 -64t-96.5 -25q-97 0 -156 69t-59 184q0 114 59.5 184t155.5 70q104 0 168 -90v78h53v-107q27 56 74.5 87.5t109.5 31.5q103 0 161.5 -73t58.5 -183v-14h-404q3 -81 54.5 -136.5t133.5 -55.5q94 0 159 67l27 -34q-75 -78 -180 -78 q-67 0 -116.5 31t-77.5 86v-105zM278 35q49 0 93 25t66 61v239q-22 36 -66 62t-93 26q-78 0 -123.5 -58.5t-45.5 -148.5t45.5 -148t123.5 -58zM841 266q-1 70 -46.5 127t-129.5 57q-79 0 -125.5 -56.5t-49.5 -127.5h351z" horiz-adv-x="947" unicode="" glyph-name="ae.alt1"/>
<glyph d="M490 0h-53v77q-27 -39 -71.5 -64t-96.5 -25q-97 0 -156 69t-59 184q0 114 59.5 184t155.5 70q104 0 168 -90v78h53v-107q27 56 74.5 87.5t109.5 31.5q103 0 161.5 -73t58.5 -183v-14h-404q3 -81 54.5 -136.5t133.5 -55.5q94 0 159 67l27 -34q-75 -78 -180 -78 q-67 0 -116.5 31t-77.5 86v-105zM278 35q49 0 93 25t66 61v239q-22 36 -66 62t-93 26q-78 0 -123.5 -58.5t-45.5 -148.5t45.5 -148t123.5 -58zM841 266q-1 70 -46.5 127t-129.5 57q-79 0 -125.5 -56.5t-49.5 -127.5h351zM623 700l-172 -144h-44l154 144h62z" horiz-adv-x="897" unicode="" glyph-name="aeacute.alt1"/>
<glyph d="M11 238v46l102 58v325h52v-295l101 58v-46l-101 -58v-225q0 -66 50 -66q33 0 54 23l20 -40q-32 -30 -82 -30q-94 0 -94 105v203z" horiz-adv-x="287" unicode="" glyph-name="lslash.alt1"/>
<glyph d="M264 872l-172 -144h-44l154 144h62zM175 -12q-94 0 -94 105v574h52v-566q0 -66 50 -66q33 0 54 23l20 -40q-32 -30 -82 -30z" horiz-adv-x="256" unicode="" glyph-name="lacute.alt1"/>
<glyph d="M176 -137q0 -38 -19 -72.5t-48 -55.5l-27 22q23 17 38.5 42t16.5 47q-7 -1 -10 -1q-16 0 -26 11t-10 27t11 27.5t27 11.5q20 0 33.5 -16t13.5 -43zM175 -12q-94 0 -94 105v574h52v-566q0 -66 50 -66q33 0 54 23l20 -40q-32 -30 -82 -30z" horiz-adv-x="256" unicode="" glyph-name="lcommaaccent.alt1"/>
<glyph d="M287 620q0 -38 -19 -72.5t-48 -55.5l-27 22q23 17 38.5 42t16.5 47q-7 -1 -10 -1q-16 0 -26 11t-10 27t11 27.5t27 11.5q20 0 33.5 -16t13.5 -43zM175 -12q-94 0 -94 105v574h52v-566q0 -66 50 -66q33 0 54 23l20 -40q-32 -30 -82 -30z" horiz-adv-x="269" unicode="" glyph-name="lcaron.alt1"/>
<glyph d="M175 -12q-94 0 -94 105v574h52v-566q0 -66 50 -66q33 0 54 23l20 -40q-32 -30 -82 -30zM288 245q0 -18 -13 -31t-31 -13t-31 13t-13 31q0 17 13 30t31 13t31 -13t13 -30z" horiz-adv-x="273" unicode="" glyph-name="ldot.alt1"/>
<glyph d="M425 700l-172 -144h-44l154 144h62zM253 -196q-108 0 -178 73l31 42q52 -68 147 -68q72 0 113 40.5t41 112.5v72q-32 -36 -78 -59.5t-96 -23.5q-152 0 -152 155v335h52v-324q0 -66 30 -92.5t87 -26.5q45 0 88.5 23t68.5 57v363h52v-479q0 -100 -59.5 -150t-146.5 -50z " horiz-adv-x="540" unicode="" glyph-name="yacute.alt1"/>
<glyph d="M404 601q0 -15 -11 -26t-26 -11t-26 11t-11 26t11 26t26 11t26 -11t11 -26zM200 601q0 -15 -11 -26t-26 -11t-26 11t-11 26t11 26t26 11t26 -11t11 -26zM253 -196q-108 0 -178 73l31 42q52 -68 147 -68q72 0 113 40.5t41 112.5v72q-32 -36 -78 -59.5t-96 -23.5 q-152 0 -152 155v335h52v-324q0 -66 30 -92.5t87 -26.5q45 0 88.5 23t68.5 57v363h52v-479q0 -100 -59.5 -150t-146.5 -50z" horiz-adv-x="540" unicode="" glyph-name="ydieresis.alt1"/>
<glyph d="M397 556h-40l-86 113l-84 -113h-40l97 144h54zM253 -196q-108 0 -178 73l31 42q52 -68 147 -68q72 0 113 40.5t41 112.5v72q-32 -36 -78 -59.5t-96 -23.5q-152 0 -152 155v335h52v-324q0 -66 30 -92.5t87 -26.5q45 0 88.5 23t68.5 57v363h52v-479q0 -100 -59.5 -150 t-146.5 -50z" horiz-adv-x="540" unicode="" glyph-name="ycircumflex.alt1"/>
<glyph d="M574 813q-65 -88 -175 -88q-109 0 -176 88l29 25q54 -75 147 -75q92 0 147 75zM393 -13q-141 0 -238 97t-97 249t97.5 248.5t240.5 96.5q152 0 251 -114l-43 -31q-36 43 -90.5 68t-117.5 25q-119 0 -198.5 -82t-79.5 -211q0 -128 80 -211t198 -83q110 0 172.5 68.5 t73.5 172.5h-302v52h364q0 -153 -82 -249t-229 -96z" horiz-adv-x="746" unicode="" glyph-name="Gbreve.alt1"/>
<glyph d="M444 -137q0 -38 -19 -72.5t-48 -55.5l-27 22q23 17 38.5 42t16.5 47q-7 -1 -10 -1q-16 0 -26 11t-10 27t11 27.5t27 11.5q20 0 33.5 -16t13.5 -43zM393 -13q-141 0 -238 97t-97 249t97.5 248.5t240.5 96.5q152 0 251 -114l-43 -31q-36 43 -90.5 68t-117.5 25 q-119 0 -198.5 -82t-79.5 -211q0 -128 80 -211t198 -83q110 0 172.5 68.5t73.5 172.5h-302v52h364q0 -153 -82 -249t-229 -96z" horiz-adv-x="746" unicode="" glyph-name="Gcommaaccent.alt1"/>
<glyph d="M521 728h-40l-86 113l-84 -113h-40l97 144h54zM393 -13q-141 0 -238 97t-97 249t97.5 248.5t240.5 96.5q152 0 251 -114l-43 -31q-36 43 -90.5 68t-117.5 25q-119 0 -198.5 -82t-79.5 -211q0 -128 80 -211t198 -83q110 0 172.5 68.5t73.5 172.5h-302v52h364 q0 -153 -82 -249t-229 -96z" horiz-adv-x="746" unicode="" glyph-name="Gcircumflex.alt1"/>
<glyph d="M394 732q-16 0 -27 11t-11 27t11 27t27 11q15 0 26 -11t11 -27t-11 -27t-26 -11zM393 -13q-141 0 -238 97t-97 249t97.5 248.5t240.5 96.5q152 0 251 -114l-43 -31q-36 43 -90.5 68t-117.5 25q-119 0 -198.5 -82t-79.5 -211q0 -128 80 -211t198 -83q110 0 172.5 68.5 t73.5 172.5h-302v52h364q0 -153 -82 -249t-229 -96z" horiz-adv-x="746" unicode="" glyph-name="Gdotaccent.alt1"/>
<glyph d="M521 694q-65 -88 -175 -88q-109 0 -176 88l29 25q54 -75 147 -75q92 0 147 75zM343 -12q-123 0 -206 80.5t-83 206.5t83.5 206.5t207.5 80.5q129 0 216 -94l-40 -32q-70 77 -176 77q-100 0 -167 -67t-67 -171t67 -171.5t167 -67.5q81 0 138 52t67 141h-228v48h287 q0 -128 -73 -208.5t-193 -80.5z" horiz-adv-x="646" unicode="" glyph-name="Gbreve.smcp.alt1"/>
<glyph d="M394 -137q0 -38 -19 -72.5t-48 -55.5l-27 22q23 17 38.5 42t16.5 47q-7 -1 -10 -1q-16 0 -26 11t-10 27t11 27.5t27 11.5q20 0 33.5 -16t13.5 -43zM343 -12q-123 0 -206 80.5t-83 206.5t83.5 206.5t207.5 80.5q129 0 216 -94l-40 -32q-70 77 -176 77q-100 0 -167 -67 t-67 -171t67 -171.5t167 -67.5q81 0 138 52t67 141h-228v48h287q0 -128 -73 -208.5t-193 -80.5z" horiz-adv-x="647" unicode="" glyph-name="Gcommaaccent.smcp.alt1"/>
<glyph d="M343 -12q-123 0 -206 80.5t-83 206.5t83.5 206.5t207.5 80.5q129 0 216 -94l-40 -32q-70 77 -176 77q-100 0 -167 -67t-67 -171t67 -171.5t167 -67.5q81 0 138 52t67 141h-228v48h287q0 -128 -73 -208.5t-193 -80.5zM472 606h-40l-86 113l-84 -113h-40l97 144h54z" horiz-adv-x="630" unicode="" glyph-name="Gcircumflex.smcp.alt1"/>
<glyph d="M343 -12q-123 0 -206 80.5t-83 206.5t83.5 206.5t207.5 80.5q129 0 216 -94l-40 -32q-70 77 -176 77q-100 0 -167 -67t-67 -171t67 -171.5t167 -67.5q81 0 138 52t67 141h-228v48h287q0 -128 -73 -208.5t-193 -80.5zM347 635q-16 0 -27 11t-11 27t11 27t27 11 q15 0 26 -11t11 -27t-11 -27t-26 -11z" horiz-adv-x="630" unicode="" glyph-name="Gdotaccent.smcp.alt1"/>
<glyph d="M305 -12q-90 0 -150 60l-29 -48h-51l50 83q-67 97 -67 250q0 63 14 121.5t41.5 109.5t77 82t114.5 31q86 0 147 -58l30 48h51l-51 -83q69 -98 69 -251q0 -62 -14 -121t-42 -110.5t-77 -82.5t-113 -31zM305 40q50 0 87.5 26t58 69.5t30 93t9.5 104.5q0 121 -40 198 l-266 -435q46 -56 121 -56zM118 333q0 -120 40 -197l265 435q-46 54 -118 54q-51 0 -88.5 -25.5t-58 -69t-30.5 -93t-10 -104.5z" horiz-adv-x="608" unicode="" glyph-name="zero.pzero"/>
<glyph d="M285 425q0 -58 -36.5 -96.5t-93.5 -38.5q-56 0 -92.5 38.5t-36.5 96.5t36.5 97.5t92.5 39.5q57 0 93.5 -39.5t36.5 -97.5zM556 124q0 -58 -36.5 -97t-92.5 -39t-92.5 39t-36.5 97q0 59 36 98t93 39t93 -39t36 -98zM506 550l-384 -550h-44l382 550h46zM244 425 q0 43 -24.5 73t-64.5 30q-38 0 -63 -30t-25 -73t25 -72t63 -29q40 0 64.5 29t24.5 72zM515 124q0 44 -24.5 73t-63.5 29t-63.5 -29t-24.5 -73q0 -42 24.5 -71.5t63.5 -29.5t63.5 29.5t24.5 71.5zM840 124q0 -58 -36.5 -97t-92.5 -39q-55 0 -92 40t-37 96q0 59 36.5 98 t92.5 39q57 0 93 -39t36 -98zM800 124q0 44 -24.5 73t-64.5 29q-39 0 -63.5 -29t-24.5 -73q0 -42 24.5 -71.5t63.5 -29.5q40 0 64.5 29.5t24.5 71.5z" horiz-adv-x="867" unicode="" glyph-name="perthousand.onum"/>
<glyph d="M303 -12q-89 0 -151 60l-29 -48h-50l50 83q-67 97 -67 250q0 63 14 121.5t41.5 109.5t77 82t114.5 31q86 0 147 -58l30 48h50l-50 -82q69 -98 69 -252q0 -62 -14 -121t-42 -110.5t-77 -82.5t-113 -31zM303 40q50 0 87.5 26t58 69.5t30 93t9.5 104.5q0 120 -41 199 l-265 -436q46 -56 121 -56zM116 333q0 -120 40 -197l265 435q-46 54 -118 54q-51 0 -88.5 -25.5t-58 -69t-30.5 -93t-10 -104.5z" horiz-adv-x="604" unicode="" glyph-name="zero.tzero"/>
<glyph d="M295 -12q-64 0 -114 31t-77.5 82.5t-41.5 110t-14 121.5t14 121.5t41.5 109.5t77 82t114.5 31q64 0 113 -31t77 -82t42 -109.5t14 -121.5q0 -62 -14 -121t-42 -110.5t-77 -82.5t-113 -31zM295 40q50 0 87.5 26t58 69.5t30 93t9.5 104.5t-9.5 104.5t-30 93t-58 69 t-87.5 25.5q-51 0 -88.5 -25.5t-58 -69t-30.5 -93t-10 -104.5t10 -104.5t30.5 -93t58 -69.5t88.5 -26z" horiz-adv-x="588" unicode="" glyph-name="zero.tnum"/>
<glyph d="M509 0h-440v47q80 65 128 105t102 91t82.5 88.5t47.5 78.5t19 79q0 67 -45.5 101.5t-106.5 34.5q-60 0 -107.5 -23.5t-75.5 -63.5l-39 36q36 48 94 75.5t128 27.5q83 0 146.5 -48t63.5 -140q0 -53 -25 -106t-79 -111.5t-105.5 -104t-138.5 -115.5h351v-52z" horiz-adv-x="588" unicode="" glyph-name="two.tnum"/>
<glyph d="M294 -12q-77 0 -136 31.5t-91 79.5l39 34q65 -93 187 -93q77 0 122.5 38t45.5 104q0 69 -49.5 102.5t-129.5 33.5q-42 0 -62 -2v54q10 -1 62 -1q72 0 120.5 32t48.5 95q0 60 -46 94.5t-114 34.5q-103 0 -179 -85l-36 36q83 101 218 101q91 0 153 -47t62 -129 q0 -47 -25 -83t-55 -51.5t-63 -21.5q54 -6 103.5 -49t49.5 -117q0 -84 -60.5 -137.5t-164.5 -53.5z" horiz-adv-x="588" unicode="" glyph-name="three.tnum"/>
<glyph d="M430 0h-57v182h-316v51l296 434h77v-433h98v-52h-98v-182zM373 234v376l-257 -376h257z" horiz-adv-x="588" unicode="" glyph-name="four.tnum"/>
<glyph d="M302 -12q-149 0 -225 109l38 38q67 -95 187 -95q72 0 119.5 46t47.5 115q0 75 -46.5 119t-119.5 44q-91 0 -162 -65l-43 18v350h385v-52h-328v-261q64 62 159 62q89 0 151 -56.5t62 -156.5q0 -97 -65 -156t-160 -59z" horiz-adv-x="588" unicode="" glyph-name="five.tnum"/>
<glyph d="M309 -12q-52 0 -94 19t-70 51t-46.5 76.5t-26.5 93.5t-8 105q0 91 24.5 166t84 126.5t146.5 51.5q112 0 180 -85l-33 -41q-57 74 -147 74q-52 0 -91.5 -25.5t-61.5 -68.5t-33 -93t-11 -106q0 -21 1 -31q25 41 79 76t116 35q95 0 155 -54.5t60 -156.5q0 -87 -61 -150 t-163 -63zM307 40q79 0 123.5 49.5t44.5 110.5q0 79 -46 120t-121 41q-54 0 -103.5 -31.5t-78.5 -82.5q4 -51 22 -95t59 -78t100 -34z" horiz-adv-x="588" unicode="" glyph-name="six.tnum"/>
<glyph d="M228 0h-63l280 615h-369v52h437v-40z" horiz-adv-x="588" unicode="" glyph-name="seven.tnum"/>
<glyph d="M294 -12q-98 0 -162.5 49.5t-64.5 129.5q0 65 48 111.5t118 65.5q-66 18 -110.5 58.5t-44.5 102.5q0 83 64.5 127.5t151.5 44.5q86 0 151 -44.5t65 -127.5q0 -62 -44.5 -102.5t-110.5 -58.5q70 -19 118 -65.5t48 -111.5q0 -80 -64.5 -129.5t-162.5 -49.5zM294 368 q22 4 43 11.5t50 22t47 40t18 57.5q0 58 -45 92t-113 34t-113 -34t-45 -92q0 -32 18 -57.5t47 -40.5t50 -22t43 -11zM294 40q68 0 118.5 36.5t50.5 94.5q0 36 -20 65t-50 45.5t-55 25.5t-44 11q-19 -2 -44.5 -11t-55 -25.5t-49.5 -45.5t-20 -65q0 -59 49.5 -95t119.5 -36z " horiz-adv-x="588" unicode="" glyph-name="eight.tnum"/>
<glyph d="M269 -11q-112 0 -180 85l34 41q57 -74 146 -74q53 0 92.5 25.5t61.5 69t32.5 93t10.5 105.5v31q-25 -41 -79.5 -76t-116.5 -35q-95 0 -155 54.5t-60 156.5q0 87 61 150t163 63q52 0 94 -19t70 -51t46.5 -76.5t26.5 -93.5t8 -105q0 -53 -8.5 -101.5t-28.5 -93.5 t-48.5 -77.5t-72.5 -52t-97 -19.5zM280 305q54 0 103.5 31.5t78.5 82.5q-4 51 -21.5 95t-59 78t-100.5 34q-79 0 -123.5 -49.5t-44.5 -110.5q0 -79 46 -120t121 -41z" horiz-adv-x="588" unicode="" glyph-name="nine.tnum"/>
<glyph d="M285 425q0 -58 -36.5 -96.5t-93.5 -38.5q-56 0 -92.5 38.5t-36.5 96.5t36.5 97.5t92.5 39.5q57 0 93.5 -39.5t36.5 -97.5zM556 124q0 -58 -36.5 -97t-92.5 -39t-92.5 39t-36.5 97q0 59 36 98t93 39t93 -39t36 -98zM506 550l-384 -550h-45l383 550h46zM244 425 q0 43 -24.5 73t-64.5 30q-38 0 -63 -30t-25 -73t25 -72t63 -29q40 0 64.5 29t24.5 72zM515 124q0 44 -24.5 73t-63.5 29t-63.5 -29t-24.5 -73q0 -42 24.5 -71.5t63.5 -29.5t63.5 29.5t24.5 71.5z" horiz-adv-x="582" unicode="" glyph-name="percent.onum"/>
<glyph d="M541 275q0 -74 -24.5 -137t-82 -106.5t-139.5 -43.5q-83 0 -140.5 43.5t-82 106.5t-24.5 137q0 55 14.5 104.5t43.5 91.5t77.5 66.5t111.5 24.5q82 0 139.5 -43.5t82 -106.5t24.5 -137zM480 275q0 98 -46 166.5t-139 68.5q-94 0 -140.5 -69t-46.5 -166t46.5 -166 t140.5 -69q93 0 139 69t46 166z" horiz-adv-x="588" unicode="" glyph-name="zero.tonum"/>
<glyph d="M372 0h-57v472l-107 -114l-35 37l147 155h52v-550z" horiz-adv-x="588" unicode="" glyph-name="one.tonum"/>
<glyph d="M496 0h-415v48q183 80 275.5 163.5t92.5 165.5q0 58 -44 95.5t-107 37.5q-61 0 -111.5 -23.5t-78.5 -63.5l-39 36q34 48 96.5 75.5t133.5 27.5q87 0 147 -49.5t60 -129.5q0 -93 -87.5 -181t-228.5 -150h306v-52z" horiz-adv-x="588" unicode="" glyph-name="two.tonum"/>
<glyph d="M294 -136q-77 0 -136 31.5t-91 79.5l39 34q65 -93 187 -93q77 0 122.5 38t45.5 104q0 69 -49.5 102.5t-129.5 33.5q-42 0 -62 -2v54q10 -1 62 -1q72 0 120.5 32t48.5 95q0 60 -46 94.5t-114 34.5q-103 0 -179 -85l-36 36q83 101 218 101q91 0 153 -47t62 -129 q0 -47 -25 -83t-55 -51.5t-63 -21.5q54 -6 103.5 -49t49.5 -117q0 -84 -60.5 -137.5t-164.5 -53.5z" horiz-adv-x="588" unicode="" glyph-name="three.tonum"/>
<glyph d="M528 66h-98v-183h-57v183h-316v52l296 432h77v-432h98v-52zM373 118v375l-257 -375h257z" horiz-adv-x="588" unicode="" glyph-name="four.tonum"/>
<glyph d="M302 -129q-149 0 -225 109l38 38q67 -95 187 -95q72 0 119.5 46t47.5 115q0 75 -46.5 119t-119.5 44q-91 0 -162 -65l-43 18v350h385v-52h-328v-261q64 62 159 62q89 0 151 -56.5t62 -156.5q0 -97 -65 -156t-160 -59z" horiz-adv-x="588" unicode="" glyph-name="five.tonum"/>
<glyph d="M309 -12q-52 0 -94 19t-70 51t-46.5 76.5t-26.5 93.5t-8 105q0 91 24.5 166t84 126.5t146.5 51.5q112 0 180 -85l-33 -41q-57 74 -147 74q-52 0 -91.5 -25.5t-61.5 -68.5t-33 -93t-11 -106q0 -21 1 -31q25 41 79 76t116 35q95 0 155 -54.5t60 -156.5q0 -87 -61 -150 t-163 -63zM307 40q79 0 123.5 49.5t44.5 110.5q0 79 -46 120t-121 41q-54 0 -103.5 -31.5t-78.5 -82.5q4 -51 22 -95t59 -78t100 -34z" horiz-adv-x="588" unicode="" glyph-name="six.tonum"/>
<glyph d="M228 -117h-63l280 615h-369v52h437v-40z" horiz-adv-x="588" unicode="" glyph-name="seven.tonum"/>
<glyph d="M294 -12q-98 0 -162.5 49.5t-64.5 129.5q0 65 48 111.5t118 65.5q-66 18 -110.5 58.5t-44.5 102.5q0 83 64.5 127.5t151.5 44.5q86 0 151 -44.5t65 -127.5q0 -62 -44.5 -102.5t-110.5 -58.5q70 -19 118 -65.5t48 -111.5q0 -80 -64.5 -129.5t-162.5 -49.5zM294 368 q22 4 43 11.5t50 22t47 40t18 57.5q0 58 -45 92t-113 34t-113 -34t-45 -92q0 -32 18 -57.5t47 -40.5t50 -22t43 -11zM294 40q68 0 118.5 36.5t50.5 94.5q0 36 -20 65t-50 45.5t-55 25.5t-44 11q-19 -2 -44.5 -11t-55 -25.5t-49.5 -45.5t-20 -65q0 -59 49.5 -95t119.5 -36z " horiz-adv-x="588" unicode="" glyph-name="eight.tonum"/>
<glyph d="M269 -127q-112 0 -180 85l34 41q57 -74 146 -74q53 0 92.5 25.5t61.5 69t32.5 93t10.5 105.5v31q-25 -41 -79.5 -76t-116.5 -35q-95 0 -155 54.5t-60 156.5q0 87 61 150t163 63q52 0 94 -19t70 -51t46.5 -76.5t26.5 -93.5t8 -105q0 -53 -8.5 -101.5t-28.5 -93.5 t-48.5 -77.5t-72.5 -52t-97 -19.5zM280 189q54 0 103.5 31.5t78.5 82.5q-4 51 -21.5 95t-59 78t-100.5 34q-79 0 -123.5 -49.5t-44.5 -110.5q0 -79 46 -120t121 -41z" horiz-adv-x="588" unicode="" glyph-name="nine.tonum"/>
<glyph d="M250 -53l17 50q-31 7 -63 23l-24 -73h-37l31 92q-56 38 -88 99.5t-32 137.5q0 125 83 205.5t207 80.5h6l13 37h36l-14 -40q32 -4 64 -17l19 57h38l-25 -74q42 -26 74 -65l-43 -27q-20 26 -47 44l-148 -439q9 -1 27 -1q51 0 97 21.5t71 58.5l44 -27q-83 -102 -212 -102 q-22 0 -43 3l-15 -44h-36zM111 276q0 -116 81 -184l142 421q-96 -4 -159.5 -70.5t-63.5 -166.5zM221 70q31 -18 62 -25l150 450q-33 13 -64 16z" horiz-adv-x="581" unicode="" glyph-name="colonmonetary.onum"/>
<glyph d="M415 318h-272q-3 -21 -3 -42q0 -24 3 -45h272v-37h-262q23 -72 82.5 -114.5t137.5 -42.5q51 0 97 21.5t71 58.5l44 -27q-83 -102 -212 -102q-101 0 -178 56t-102 150h-58v37h51q-3 21 -3 45q0 28 2 42h-50v38h58q25 94 101.5 150t178.5 56q130 0 211 -102l-43 -27 q-28 37 -72.5 58.5t-95.5 21.5q-78 0 -138 -43t-83 -114h263v-38z" horiz-adv-x="610" unicode="" glyph-name="Euro.onum"/>
<glyph d="M84 -119h-58l76 340h-54v41h62l34 150q33 149 141 149q48 0 79 -30l-28 -41q-15 19 -45 19q-67 0 -89 -102l-33 -145h117v-41h-126z" horiz-adv-x="354" unicode="" glyph-name="florin.onum"/>
<glyph d="M464 390l-11 -37h-91l-52 -152h94l-12 -39h-95l-54 -162h-45l55 162h-97l-53 -162h-46l55 162h-88l12 39h89l52 152h-91l11 37h92l54 160h45l-55 -160h96l55 160h45l-55 -160h90zM316 353h-95l-52 -152h96z" horiz-adv-x="488" unicode="" glyph-name="numbersign.onum"/>
<glyph d="M14 223v39h83q-18 25 -28 41t-20 43.5t-10 55.5q0 67 50.5 113t126.5 46q50 0 93 -24t63 -63l-41 -24q-34 69 -112 69q-52 0 -89.5 -32.5t-37.5 -84.5q0 -13 3.5 -27.5t6 -23t12.5 -25t12.5 -20.5t16 -23.5t14.5 -20.5h137v-39h-112q16 -34 16 -59q0 -66 -58 -101 q9 3 22 3q31 0 73 -15.5t63 -15.5q24 0 47.5 9.5t34.5 22.5l27 -40q-41 -39 -111 -39q-37 0 -73.5 17.5t-70.5 17.5t-96 -32l-21 44q114 48 114 122q0 29 -23 66h-112z" horiz-adv-x="415" unicode="" glyph-name="sterling.onum"/>
<glyph d="M299 0h-55v116h-221v38h221v80h-221v39h193l-204 277h66l194 -266l190 266h65l-201 -277h189v-39h-216v-80h216v-38h-216v-116z" horiz-adv-x="539" unicode="" glyph-name="yen.onum"/>
<glyph d="M321 -96v85q-116 8 -191.5 87.5t-75.5 199.5q0 119 75.5 198t191.5 87v56h43v-56q115 -7 191 -101l-43 -27q-52 69 -148 79v-474q46 4 85.5 25t62.5 54l44 -27q-76 -94 -192 -101v-85h-43zM111 276q0 -97 59.5 -163.5t150.5 -74.5v474q-91 -8 -150.5 -73.5t-59.5 -162.5z " horiz-adv-x="581" unicode="" glyph-name="cent.onum"/>
<glyph d="M349 200q0 -51 -15 -96.5t-52 -78t-90 -32.5q-78 0 -117.5 62.5t-39.5 144.5q0 83 39.5 144.5t117.5 61.5t117.5 -62t39.5 -144zM302 200q0 71 -26.5 119.5t-83.5 48.5q-58 0 -84.5 -48.5t-26.5 -119.5t27 -120t84 -49t83.5 49t26.5 120z" unicode="" glyph-name="zero.dnom"/>
<glyph d="M154 0h-46v341l-64 -69l-27 29l97 99h40v-400z" horiz-adv-x="214" unicode="" glyph-name="one.dnom"/>
<glyph d="M333 0h-281v35q122 87 178.5 144.5t56.5 109.5q0 40 -27 59.5t-66 19.5q-77 0 -113 -52l-27 28q48 62 141 62q55 0 95.5 -29t40.5 -86q0 -60 -54.5 -119t-158.5 -134h215v-38z" unicode="" glyph-name="two.dnom"/>
<glyph d="M335 108q0 -51 -39 -83t-106 -32q-49 0 -87 18t-57 47l26 28q42 -55 117 -55q46 0 73 21t27 57q0 40 -30.5 59.5t-79.5 19.5q-32 0 -38 -1v38q7 -1 38 -1q46 0 75 17.5t29 55.5q0 33 -27.5 52t-68.5 19q-65 0 -111 -50l-25 27q52 61 139 61q60 0 99 -28.5t39 -77.5 q0 -41 -28 -64.5t-61 -28.5q34 -3 65 -28.5t31 -70.5z" unicode="" glyph-name="three.dnom"/>
<glyph d="M343 107h-60v-107h-44v107h-196v35l179 258h61v-256h60v-37zM239 144v215l-150 -215h150z" unicode="" glyph-name="four.dnom"/>
<glyph d="M335 124q0 -59 -41 -95t-103 -36q-96 0 -143 65l27 30q42 -57 116 -57q44 0 72 26t28 65q0 42 -27.5 67.5t-71.5 25.5q-58 0 -99 -40l-33 13v212h248v-38h-203v-149q38 38 99 38q55 0 93 -33.5t38 -93.5z" unicode="" glyph-name="five.dnom"/>
<glyph d="M342 122q0 -53 -39.5 -91t-103.5 -38q-80 0 -118.5 58.5t-38.5 148.5q0 87 41.5 146.5t123.5 59.5q68 0 113 -48l-23 -32q-36 42 -90 42q-60 0 -90 -47.5t-31 -114.5q0 -14 1 -20q16 24 49 44.5t71 20.5q59 0 97 -33.5t38 -95.5zM297 121q0 46 -27.5 69.5t-72.5 23.5 q-31 0 -60.5 -17.5t-47.5 -46.5q4 -49 31 -84t78 -35q46 0 72.5 28t26.5 62z" unicode="" glyph-name="six.dnom"/>
<glyph d="M315 369l-174 -369h-49l173 362h-230v38h280v-31z" horiz-adv-x="359" unicode="" glyph-name="seven.dnom"/>
<glyph d="M338 101q0 -49 -42 -78.5t-104 -29.5t-104 29t-42 79q0 39 30 66.5t74 38.5q-41 10 -69 34.5t-28 60.5q0 52 41.5 78.5t97.5 26.5t97.5 -26.5t41.5 -78.5q0 -37 -27.5 -61t-68.5 -34q43 -11 73 -38.5t30 -66.5zM287 298q0 33 -27 52t-68 19t-68 -19t-27 -52q0 -54 95 -76 q95 21 95 76zM293 104q0 39 -35.5 60t-65.5 25q-17 -2 -37.5 -9.5t-42.5 -28t-22 -47.5q0 -34 30 -54.5t72 -20.5t71.5 20.5t29.5 54.5z" unicode="" glyph-name="eight.dnom"/>
<glyph d="M42 277q0 53 39 91t104 38q80 0 118.5 -58.5t38.5 -148.5q0 -87 -41.5 -146.5t-122.5 -59.5q-69 0 -114 48l23 32q34 -42 91 -42q59 0 88.5 47.5t30.5 115.5v19q-17 -24 -50 -44.5t-69 -20.5q-59 0 -97.5 33.5t-38.5 95.5zM87 278q0 -45 27.5 -69t71.5 -24q32 0 62 18 t47 47q-4 48 -31 83t-78 35q-46 0 -72.5 -28t-26.5 -62z" unicode="" glyph-name="nine.dnom"/>
<glyph d="M349 467q0 -51 -15 -96.5t-52 -78t-90 -32.5q-78 0 -117.5 62.5t-39.5 144.5q0 83 39.5 144.5t117.5 61.5t117.5 -62t39.5 -144zM302 467q0 71 -26.5 119.5t-83.5 48.5q-58 0 -84.5 -48.5t-26.5 -119.5t27 -120t84 -49t83.5 49t26.5 120z" unicode="" glyph-name="zero.numr"/>
<glyph d="M154 267h-46v341l-64 -69l-27 29l97 99h40v-400z" horiz-adv-x="214" unicode="" glyph-name="one.numr"/>
<glyph d="M333 267h-281v35q122 87 178.5 144.5t56.5 109.5q0 40 -27 59.5t-66 19.5q-77 0 -113 -52l-27 28q48 62 141 62q55 0 95.5 -29t40.5 -86q0 -60 -54.5 -119t-158.5 -134h215v-38z" unicode="" glyph-name="two.numr"/>
<glyph d="M335 375q0 -51 -39 -83t-106 -32q-49 0 -87 18t-57 47l26 28q42 -55 117 -55q46 0 73 21t27 57q0 40 -30.5 59.5t-79.5 19.5q-32 0 -38 -1v38q7 -1 38 -1q46 0 75 17.5t29 55.5q0 33 -27.5 52t-68.5 19q-65 0 -111 -50l-25 27q52 61 139 61q60 0 99 -28.5t39 -77.5 q0 -41 -28 -64.5t-61 -28.5q34 -3 65 -28.5t31 -70.5z" unicode="" glyph-name="three.numr"/>
<glyph d="M343 374h-60v-107h-44v107h-196v35l179 258h61v-256h60v-37zM239 411v215l-150 -215h150z" unicode="" glyph-name="four.numr"/>
<glyph d="M335 391q0 -59 -41 -95t-103 -36q-96 0 -143 65l27 30q42 -57 116 -57q44 0 72 26t28 65q0 42 -27.5 67.5t-71.5 25.5q-58 0 -99 -40l-33 13v212h248v-38h-203v-149q38 38 99 38q55 0 93 -33.5t38 -93.5z" unicode="" glyph-name="five.numr"/>
<glyph d="M342 389q0 -53 -39.5 -91t-103.5 -38q-80 0 -118.5 58.5t-38.5 148.5q0 87 41.5 146.5t123.5 59.5q68 0 113 -48l-23 -32q-36 42 -90 42q-60 0 -90 -47.5t-31 -114.5q0 -14 1 -20q16 24 49 44.5t71 20.5q59 0 97 -33.5t38 -95.5zM297 388q0 46 -27.5 69.5t-72.5 23.5 q-31 0 -60.5 -17.5t-47.5 -46.5q4 -49 31 -84t78 -35q46 0 72.5 28t26.5 62z" unicode="" glyph-name="six.numr"/>
<glyph d="M315 636l-174 -369h-49l173 362h-230v38h280v-31z" horiz-adv-x="359" unicode="" glyph-name="seven.numr"/>
<glyph d="M338 368q0 -49 -42 -78.5t-104 -29.5t-104 29t-42 79q0 39 30 66.5t74 38.5q-41 10 -69 34.5t-28 60.5q0 52 41.5 78.5t97.5 26.5t97.5 -26.5t41.5 -78.5q0 -37 -27.5 -61t-68.5 -34q43 -11 73 -38.5t30 -66.5zM287 565q0 33 -27 52t-68 19t-68 -19t-27 -52q0 -54 95 -76 q95 21 95 76zM293 371q0 39 -35.5 60t-65.5 25q-17 -2 -37.5 -9.5t-42.5 -28t-22 -47.5q0 -34 30 -54.5t72 -20.5t71.5 20.5t29.5 54.5z" unicode="" glyph-name="eight.numr"/>
<glyph d="M42 544q0 53 39 91t104 38q80 0 118.5 -58.5t38.5 -148.5q0 -87 -41.5 -146.5t-122.5 -59.5q-69 0 -114 48l23 32q34 -42 91 -42q59 0 88.5 47.5t30.5 115.5v19q-17 -24 -50 -44.5t-69 -20.5q-59 0 -97.5 33.5t-38.5 95.5zM87 545q0 -45 27.5 -69t71.5 -24q32 0 62 18 t47 47q-4 48 -31 83t-78 35q-46 0 -72.5 -28t-26.5 -62z" unicode="" glyph-name="nine.numr"/>
<glyph d="M249 550h64l237 -550h-62l-58 133h-299l-56 -133h-63zM412 182l-131 308l-132 -308h263zM457 694q-65 -88 -175 -88q-109 0 -176 88l29 25q54 -75 147 -75q92 0 147 75z" horiz-adv-x="562" unicode="" glyph-name="Abreve.smcp"/>
<glyph d="M249 550h64l237 -550h-62l-58 133h-299l-56 -133h-63zM412 182l-131 308l-132 -308h263zM463 630h-363v38h363v-38z" horiz-adv-x="562" unicode="" glyph-name="Amacron.smcp"/>
<glyph d="M249 550h64l237 -550h-1q-79 -38 -79 -99q0 -54 48 -54q41 0 55 44l31 -16q-26 -61 -86 -61q-37 0 -61 21.5t-24 63.5q0 58 56 101h-1l-58 133h-299l-56 -133h-63zM412 182l-131 308l-132 -308h263z" horiz-adv-x="562" unicode="" glyph-name="Aogonek.smcp"/>
<glyph d="M569 750l-172 -144h-44l154 144h62zM755 0h-369v133h-227l-84 -133h-63l355 550h388v-49h-313v-194h307v-49h-307v-209h313v-49zM386 182v308l-198 -308h198z" horiz-adv-x="811" unicode="" glyph-name="AEacute.smcp"/>
<glyph d="M344 -12q-124 0 -207 81t-83 207q0 125 83 205.5t207 80.5q130 0 211 -102l-43 -27q-28 37 -72.5 58.5t-95.5 21.5q-99 0 -166 -67t-67 -170t67 -171t166 -68q51 0 97 21.5t71 58.5l44 -27q-83 -102 -212 -102zM502 750l-172 -144h-44l154 144h62z" horiz-adv-x="581" unicode="" glyph-name="Cacute.smcp"/>
<glyph d="M344 -12q-124 0 -207 81t-83 207q0 125 83 205.5t207 80.5q130 0 211 -102l-43 -27q-28 37 -72.5 58.5t-95.5 21.5q-99 0 -166 -67t-67 -170t67 -171t166 -68q51 0 97 21.5t71 58.5l44 -27q-83 -102 -212 -102zM376 606h-54l-100 144h40l86 -113l84 113h40z" horiz-adv-x="581" unicode="" glyph-name="Ccaron.smcp"/>
<glyph d="M344 -12q-124 0 -207 81t-83 207q0 125 83 205.5t207 80.5q130 0 211 -102l-43 -27q-28 37 -72.5 58.5t-95.5 21.5q-99 0 -166 -67t-67 -170t67 -171t166 -68q51 0 97 21.5t71 58.5l44 -27q-83 -102 -212 -102zM472 606h-40l-86 113l-84 -113h-40l97 144h54z" horiz-adv-x="581" unicode="" glyph-name="Ccircumflex.smcp"/>
<glyph d="M344 -12q-124 0 -207 81t-83 207q0 125 83 205.5t207 80.5q130 0 211 -102l-43 -27q-28 37 -72.5 58.5t-95.5 21.5q-99 0 -166 -67t-67 -170t67 -171t166 -68q51 0 97 21.5t71 58.5l44 -27q-83 -102 -212 -102zM347 635q-16 0 -27 11t-11 27t11 27t27 11q15 0 26 -11 t11 -27t-11 -27t-26 -11z" horiz-adv-x="581" unicode="" glyph-name="Cdotaccent.smcp"/>
<glyph d="M252 0h-185v550h185q131 0 211 -79.5t80 -196.5t-79.5 -195.5t-211.5 -78.5zM252 49q108 0 170.5 64t62.5 161q0 98 -62 162.5t-171 64.5h-130v-452h130zM321 606h-54l-100 144h40l86 -113l84 113h40z" horiz-adv-x="611" unicode="" glyph-name="Dcaron.smcp"/>
<glyph d="M264 0h-185v260h-68v39h68v251h185q131 0 211 -79.5t80 -196.5t-79.5 -195.5t-211.5 -78.5zM276 260h-142v-211h130q108 0 170.5 64t62.5 161q0 98 -62 162.5t-171 64.5h-130v-202h142v-39z" horiz-adv-x="622" unicode="" glyph-name="Dcroat.smcp"/>
<glyph d="M449 0h-368v550h368v-49h-313v-194h308v-49h-308v-209h313v-49zM438 694q-65 -88 -175 -88q-109 0 -176 88l29 25q54 -75 147 -75q92 0 147 75z" horiz-adv-x="505" unicode="" glyph-name="Ebreve.smcp"/>
<glyph d="M449 0h-368v550h368v-49h-313v-194h308v-49h-308v-209h313v-49zM295 606h-54l-100 144h40l86 -113l84 113h40z" horiz-adv-x="505" unicode="" glyph-name="Ecaron.smcp"/>
<glyph d="M449 0h-368v550h368v-49h-313v-194h308v-49h-308v-209h313v-49zM270 635q-16 0 -27 11t-11 27t11 27t27 11q15 0 26 -11t11 -27t-11 -27t-26 -11z" horiz-adv-x="505" unicode="" glyph-name="Edotaccent.smcp"/>
<glyph d="M449 0h-368v550h368v-49h-313v-194h308v-49h-308v-209h313v-49zM443 630h-363v38h363v-38z" horiz-adv-x="505" unicode="" glyph-name="Emacron.smcp"/>
<glyph d="M366 -196q-92 0 -148 71l31 40q47 -62 115 -62q57 0 91 34.5t34 89.5v24l-353 463v-464h-55v550h56l352 -457v457h55v-576q0 -83 -49.5 -126.5t-128.5 -43.5z" horiz-adv-x="625" unicode="" glyph-name="Eng.smcp"/>
<glyph d="M472 -109l31 -16q-26 -61 -86 -61q-37 0 -61 21.5t-24 63.5q0 58 56 101h-307v550h368v-49h-313v-194h308v-49h-308v-209h313v-49h-1q-79 -38 -79 -99q0 -54 48 -54q41 0 55 44z" horiz-adv-x="505" unicode="" glyph-name="Eogonek.smcp"/>
<glyph d="M345 -12q-124 0 -207.5 80.5t-83.5 206.5t83.5 206.5t207.5 80.5q129 0 216 -94l-40 -32q-70 77 -176 77q-100 0 -167 -67t-67 -171t67 -171.5t167 -67.5q94 0 163 65v128h-186v48h241v-196q-86 -93 -218 -93zM521 694q-65 -88 -175 -88q-109 0 -176 88l29 25 q54 -75 147 -75q92 0 147 75z" horiz-adv-x="630" unicode="" glyph-name="Gbreve.smcp"/>
<glyph d="M345 -12q-124 0 -207.5 80.5t-83.5 206.5t83.5 206.5t207.5 80.5q129 0 216 -94l-40 -32q-70 77 -176 77q-100 0 -167 -67t-67 -171t67 -171.5t167 -67.5q94 0 163 65v128h-186v48h241v-196q-86 -93 -218 -93zM470 606h-40l-86 113l-84 -113h-40l97 144h54z" horiz-adv-x="630" unicode="" glyph-name="Gcircumflex.smcp"/>
<glyph d="M345 -12q-124 0 -207.5 80.5t-83.5 206.5t83.5 206.5t207.5 80.5q129 0 216 -94l-40 -32q-70 77 -176 77q-100 0 -167 -67t-67 -171t67 -171.5t167 -67.5q94 0 163 65v128h-186v48h241v-196q-86 -93 -218 -93zM394 -137q0 -38 -19 -72.5t-48 -55.5l-27 22q23 17 38.5 42 t16.5 47q-7 -1 -10 -1q-16 0 -26 11t-10 27t11 27.5t27 11.5q20 0 33.5 -16t13.5 -43z" horiz-adv-x="630" unicode="" glyph-name="Gcommaaccent.smcp"/>
<glyph d="M345 -12q-124 0 -207.5 80.5t-83.5 206.5t83.5 206.5t207.5 80.5q129 0 216 -94l-40 -32q-70 77 -176 77q-100 0 -167 -67t-67 -171t67 -171.5t167 -67.5q94 0 163 65v128h-186v48h241v-196q-86 -93 -218 -93zM347 635q-16 0 -27 11t-11 27t11 27t27 11q15 0 26 -11 t11 -27t-11 -27t-26 -11z" horiz-adv-x="630" unicode="" glyph-name="Gdotaccent.smcp"/>
<glyph d="M548 0h-54v259h-358v-259h-55v550h55v-243h358v243h54v-550zM437 606h-40l-86 113l-84 -113h-40l97 144h54z" horiz-adv-x="629" unicode="" glyph-name="Hcircumflex.smcp"/>
<glyph d="M559 0h-54v259h-358v-259h-55v411h-81v38h81v101h55v-101h358v101h54v-101h79v-38h-79v-411zM147 307h358v104h-358v-104z" horiz-adv-x="650" unicode="" glyph-name="Hbar.smcp"/>
<glyph d="M136 0h-55v550h55v-550zM280 694q-65 -88 -175 -88q-109 0 -176 88l29 25q54 -75 147 -75q92 0 147 75z" horiz-adv-x="215" unicode="" glyph-name="Ibreve.smcp"/>
<glyph d="M136 0h-55v550h55v-550zM374 -12q-93 0 -148 71l31 40q47 -62 114 -62q58 0 92 34t34 89v390h55v-392q0 -83 -50 -126.5t-128 -43.5z" horiz-adv-x="633" unicode="" glyph-name="IJ.smcp"/>
<glyph d="M136 0h-55v550h55v-550zM291 630h-363v38h363v-38z" horiz-adv-x="215" unicode="" glyph-name="Imacron.smcp"/>
<glyph d="M159 -109l31 -16q-26 -61 -86 -61q-37 0 -61 21.5t-24 63.5q0 60 62 105v546h55v-550h-1q-79 -38 -79 -99q0 -54 48 -54q41 0 55 44z" horiz-adv-x="215" unicode="" glyph-name="Iogonek.smcp"/>
<glyph d="M136 0h-55v550h55v-550zM169 593q-25 0 -43.5 16t-27 35t-23 35t-31.5 16q-24 0 -39 -24t-15 -72h-35q0 58 24.5 96t68.5 38q25 0 43.5 -16t27 -35t23 -35t31.5 -16q24 0 39 24t15 72h35q0 -59 -24.5 -96.5t-68.5 -37.5z" horiz-adv-x="215" unicode="" glyph-name="Itilde.smcp"/>
<glyph d="M158 -12q-93 0 -148 71l31 40q47 -62 114 -62q58 0 92 34t34 89v390h55v-392q0 -83 -50 -126.5t-128 -43.5zM433 606h-40l-86 113l-84 -113h-40l97 144h54z" horiz-adv-x="417" unicode="" glyph-name="Jcircumflex.smcp"/>
<glyph d="M501 0h-70l-235 256l-60 -65v-191h-55v550h55v-294l272 294h70l-247 -262zM311 -137q0 -38 -19 -72.5t-48 -55.5l-27 22q23 17 38.5 42t16.5 47q-7 -1 -10 -1q-16 0 -26 11t-10 27t11 27.5t27 11.5q20 0 33.5 -16t13.5 -43z" horiz-adv-x="521" unicode="" glyph-name="Kcommaaccent.smcp"/>
<glyph d="M413 0h-332v550h55v-501h277v-49zM408 750l-172 -144h-44l154 144h62z" horiz-adv-x="454" unicode="" glyph-name="Lacute.smcp"/>
<glyph d="M413 0h-332v550h55v-501h277v-49zM310 501q0 -38 -19 -72.5t-48 -55.5l-27 22q23 17 38.5 42t16.5 47q-7 -1 -10 -1q-16 0 -26 11t-10 27t11 27.5t27 11.5q20 0 33.5 -16t13.5 -43z" horiz-adv-x="454" unicode="" glyph-name="Lcaron.smcp"/>
<glyph d="M413 0h-332v550h55v-501h277v-49zM292 -137q0 -38 -19 -72.5t-48 -55.5l-27 22q23 17 38.5 42t16.5 47q-7 -1 -10 -1q-16 0 -26 11t-10 27t11 27.5t27 11.5q20 0 33.5 -16t13.5 -43z" horiz-adv-x="454" unicode="" glyph-name="Lcommaaccent.smcp"/>
<glyph d="M413 0h-332v550h55v-501h277v-49zM387 290q0 -18 -13 -31t-31 -13t-31 13t-13 31q0 17 13 30t31 13t31 -13t13 -30z" horiz-adv-x="461" unicode="" glyph-name="Ldot.smcp"/>
<glyph d="M544 0h-54l-354 464v-464h-55v550h56l352 -457v457h55v-550zM468 750l-172 -144h-44l154 144h62z" horiz-adv-x="625" unicode="" glyph-name="Nacute.smcp"/>
<glyph d="M544 0h-54l-354 464v-464h-55v550h56l352 -457v457h55v-550zM342 606h-54l-100 144h40l86 -113l84 113h40z" horiz-adv-x="625" unicode="" glyph-name="Ncaron.smcp"/>
<glyph d="M544 0h-54l-354 464v-464h-55v550h56l352 -457v457h55v-550zM355 -137q0 -38 -19 -72.5t-48 -55.5l-27 22q23 17 38.5 42t16.5 47q-7 -1 -10 -1q-16 0 -26 11t-10 27t11 27.5t27 11.5q20 0 33.5 -16t13.5 -43z" horiz-adv-x="625" unicode="" glyph-name="Ncommaaccent.smcp"/>
<glyph d="M333 -12q-125 0 -202 82t-77 205t77 205t202 82t202 -82t77 -205q0 -122 -77.5 -204.5t-201.5 -82.5zM333 37q99 0 160.5 67.5t61.5 170.5q0 104 -61.5 171t-160.5 67q-101 0 -161.5 -67t-60.5 -171q0 -103 61 -170.5t161 -67.5zM510 694q-65 -88 -175 -88 q-109 0 -176 88l29 25q54 -75 147 -75q92 0 147 75z" horiz-adv-x="666" unicode="" glyph-name="Obreve.smcp"/>
<glyph d="M333 -12q-125 0 -202 82t-77 205t77 205t202 82t202 -82t77 -205q0 -122 -77.5 -204.5t-201.5 -82.5zM333 37q99 0 160.5 67.5t61.5 170.5q0 104 -61.5 171t-160.5 67q-101 0 -161.5 -67t-60.5 -171q0 -103 61 -170.5t161 -67.5zM384 750l-115 -144h-37l97 144h55z M523 750l-115 -144h-37l97 144h55z" horiz-adv-x="666" unicode="" glyph-name="Ohungarumlaut.smcp"/>
<glyph d="M333 -12q-125 0 -202 82t-77 205t77 205t202 82t202 -82t77 -205q0 -122 -77.5 -204.5t-201.5 -82.5zM333 37q99 0 160.5 67.5t61.5 170.5q0 104 -61.5 171t-160.5 67q-101 0 -161.5 -67t-60.5 -171q0 -103 61 -170.5t161 -67.5zM515 638h-363v38h363v-38z" horiz-adv-x="666" unicode="" glyph-name="Omacron.smcp"/>
<glyph d="M333 -12q-87 0 -153 41l-21 -29h-51l39 54q-93 82 -93 221q0 123 77 205t202 82q82 0 149 -40l20 28h51l-38 -52q97 -83 97 -223q0 -122 -77.5 -204.5t-201.5 -82.5zM333 37q99 0 160.5 67.5t61.5 170.5q0 112 -70 180l-275 -384q53 -34 123 -34zM111 275q0 -110 67 -177 l274 382q-53 33 -119 33q-101 0 -161.5 -67t-60.5 -171zM492 750l-172 -144h-44l154 144h62z" horiz-adv-x="666" unicode="" glyph-name="Oslashacute.smcp"/>
<glyph d="M484 0h-68l-158 224h-122v-224h-55v550h218q82 0 129 -45.5t47 -116.5q0 -70 -43 -114t-115 -47zM295 273q60 0 91.5 31.5t31.5 83.5q0 51 -32.5 82t-90.5 31h-159v-228h159zM415 750l-172 -144h-44l154 144h62z" horiz-adv-x="533" unicode="" glyph-name="Racute.smcp"/>
<glyph d="M484 0h-68l-158 224h-122v-224h-55v550h218q82 0 129 -45.5t47 -116.5q0 -70 -43 -114t-115 -47zM295 273q60 0 91.5 31.5t31.5 83.5q0 51 -32.5 82t-90.5 31h-159v-228h159zM288 606h-54l-100 144h40l86 -113l84 113h40z" horiz-adv-x="533" unicode="" glyph-name="Rcaron.smcp"/>
<glyph d="M484 0h-68l-158 224h-122v-224h-55v550h218q82 0 129 -45.5t47 -116.5q0 -70 -43 -114t-115 -47zM295 273q60 0 91.5 31.5t31.5 83.5q0 51 -32.5 82t-90.5 31h-159v-228h159zM311 -137q0 -38 -19 -72.5t-48 -55.5l-27 22q23 17 38.5 42t16.5 47q-7 -1 -10 -1 q-16 0 -26 11t-10 27t11 27.5t27 11.5q20 0 33.5 -16t13.5 -43z" horiz-adv-x="533" unicode="" glyph-name="Rcommaaccent.smcp"/>
<glyph d="M250 -12q-137 0 -211 88l34 39q29 -33 76 -56t102 -23q76 0 112.5 31.5t36.5 78.5q0 44 -35.5 69.5t-86 37.5t-101 26t-86 46.5t-35.5 86.5q0 66 55 108t135 42q123 0 197 -79l-32 -38q-59 69 -165 69q-56 0 -94.5 -29t-38.5 -72q0 -32 25.5 -53t64 -30.5t83 -23 t83 -28.5t64 -48.5t25.5 -82.5q0 -69 -52.5 -114t-155.5 -45zM407 750l-172 -144h-44l154 144h62z" horiz-adv-x="499" unicode="" glyph-name="Sacute.smcp"/>
<glyph d="M247 -189q-63 0 -97 29l17 32q34 -28 79 -28q27 0 46 12.5t19 32.5q0 40 -40 40q-25 0 -41 -18l-27 16l22 62q-121 9 -186 87l34 39q29 -33 76 -56t102 -23q76 0 112.5 31.5t36.5 78.5q0 44 -35.5 69.5t-86 37.5t-101 26t-86 46.5t-35.5 86.5q0 66 55 108t135 42 q123 0 197 -79l-32 -38q-59 69 -165 69q-56 0 -94.5 -29t-38.5 -72q0 -32 25.5 -53t64 -30.5t83 -23t83 -28.5t64 -48.5t25.5 -82.5q0 -67 -49.5 -111.5t-146.5 -47.5l-17 -44q16 11 37 11q29 0 47.5 -18t18.5 -48q0 -35 -29 -56.5t-72 -21.5z" horiz-adv-x="499" unicode="" glyph-name="Scedilla.smcp"/>
<glyph d="M250 -12q-137 0 -211 88l34 39q29 -33 76 -56t102 -23q76 0 112.5 31.5t36.5 78.5q0 44 -35.5 69.5t-86 37.5t-101 26t-86 46.5t-35.5 86.5q0 66 55 108t135 42q123 0 197 -79l-32 -38q-59 69 -165 69q-56 0 -94.5 -29t-38.5 -72q0 -32 25.5 -53t64 -30.5t83 -23 t83 -28.5t64 -48.5t25.5 -82.5q0 -69 -52.5 -114t-155.5 -45zM376 606h-40l-86 113l-84 -113h-40l97 144h54z" horiz-adv-x="499" unicode="" glyph-name="Scircumflex.smcp"/>
<glyph d="M250 -12q-137 0 -211 88l34 39q29 -33 76 -56t102 -23q76 0 112.5 31.5t36.5 78.5q0 44 -35.5 69.5t-86 37.5t-101 26t-86 46.5t-35.5 86.5q0 66 55 108t135 42q123 0 197 -79l-32 -38q-59 69 -165 69q-56 0 -94.5 -29t-38.5 -72q0 -32 25.5 -53t64 -30.5t83 -23 t83 -28.5t64 -48.5t25.5 -82.5q0 -69 -52.5 -114t-155.5 -45zM300 -137q0 -38 -19 -72.5t-48 -55.5l-27 22q23 17 38.5 42t16.5 47q-7 -1 -10 -1q-16 0 -26 11t-10 27t11 27.5t27 11.5q20 0 33.5 -16t13.5 -43z" horiz-adv-x="499" unicode="" glyph-name="Scommaaccent.smcp"/>
<glyph d="M260 0h-55v256h-122v38h122v207h-176v49h408v-49h-177v-207h124v-38h-124v-256z" horiz-adv-x="465" unicode="" glyph-name="Tbar.smcp"/>
<glyph d="M260 0h-55v501h-176v49h408v-49h-177v-501zM262 606h-54l-100 144h40l86 -113l84 113h40z" horiz-adv-x="465" unicode="" glyph-name="Tcaron.smcp"/>
<glyph d="M260 0h-55v501h-176v49h408v-49h-177v-501zM279 -137q0 -38 -19 -72.5t-48 -55.5l-27 22q23 17 38.5 42t16.5 47q-7 -1 -10 -1q-16 0 -26 11t-10 27t11 27.5t27 11.5q20 0 33.5 -16t13.5 -43z" horiz-adv-x="465" unicode="" glyph-name="Tcommaaccent.smcp"/>
<glyph d="M306 -12q-110 0 -167.5 59t-57.5 163v340h55v-338q0 -83 44 -129t126 -46t126.5 46.5t44.5 128.5v338h55v-340q0 -104 -58 -163t-168 -59zM480 694q-65 -88 -175 -88q-109 0 -176 88l29 25q54 -75 147 -75q92 0 147 75z" horiz-adv-x="613" unicode="" glyph-name="Ubreve.smcp"/>
<glyph d="M306 -12q-110 0 -167.5 59t-57.5 163v340h55v-338q0 -83 44 -129t126 -46t126.5 46.5t44.5 128.5v338h55v-340q0 -104 -58 -163t-168 -59zM355 750l-115 -144h-37l97 144h55zM494 750l-115 -144h-37l97 144h55z" horiz-adv-x="613" unicode="" glyph-name="Uhungarumlaut.smcp"/>
<glyph d="M306 -12q-110 0 -167.5 59t-57.5 163v340h55v-338q0 -83 44 -129t126 -46t126.5 46.5t44.5 128.5v338h55v-340q0 -104 -58 -163t-168 -59zM490 630h-363v38h363v-38z" horiz-adv-x="613" unicode="" glyph-name="Umacron.smcp"/>
<glyph d="M417 -109l31 -16q-26 -61 -86 -61q-37 0 -61 21.5t-24 63.5q0 49 42 89h-13q-110 0 -167.5 59t-57.5 163v340h55v-338q0 -83 44 -129t126 -46t126.5 46.5t44.5 128.5v338h55v-340q0 -81 -35.5 -135t-103.5 -75q-79 -38 -79 -99q0 -54 48 -54q41 0 55 44z" horiz-adv-x="613" unicode="" glyph-name="Uogonek.smcp"/>
<glyph d="M306 -12q-110 0 -167.5 59t-57.5 163v340h55v-338q0 -83 44 -129t126 -46t126.5 46.5t44.5 128.5v338h55v-340q0 -104 -58 -163t-168 -59zM309 607q-40 0 -68 28.5t-28 67.5q0 40 28 68t68 28q39 0 67 -28t28 -68q0 -39 -28 -67.5t-67 -28.5zM309 639q26 0 44.5 19 t18.5 45t-18.5 45t-44.5 19t-45 -19t-19 -45t19 -45t45 -19z" horiz-adv-x="613" unicode="" glyph-name="Uring.smcp"/>
<glyph d="M306 -12q-110 0 -167.5 59t-57.5 163v340h55v-338q0 -83 44 -129t126 -46t126.5 46.5t44.5 128.5v338h55v-340q0 -104 -58 -163t-168 -59zM367 604q-25 0 -43.5 16t-27 35t-23 35t-31.5 16q-24 0 -39 -24t-15 -72h-35q0 58 24.5 96t68.5 38q25 0 43.5 -16t27 -35t23 -35 t31.5 -16q24 0 39 24t15 72h35q0 -59 -24.5 -96.5t-68.5 -37.5z" horiz-adv-x="613" unicode="" glyph-name="Utilde.smcp"/>
<glyph d="M500 606h-40l-86 113l-84 -113h-40l97 144h54zM569 0h-58l-137 463l-136 -463h-58l-165 550h60l135 -471l140 471h49l139 -472l136 472h60z" horiz-adv-x="749" unicode="" glyph-name="Wcircumflex.smcp"/>
<glyph d="M299 0h-55v235l-232 315h66l194 -266l190 266h65l-228 -315v-235zM397 606h-40l-86 113l-84 -113h-40l97 144h54z" horiz-adv-x="539" unicode="" glyph-name="Ycircumflex.smcp"/>
<glyph d="M472 0h-431v43l353 458h-353v49h424v-44l-352 -457h359v-49zM413 750l-172 -144h-44l154 144h62z" horiz-adv-x="513" unicode="" glyph-name="Zacute.smcp"/>
<glyph d="M472 0h-431v43l353 458h-353v49h424v-44l-352 -457h359v-49zM263 635q-16 0 -27 11t-11 27t11 27t27 11q15 0 26 -11t11 -27t-11 -27t-26 -11z" horiz-adv-x="513" unicode="" glyph-name="Zdotaccent.smcp"/>
<glyph d="M122 0h-55v550h55v-550zM94 635q-16 0 -27 11t-11 27t11 27t27 11q15 0 26 -11t11 -27t-11 -27t-26 -11z" horiz-adv-x="188" unicode="" glyph-name="Idotaccent.smcp"/>
<glyph d="M210 -85l-31 -24q-134 203 -134 442t134 442l31 -22q-53 -109 -79.5 -204t-26.5 -216t26.5 -216t79.5 -202z" horiz-adv-x="227" unicode="" glyph-name="parenleft.case"/>
<glyph d="M48 -109l-31 24q53 107 79.5 202t26.5 216t-26.5 216t-79.5 204l31 22q134 -203 134 -442t-134 -442z" horiz-adv-x="227" unicode="" glyph-name="parenright.case"/>
<glyph d="M211 -100h-174v868h174v-43h-130v-782h130v-43z" horiz-adv-x="228" unicode="" glyph-name="bracketleft.case"/>
<glyph d="M191 -100h-174v43h130v782h-130v43h174v-868z" horiz-adv-x="228" unicode="" glyph-name="bracketright.case"/>
<glyph d="M232 -100h-62q-44 0 -78 34.5t-34 89.5v219q0 30 -13.5 50.5t-38.5 20.5v40q25 0 38.5 20.5t13.5 50.5v219q0 54 34 89t78 35h62v-43h-62q-28 0 -48 -23t-20 -58v-222q0 -69 -45 -88q45 -19 45 -88v-222q0 -35 20 -58t48 -23h62v-43z" horiz-adv-x="249" unicode="" glyph-name="braceleft.case"/>
<glyph d="M17 -100v43h62q28 0 47.5 23t19.5 58v222q0 68 45 88q-45 20 -45 88v222q0 35 -19.5 58t-47.5 23h-62v43h62q44 0 78 -35t34 -89v-219q0 -30 13.5 -50.5t38.5 -20.5v-40q-25 0 -38.5 -20.5t-13.5 -50.5v-219q0 -55 -34 -89.5t-78 -34.5h-62z" horiz-adv-x="249" unicode="" glyph-name="braceright.case"/>
<glyph d="M76 0l13 493h41l13 -493h-67zM65 633q0 17 13 30t31 13t31 -13t13 -30q0 -18 -13 -31t-31 -13t-31 13t-13 31z" horiz-adv-x="219" unicode="" glyph-name="exclamdown.case"/>
<glyph d="M250 488q42 -34 42 -79q0 -36 -20 -65t-49 -49t-58 -39.5t-49 -47t-20 -61.5q0 -46 36 -76.5t99 -30.5q111 0 175 89l36 -37q-77 -105 -215 -105q-87 0 -139 45t-52 110q0 42 21 76t51 56t60 41.5t51 44t21 53.5t-30 50zM242 676q18 0 31 -13t13 -31q0 -17 -13 -30 t-31 -13t-31.5 13t-13.5 30q0 18 13.5 31t31.5 13z" horiz-adv-x="464" unicode="" glyph-name="questiondown.case"/>
<glyph d="M372 162h-57l-160 180l160 177h57l-160 -177zM247 162h-57l-160 180l160 177h57l-160 -177z" horiz-adv-x="402" unicode="" glyph-name="guillemotleft.case"/>
<glyph d="M247 342l-160 -180h-57l160 180l-160 177h57zM372 342l-160 -180h-57l160 180l-160 177h57z" horiz-adv-x="402" unicode="" glyph-name="guillemotright.case"/>
<glyph d="M247 162h-57l-160 180l160 177h57l-160 -177z" horiz-adv-x="277" unicode="" glyph-name="guilsinglleft.case"/>
<glyph d="M247 342l-160 -180h-57l160 180l-160 177h57z" horiz-adv-x="277" unicode="" glyph-name="guilsinglright.case"/>
<glyph d="M270 317h-240v48h240v-48z" horiz-adv-x="300" unicode="" glyph-name="hyphen.case"/>
<glyph d="M563 317h-533v48h533v-48z" horiz-adv-x="593" unicode="" glyph-name="endash.case"/>
<glyph d="M803 317h-773v48h773v-48z" horiz-adv-x="833" unicode="" glyph-name="emdash.case"/>
<glyph d="M154 343q0 -18 -13 -31t-31 -13t-31 13t-13 31q0 17 13 30t31 13t31 -13t13 -30z" horiz-adv-x="219" unicode="" glyph-name="periodcentered.case"/>
<glyph d="M283 341q0 -42 -30 -72t-73 -30t-73 30t-30 72q0 43 30 73t73 30t73 -30t30 -73z" horiz-adv-x="358" unicode="" glyph-name="bullet.case"/>
<glyph d="M257 -9v90q-92 11 -147.5 81.5t-55.5 170.5q0 99 55.5 169.5t147.5 81.5v72h44v-70q95 -4 158 -82l-36 -32q-46 62 -122 67v-413q74 3 122 68l36 -32q-61 -79 -158 -83v-88h-44zM109 333q0 -79 39.5 -135.5t108.5 -68.5v407q-69 -13 -108.5 -68.5t-39.5 -134.5z" horiz-adv-x="494" unicode="" glyph-name="cent.case"/>
<glyph d="M155 -137q0 -38 -19 -72.5t-48 -55.5l-27 22q23 17 38.5 42t16.5 47q-7 -1 -10 -1q-16 0 -26 11t-10 27t11 27.5t27 11.5q20 0 33.5 -16t13.5 -43z" horiz-adv-x="219" unicode="" glyph-name="commaaccent"/>
<glyph d="M372 0h-57v589l-107 -114l-35 37l147 155h52v-667z" horiz-adv-x="588" unicode="" glyph-name="one.tnum"/>
<glyph d="M543 0h-69l-187 276h-147v-276h-57v667h249q88 0 145.5 -53t57.5 -142q0 -87 -53 -138t-132 -54zM327 328q66 0 107 40.5t41 103.5t-41 103t-107 40h-187v-287h187zM837 -12q-104 0 -168 90v-262h-52v667h52v-76q27 39 71.5 63.5t96.5 24.5q97 0 156.5 -68.5t59.5 -184.5 q0 -115 -59.5 -184.5t-156.5 -69.5zM828 35q79 0 124 58t45 149q0 90 -45 148t-124 58q-49 0 -93 -25t-66 -61v-239q22 -36 66.5 -62t92.5 -26z" horiz-adv-x="1103" unicode="" glyph-name="rupiah"/>
<glyph d="M159 -151v54q-57 7 -92 49.5t-35 101.5t35 101.5t92 49.5v43h33v-43q58 -4 98 -52l-29 -22q-27 37 -69 40v-235q40 3 69 41l29 -23q-40 -47 -98 -51v-54h-33zM74 54q0 -45 23 -77t62 -39v231q-39 -7 -62 -38.5t-23 -76.5z" horiz-adv-x="305" unicode="" glyph-name="centinferior"/>
<glyph d="M159 416v54q-57 7 -92 49t-35 102q0 59 35 101.5t92 49.5v43h33v-43q58 -4 98 -52l-29 -22q-27 37 -69 40v-236q40 4 69 42l29 -23q-40 -48 -98 -52v-53h-33zM74 621q0 -45 23 -77t62 -40v232q-39 -7 -62 -38.5t-23 -76.5z" horiz-adv-x="305" unicode="" glyph-name="centsuperior"/>
<glyph d="M94 -128q0 -61 -45 -93q-10 7 -22 18q14 9 25.5 25t11.5 29q-2 -1 -3 -1q-11 0 -20.5 9t-9.5 21t9 21.5t22 9.5q14 0 23 -11t9 -28z" horiz-adv-x="131" unicode="" glyph-name="commainferior"/>
<glyph d="M94 439q0 -61 -45 -93q-10 7 -22 18q14 9 25.5 25t11.5 29q-2 -1 -3 -1q-11 0 -20.5 9t-9.5 21t9 21.5t22 9.5q14 0 23 -11t9 -28z" horiz-adv-x="131" unicode="" glyph-name="commasuperior"/>
<glyph d="M171 -206v53q-90 4 -143 66l28 29q51 -53 115 -58v158q-31 7 -49.5 13t-41 18t-33 32t-10.5 47q0 46 38 76t96 32v55h33v-56q79 -9 120 -58l-27 -27q-34 41 -93 49v-143q30 -7 49 -14t40.5 -20t32.5 -33.5t11 -48.5q0 -50 -34 -81t-99 -35v-54h-33zM290 -40 q0 30 -22.5 46t-63.5 27v-149q43 4 64.5 24.5t21.5 51.5zM84 154q0 -27 22 -41t65 -25v137q-38 -2 -62.5 -22t-24.5 -49z" horiz-adv-x="365" unicode="" glyph-name="dollarinferior"/>
<glyph d="M171 361v53q-92 4 -143 66l28 29q49 -52 115 -59v159q-31 7 -49.5 13t-41 18t-33 32t-10.5 47q0 46 38 76t96 32v55h33v-56q79 -9 120 -58l-27 -27q-34 41 -93 49v-143q30 -7 49 -14t40.5 -20t32.5 -33.5t11 -48.5q0 -51 -34 -81.5t-99 -34.5v-54h-33zM290 527 q0 30 -22.5 46t-63.5 27v-149q42 4 64 24.5t22 51.5zM84 721q0 -27 22 -41t65 -25v137q-38 -2 -62.5 -22t-24.5 -49z" horiz-adv-x="365" unicode="" glyph-name="dollarsuperior"/>
<glyph d="M166 35h-148v36h148v-36z" horiz-adv-x="184" unicode="" glyph-name="hypheninferior"/>
<glyph d="M166 603h-148v36h148v-36z" horiz-adv-x="184" unicode="" glyph-name="hyphensuperior"/>
<glyph d="M99 -120q0 -13 -9 -22t-22 -9q-12 0 -21.5 9t-9.5 22t9.5 22t21.5 9q13 0 22 -9t9 -22z" horiz-adv-x="136" unicode="" glyph-name="periodinferior"/>
<glyph d="M99 447q0 -13 -9 -22t-22 -9q-12 0 -21.5 9t-9.5 22t9.5 22t21.5 9q13 0 22 -9t9 -22z" horiz-adv-x="136" unicode="" glyph-name="periodsuperior"/>
<glyph d="M310 326h-42v37q-42 -45 -110 -45q-45 0 -78.5 28.5t-33.5 76.5t33.5 75.5t78.5 27.5q68 0 110 -44v61q0 33 -25 51.5t-60 18.5q-62 0 -100 -48l-22 28q51 55 127 55q54 0 88 -26t34 -79v-217zM174 348q61 0 94 42v65q-32 41 -94 41q-37 0 -61 -20.5t-24 -52.5 q0 -33 24 -54t61 -21z" horiz-adv-x="375" unicode="" glyph-name="asuperior"/>
<glyph d="M210 353q51 0 81 36.5t30 93.5t-30 93.5t-81 36.5q-30 0 -59 -15.5t-43 -36.5v-156q14 -22 42.5 -37t59.5 -15zM108 326h-43v434h43v-170q42 58 111 58q65 0 105.5 -45t40.5 -120t-40.5 -120t-105.5 -45q-70 0 -111 57v-49z" horiz-adv-x="408" unicode="" glyph-name="bsuperior"/>
<glyph d="M344 326h-42v49q-43 -57 -113 -57q-64 0 -104.5 45t-40.5 120t40.5 120t104.5 45q70 0 112 -58v170h43v-434zM198 353q32 0 60.5 15t43.5 37v156q-15 22 -44 37t-60 15q-51 0 -80 -36.5t-29 -93.5q0 -58 29 -94t80 -36z" horiz-adv-x="409" unicode="" glyph-name="dsuperior"/>
<glyph d="M209 318q-72 0 -118.5 46.5t-46.5 118.5q0 69 45.5 117t113.5 48q71 0 112.5 -48t41.5 -120v-11h-268q3 -49 36.5 -83.5t85.5 -34.5q61 0 105 42l20 -25q-52 -50 -127 -50zM316 502q-1 43 -31 78t-83 35q-51 0 -81 -34.5t-32 -78.5h227z" horiz-adv-x="401" unicode="" glyph-name="esuperior"/>
<glyph d="M76 690q-12 0 -21 9t-9 21t9 21.5t21 9.5t21 -9.5t9 -21.5t-9 -21t-21 -9zM97 326h-43v314h43v-314z" horiz-adv-x="152" unicode="" glyph-name="isuperior"/>
<glyph d="M108 326h-43v434h43v-434z" horiz-adv-x="172" unicode="" glyph-name="lsuperior"/>
<glyph d="M496 326h-42v214q0 72 -63 72q-25 0 -50.5 -15.5t-38.5 -35.5v-235h-42v214q0 72 -64 72q-24 0 -49 -15t-39 -36v-235h-43v314h43v-47q12 19 42 37t62 18q34 0 56.5 -17t29.5 -42q15 23 45 41t64 18q89 0 89 -101v-221z" horiz-adv-x="561" unicode="" glyph-name="msuperior"/>
<glyph d="M202 318q-70 0 -114 47.5t-44 117.5t44 117.5t114 47.5q71 0 115 -47t44 -118q0 -70 -44 -117.5t-115 -47.5zM202 355q53 0 84 36.5t31 91.5q0 54 -31 90.5t-84 36.5q-52 0 -82.5 -36t-30.5 -91t30.5 -91.5t82.5 -36.5z" horiz-adv-x="405" unicode="" glyph-name="osuperior"/>
<glyph d="M108 326h-43v314h43v-52q46 59 108 59v-42l-19 1q-24 0 -51.5 -16t-37.5 -36v-228z" horiz-adv-x="233" unicode="" glyph-name="rsuperior"/>
<glyph d="M159 318q-79 0 -128 52l23 27q39 -47 105 -47q39 0 61 17t22 44q0 28 -32 43t-70 20t-70 26t-32 60q0 37 32 62.5t87 25.5q78 0 117 -47l-20 -26q-32 41 -97 41q-35 0 -56 -16t-21 -41t32 -38t70 -17.5t70 -27t32 -63.5t-32.5 -68t-92.5 -27z" horiz-adv-x="328" unicode="" glyph-name="ssuperior"/>
<glyph d="M131 318q-68 0 -68 72v217h-54v33h54v86h42v-86h66v-33h-66v-212q0 -42 33 -42q24 0 35 15q10 -20 14 -30q-20 -20 -56 -20z" horiz-adv-x="193" unicode="" glyph-name="tsuperior"/>
<glyph d="M11 185v53l99 57v255h55v-223l100 58v-53l-100 -58v-225h277v-49h-332v242z" horiz-adv-x="482" unicode="" glyph-name="Lslash.smcp"/>
<glyph d="M908 0h-369v113q-65 -125 -211 -125q-123 0 -198.5 82t-75.5 205t75.5 205t198.5 82q145 0 211 -124v112h369v-49h-314v-194h308v-49h-308v-209h314v-49zM539 191v169q-24 77 -80 115t-125 38q-101 0 -162 -67t-61 -171q0 -103 61 -170.5t162 -67.5q71 0 126 38t79 116z " horiz-adv-x="964" unicode="" glyph-name="OE.smcp"/>
<glyph d="M250 -12q-137 0 -211 88l34 39q29 -33 76 -56t102 -23q76 0 112.5 31.5t36.5 78.5q0 44 -35.5 69.5t-86 37.5t-101 26t-86 46.5t-35.5 86.5q0 66 55 108t135 42q123 0 197 -79l-32 -38q-59 69 -165 69q-56 0 -94.5 -29t-38.5 -72q0 -32 25.5 -53t64 -30.5t83 -23 t83 -28.5t64 -48.5t25.5 -82.5q0 -69 -52.5 -114t-155.5 -45zM280 606h-54l-100 144h40l86 -113l84 113h40z" horiz-adv-x="499" unicode="" glyph-name="Scaron.smcp"/>
<glyph d="M472 0h-431v43l353 458h-353v49h424v-44l-352 -457h359v-49zM282 606h-54l-100 144h40l86 -113l84 113h40z" horiz-adv-x="513" unicode="" glyph-name="Zcaron.smcp"/>
<glyph d="M120 550l-13 -401h-39l-13 401h65zM131 35q0 -18 -12.5 -31t-30.5 -13t-31 13t-13 31q0 17 13 30t31 13t30.5 -13t12.5 -30z" horiz-adv-x="176" unicode="" glyph-name="exclam.smcp"/>
<glyph d="M230 -74v63q-125 7 -191 87l34 39q26 -30 67 -52t90 -26v228q-32 8 -52 14t-46 18.5t-40.5 26.5t-25 36.5t-10.5 51.5q0 63 49.5 104t124.5 45v67h43v-67q106 -9 170 -78l-32 -38q-50 59 -138 67v-202q42 -11 68 -21t56.5 -28t45.5 -46.5t15 -67.5q0 -65 -46.5 -109 t-138.5 -49v-63h-43zM400 146q0 45 -32.5 68t-94.5 40v-217q65 5 96 35.5t31 73.5zM113 413q0 -37 29.5 -56.5t87.5 -35.5v192q-51 -4 -84 -32t-33 -68z" horiz-adv-x="499" unicode="" glyph-name="dollar.onum"/>
<glyph d="M525 0h-72q-32 27 -74 67q-74 -79 -172 -79q-78 0 -127.5 42t-49.5 113q0 59 34 97t94 68q-46 67 -46 125q0 56 40.5 92.5t98.5 36.5q53 0 88.5 -28t35.5 -80q0 -30 -11.5 -53.5t-37 -43.5t-44.5 -30.5t-56 -29.5q29 -37 74 -82q12 -13 76 -80q40 56 64 134l45 -18 q-33 -87 -76 -147q33 -32 116 -104zM210 30q74 0 136 67q-48 46 -84 86q-42 45 -80 91q-47 -26 -73 -56t-26 -73q0 -50 35.5 -82.5t91.5 -32.5zM161 432q0 -43 41 -102q43 21 64.5 33.5t41.5 36.5t20 53q0 33 -20.5 51t-55.5 18q-39 0 -65 -26t-26 -64z" horiz-adv-x="552" unicode="" glyph-name="ampersand.smcp"/>
<glyph d="M551 275q0 -74 -24.5 -137t-82 -106.5t-139.5 -43.5q-83 0 -140.5 43.5t-82 106.5t-24.5 137q0 55 14.5 104.5t43.5 91.5t77.5 66.5t111.5 24.5q82 0 139.5 -43.5t82 -106.5t24.5 -137zM490 275q0 98 -46 166.5t-139 68.5q-94 0 -140.5 -69t-46.5 -166t46.5 -166 t140.5 -69q93 0 139 69t46 166z" horiz-adv-x="608" unicode="" glyph-name="zero.onum"/>
<glyph d="M225 0h-57v472l-107 -114l-35 37l147 155h52v-550z" horiz-adv-x="308" unicode="" glyph-name="one.onum"/>
<glyph d="M479 0h-415v48q183 80 275.5 163.5t92.5 165.5q0 58 -44 95.5t-107 37.5q-61 0 -111.5 -23.5t-78.5 -63.5l-39 36q34 48 96.5 75.5t133.5 27.5q87 0 147 -49.5t60 -129.5q0 -93 -87.5 -181t-228.5 -150h306v-52z" horiz-adv-x="576" unicode="" glyph-name="two.onum"/>
<glyph d="M257 -129q-77 0 -136 31.5t-91 79.5l39 34q65 -93 187 -93q77 0 122.5 38t45.5 104q0 69 -49.5 102.5t-129.5 33.5q-42 0 -62 -2v54q10 -1 62 -1q72 0 120.5 32t48.5 95q0 60 -46 94.5t-114 34.5q-103 0 -179 -85l-36 36q83 101 218 101q91 0 153 -47t62 -129 q0 -47 -25 -83t-55 -51.5t-63 -21.5q54 -6 103.5 -49t49.5 -117q0 -84 -60.5 -137.5t-164.5 -53.5z" horiz-adv-x="542" unicode="" glyph-name="three.onum"/>
<glyph d="M506 66h-98v-183h-57v183h-316v52l296 432h77v-432h98v-52zM351 118v375l-257 -375h257z" horiz-adv-x="541" unicode="" glyph-name="four.onum"/>
<glyph d="M299 -129q-149 0 -225 109l38 38q67 -95 187 -95q72 0 119.5 46t47.5 115q0 75 -46.5 119t-119.5 44q-91 0 -162 -65l-43 18v350h385v-52h-328v-261q64 62 159 62q89 0 151 -56.5t62 -156.5q0 -97 -65 -156t-160 -59z" horiz-adv-x="582" unicode="" glyph-name="five.onum"/>
<glyph d="M303 -12q-52 0 -94 19t-70 51t-46.5 76.5t-26.5 93.5t-8 105q0 91 24.5 166t84 126.5t146.5 51.5q112 0 180 -85l-33 -41q-57 74 -147 74q-52 0 -91.5 -25.5t-61.5 -68.5t-33 -93t-11 -106q0 -21 1 -31q25 41 79 76t116 35q95 0 155 -54.5t60 -156.5q0 -87 -61 -150 t-163 -63zM301 40q79 0 123.5 49.5t44.5 110.5q0 79 -46 120t-121 41q-54 0 -103.5 -31.5t-78.5 -82.5q4 -51 22 -95t59 -78t100 -34z" horiz-adv-x="584" unicode="" glyph-name="six.onum"/>
<glyph d="M185 -117h-63l280 615h-369v52h437v-40z" horiz-adv-x="502" unicode="" glyph-name="seven.onum"/>
<glyph d="M286 -12q-98 0 -162.5 49.5t-64.5 129.5q0 65 48 111.5t118 65.5q-66 18 -110.5 58.5t-44.5 102.5q0 83 64.5 127.5t151.5 44.5q86 0 151 -44.5t65 -127.5q0 -62 -44.5 -102.5t-110.5 -58.5q70 -19 118 -65.5t48 -111.5q0 -80 -64.5 -129.5t-162.5 -49.5zM286 368 q22 4 43 11.5t50 22t47 40t18 57.5q0 58 -45 92t-113 34t-113 -34t-45 -92q0 -32 18 -57.5t47 -40.5t50 -22t43 -11zM286 40q68 0 118.5 36.5t50.5 94.5q0 36 -20 65t-50 45.5t-55 25.5t-44 11q-19 -2 -44.5 -11t-55 -25.5t-49.5 -45.5t-20 -65q0 -59 49.5 -95t119.5 -36z " horiz-adv-x="571" unicode="" glyph-name="eight.onum"/>
<glyph d="M271 -128q-112 0 -180 85l34 41q57 -74 146 -74q53 0 92.5 25.5t61.5 69t32.5 93t10.5 105.5v31q-25 -41 -79.5 -76t-116.5 -35q-95 0 -155 54.5t-60 156.5q0 87 61 150t163 63q52 0 94 -19t70 -51t46.5 -76.5t26.5 -93.5t8 -105q0 -53 -8.5 -101.5t-28.5 -93.5 t-48.5 -77.5t-72.5 -52t-97 -19.5zM282 188q54 0 103.5 31.5t78.5 82.5q-4 51 -21.5 95t-59 78t-100.5 34q-79 0 -123.5 -49.5t-44.5 -110.5q0 -79 46 -120t121 -41z" horiz-adv-x="584" unicode="" glyph-name="nine.onum"/>
<glyph d="M369 433q0 -35 -18 -63t-44.5 -46t-52.5 -34t-44 -35t-18 -41q0 -25 29 -43l-39 -23q-39 30 -39 67q0 29 18 53t43.5 40.5t50.5 32.5t43 37.5t18 47.5q0 39 -32 63.5t-86 24.5q-96 0 -155 -76l-31 33q68 90 189 90q76 0 122 -37t46 -91zM233 35q0 -18 -13 -31t-31 -13 t-31 13t-13 31q0 17 13 30t31 13t31 -13t13 -30z" horiz-adv-x="397" unicode="" glyph-name="question.smcp"/>
<glyph d="M249 550h64l237 -550h-62l-58 133h-299l-56 -133h-63zM412 182l-131 308l-132 -308h263z" horiz-adv-x="562" unicode="" glyph-name="A.smcp"/>
<glyph d="M324 0h-243v550h238q74 0 117.5 -38t43.5 -103q0 -47 -27.5 -81t-66.5 -44q44 -11 75 -50t31 -85q0 -68 -45 -108.5t-123 -40.5zM318 49q54 0 85 28t31 76q0 43 -30.5 74t-85.5 31h-182v-209h182zM314 307q51 0 80 27.5t29 69.5q0 44 -28.5 70.5t-80.5 26.5h-178v-194 h178z" horiz-adv-x="541" unicode="" glyph-name="B.smcp"/>
<glyph d="M344 -12q-124 0 -207 81t-83 207q0 125 83 205.5t207 80.5q130 0 211 -102l-43 -27q-28 37 -72.5 58.5t-95.5 21.5q-99 0 -166 -67t-67 -170t67 -171t166 -68q51 0 97 21.5t71 58.5l44 -27q-83 -102 -212 -102z" horiz-adv-x="581" unicode="" glyph-name="C.smcp"/>
<glyph d="M266 0h-185v550h185q131 0 211 -79.5t80 -196.5t-79.5 -195.5t-211.5 -78.5zM266 49q108 0 170.5 64t62.5 161q0 98 -62 162.5t-171 64.5h-130v-452h130z" horiz-adv-x="611" unicode="" glyph-name="D.smcp"/>
<glyph d="M449 0h-368v550h368v-49h-313v-194h308v-49h-308v-209h313v-49z" horiz-adv-x="505" unicode="" glyph-name="E.smcp"/>
<glyph d="M136 0h-55v550h368v-49h-313v-194h308v-49h-308v-258z" horiz-adv-x="483" unicode="" glyph-name="F.smcp"/>
<glyph d="M345 -12q-124 0 -207.5 80.5t-83.5 206.5t83.5 206.5t207.5 80.5q129 0 216 -94l-40 -32q-70 77 -176 77q-100 0 -167 -67t-67 -171t67 -171.5t167 -67.5q94 0 163 65v128h-186v48h241v-196q-86 -93 -218 -93z" horiz-adv-x="630" unicode="" glyph-name="G.smcp"/>
<glyph d="M548 0h-54v259h-358v-259h-55v550h55v-243h358v243h54v-550z" horiz-adv-x="629" unicode="" glyph-name="H.smcp"/>
<glyph d="M136 0h-55v550h55v-550z" horiz-adv-x="216" unicode="" glyph-name="I.smcp"/>
<glyph d="M158 -12q-93 0 -148 71l31 40q47 -62 114 -62q58 0 92 34t34 89v390h55v-392q0 -83 -50 -126.5t-128 -43.5z" horiz-adv-x="417" unicode="" glyph-name="J.smcp"/>
<glyph d="M501 0h-70l-235 256l-60 -65v-191h-55v550h55v-294l272 294h70l-247 -262z" horiz-adv-x="521" unicode="" glyph-name="K.smcp"/>
<glyph d="M413 0h-332v550h55v-501h277v-49z" horiz-adv-x="454" unicode="" glyph-name="L.smcp"/>
<glyph d="M622 0h-55v475l-204 -475h-23l-204 475v-475h-55v550h76l194 -452l194 452h77v-550z" horiz-adv-x="703" unicode="" glyph-name="M.smcp"/>
<glyph d="M544 0h-54l-354 464v-464h-55v550h56l352 -457v457h55v-550z" horiz-adv-x="625" unicode="" glyph-name="N.smcp"/>
<glyph d="M333 -12q-125 0 -202 82t-77 205t77 205t202 82t202 -82t77 -205q0 -122 -77.5 -204.5t-201.5 -82.5zM333 37q99 0 160.5 67.5t61.5 170.5q0 104 -61.5 171t-160.5 67q-101 0 -161.5 -67t-60.5 -171q0 -103 61 -170.5t161 -67.5z" horiz-adv-x="666" unicode="" glyph-name="O.smcp"/>
<glyph d="M136 0h-55v550h218q84 0 129.5 -46.5t45.5 -115.5q0 -70 -45.5 -117t-129.5 -47h-163v-224zM295 273q59 0 90.5 31.5t31.5 83.5q0 50 -32 81.5t-90 31.5h-159v-228h159z" horiz-adv-x="509" unicode="" glyph-name="P.smcp"/>
<glyph d="M333 -12q-125 0 -202 82t-77 205t77 205t202 82t202 -82t77 -205q0 -129 -83 -210l56 -60l-35 -32l-58 61q-68 -46 -159 -46zM333 37q71 0 124 36l-84 90l35 33l85 -92q62 67 62 171t-61.5 171t-160.5 67q-101 0 -161.5 -67t-60.5 -171q0 -103 61 -170.5t161 -67.5z" horiz-adv-x="666" unicode="" glyph-name="Q.smcp"/>
<glyph d="M484 0h-68l-158 224h-122v-224h-55v550h218q82 0 129 -45.5t47 -116.5q0 -70 -43 -114t-115 -47zM295 273q60 0 91.5 31.5t31.5 83.5q0 51 -32.5 82t-90.5 31h-159v-228h159z" horiz-adv-x="533" unicode="" glyph-name="R.smcp"/>
<glyph d="M250 -12q-137 0 -211 88l34 39q29 -33 76 -56t102 -23q76 0 112.5 31.5t36.5 78.5q0 44 -35.5 69.5t-86 37.5t-101 26t-86 46.5t-35.5 86.5q0 66 55 108t135 42q123 0 197 -79l-32 -38q-59 69 -165 69q-56 0 -94.5 -29t-38.5 -72q0 -32 25.5 -53t64 -30.5t83 -23 t83 -28.5t64 -48.5t25.5 -82.5q0 -69 -52.5 -114t-155.5 -45z" horiz-adv-x="499" unicode="" glyph-name="S.smcp"/>
<glyph d="M260 0h-55v501h-176v49h408v-49h-177v-501z" horiz-adv-x="465" unicode="" glyph-name="T.smcp"/>
<glyph d="M306 -12q-110 0 -167.5 59t-57.5 163v340h55v-338q0 -83 44 -129t126 -46t126.5 46.5t44.5 128.5v338h55v-340q0 -104 -58 -163t-168 -59z" horiz-adv-x="613" unicode="" glyph-name="U.smcp"/>
<glyph d="M313 0h-64l-237 550h63l206 -488l208 488h61z" horiz-adv-x="562" unicode="" glyph-name="V.smcp"/>
<glyph d="M569 0h-58l-137 463l-136 -463h-58l-165 550h60l135 -471l140 471h49l139 -472l136 472h60z" horiz-adv-x="749" unicode="" glyph-name="W.smcp"/>
<glyph d="M546 0h-68l-198 244l-198 -244h-68l232 282l-219 268h68l185 -229l185 229h68l-219 -267z" horiz-adv-x="560" unicode="" glyph-name="X.smcp"/>
<glyph d="M299 0h-55v235l-232 315h66l194 -266l190 266h65l-228 -315v-235z" horiz-adv-x="539" unicode="" glyph-name="Y.smcp"/>
<glyph d="M472 0h-431v43l353 458h-353v49h424v-44l-352 -457h359v-49z" horiz-adv-x="513" unicode="" glyph-name="Z.smcp"/>
<glyph d="M56 0l13 401h39l13 -401h-65zM45 515q0 18 12.5 31t30.5 13t31 -13t13 -31q0 -17 -13 -30t-31 -13t-30.5 13t-12.5 30z" horiz-adv-x="176" unicode="" glyph-name="exclamdown.smcp"/>
<glyph d="M28 117q0 30 13 54.5t33 40.5t42.5 31.5t42.5 27.5t33 29t13 36q0 25 -29 43l39 23q39 -30 39 -67q0 -29 -18 -53t-43 -40.5t-50.5 -32.5t-43.5 -37.5t-18 -47.5q0 -39 32 -63.5t86 -24.5q96 0 155 76l31 -33q-68 -90 -189 -90q-76 0 -122 37t-46 91zM164 515q0 18 13 31 t31 13t31 -13t13 -31q0 -17 -13 -30t-31 -13t-31 13t-13 30z" horiz-adv-x="397" unicode="" glyph-name="questiondown.smcp"/>
<glyph d="M249 550h64l237 -550h-62l-58 133h-299l-56 -133h-63zM412 182l-131 308l-132 -308h263zM341 606h-44l-172 144h62z" horiz-adv-x="562" unicode="" glyph-name="Agrave.smcp"/>
<glyph d="M249 550h64l237 -550h-62l-58 133h-299l-56 -133h-63zM412 182l-131 308l-132 -308h263zM439 750l-172 -144h-44l154 144h62z" horiz-adv-x="562" unicode="" glyph-name="Aacute.smcp"/>
<glyph d="M249 550h64l237 -550h-62l-58 133h-299l-56 -133h-63zM412 182l-131 308l-132 -308h263zM408 606h-40l-86 113l-84 -113h-40l97 144h54z" horiz-adv-x="562" unicode="" glyph-name="Acircumflex.smcp"/>
<glyph d="M249 550h64l237 -550h-62l-58 133h-299l-56 -133h-63zM412 182l-131 308l-132 -308h263zM342 604q-25 0 -43.5 16t-27 35t-23 35t-31.5 16q-24 0 -39 -24t-15 -72h-35q0 58 24.5 96t68.5 38q25 0 43.5 -16t27 -35t23 -35t31.5 -16q24 0 39 24t15 72h35q0 -59 -24.5 -96.5 t-68.5 -37.5z" horiz-adv-x="562" unicode="" glyph-name="Atilde.smcp"/>
<glyph d="M249 550h64l237 -550h-62l-58 133h-299l-56 -133h-63zM412 182l-131 308l-132 -308h263zM420 654q0 -15 -11 -26t-26 -11t-26 11t-11 26t11 26t26 11t26 -11t11 -26zM216 654q0 -15 -11 -26t-26 -11t-26 11t-11 26t11 26t26 11t26 -11t11 -26z" horiz-adv-x="562" unicode="" glyph-name="Adieresis.smcp"/>
<glyph d="M249 550h64l237 -550h-62l-58 133h-299l-56 -133h-63zM412 182l-131 308l-132 -308h263zM282 607q-40 0 -68 28.5t-28 67.5q0 40 28 68t68 28q39 0 67 -28t28 -68q0 -39 -28 -67.5t-67 -28.5zM282 639q26 0 44.5 19t18.5 45t-18.5 45t-44.5 19t-45 -19t-19 -45t19 -45 t45 -19z" horiz-adv-x="562" unicode="" glyph-name="Aring.smcp"/>
<glyph d="M755 0h-369v133h-227l-84 -133h-63l355 550h388v-49h-313v-194h307v-49h-307v-209h313v-49zM386 182v308l-198 -308h198z" horiz-adv-x="811" unicode="" glyph-name="AE.smcp"/>
<glyph d="M345 -189q-63 0 -97 29l17 32q34 -28 79 -28q27 0 46 12.5t19 32.5q0 40 -40 40q-25 0 -41 -18l-27 16l22 62q-116 7 -192.5 86.5t-76.5 200.5q0 125 83 205.5t207 80.5q130 0 211 -102l-43 -27q-28 37 -72.5 58.5t-95.5 21.5q-99 0 -166 -67t-67 -170t67 -171t166 -68 q51 0 97 21.5t71 58.5l44 -27q-78 -95 -196 -101l-17 -45q16 11 37 11q29 0 47.5 -18t18.5 -48q0 -35 -29 -56.5t-72 -21.5z" horiz-adv-x="581" unicode="" glyph-name="Ccedilla.smcp"/>
<glyph d="M449 0h-368v550h368v-49h-313v-194h308v-49h-308v-209h313v-49zM328 606h-44l-172 144h62z" horiz-adv-x="505" unicode="" glyph-name="Egrave.smcp"/>
<glyph d="M449 0h-368v550h368v-49h-313v-194h308v-49h-308v-209h313v-49zM425 750l-172 -144h-44l154 144h62z" horiz-adv-x="505" unicode="" glyph-name="Eacute.smcp"/>
<glyph d="M449 0h-368v550h368v-49h-313v-194h308v-49h-308v-209h313v-49zM394 606h-40l-86 113l-84 -113h-40l97 144h54z" horiz-adv-x="505" unicode="" glyph-name="Ecircumflex.smcp"/>
<glyph d="M449 0h-368v550h368v-49h-313v-194h308v-49h-308v-209h313v-49zM403 654q0 -15 -11 -26t-26 -11t-26 11t-11 26t11 26t26 11t26 -11t11 -26zM199 654q0 -15 -11 -26t-26 -11t-26 11t-11 26t11 26t26 11t26 -11t11 -26z" horiz-adv-x="505" unicode="" glyph-name="Edieresis.smcp"/>
<glyph d="M136 0h-55v550h55v-550zM168 606h-44l-172 144h62z" horiz-adv-x="215" unicode="" glyph-name="Igrave.smcp"/>
<glyph d="M136 0h-55v550h55v-550zM266 750l-172 -144h-44l154 144h62z" horiz-adv-x="215" unicode="" glyph-name="Iacute.smcp"/>
<glyph d="M136 0h-55v550h55v-550zM234 606h-40l-86 113l-84 -113h-40l97 144h54z" horiz-adv-x="215" unicode="" glyph-name="Icircumflex.smcp"/>
<glyph d="M136 0h-55v550h55v-550zM248 654q0 -15 -11 -26t-26 -11t-26 11t-11 26t11 26t26 11t26 -11t11 -26zM44 654q0 -15 -11 -26t-26 -11t-26 11t-11 26t11 26t26 11t26 -11t11 -26z" horiz-adv-x="215" unicode="" glyph-name="Idieresis.smcp"/>
<glyph d="M264 0h-185v260h-68v39h68v251h185q131 0 211 -79.5t80 -196.5t-79.5 -195.5t-211.5 -78.5zM276 260h-142v-211h130q108 0 170.5 64t62.5 161q0 98 -62 162.5t-171 64.5h-130v-202h142v-39z" horiz-adv-x="622" unicode="" glyph-name="Eth.smcp"/>
<glyph d="M544 0h-54l-354 464v-464h-55v550h56l352 -457v457h55v-550zM372 604q-25 0 -43.5 16t-27 35t-23 35t-31.5 16q-24 0 -39 -24t-15 -72h-35q0 58 24.5 96t68.5 38q25 0 43.5 -16t27 -35t23 -35t31.5 -16q24 0 39 24t15 72h35q0 -59 -24.5 -96.5t-68.5 -37.5z" horiz-adv-x="625" unicode="" glyph-name="Ntilde.smcp"/>
<glyph d="M333 -12q-125 0 -202 82t-77 205t77 205t202 82t202 -82t77 -205q0 -122 -77.5 -204.5t-201.5 -82.5zM333 37q99 0 160.5 67.5t61.5 170.5q0 104 -61.5 171t-160.5 67q-101 0 -161.5 -67t-60.5 -171q0 -103 61 -170.5t161 -67.5zM393 606h-44l-172 144h62z" horiz-adv-x="666" unicode="" glyph-name="Ograve.smcp"/>
<glyph d="M333 -12q-125 0 -202 82t-77 205t77 205t202 82t202 -82t77 -205q0 -122 -77.5 -204.5t-201.5 -82.5zM333 37q99 0 160.5 67.5t61.5 170.5q0 104 -61.5 171t-160.5 67q-101 0 -161.5 -67t-60.5 -171q0 -103 61 -170.5t161 -67.5zM492 750l-172 -144h-44l154 144h62z" horiz-adv-x="666" unicode="" glyph-name="Oacute.smcp"/>
<glyph d="M333 -12q-125 0 -202 82t-77 205t77 205t202 82t202 -82t77 -205q0 -122 -77.5 -204.5t-201.5 -82.5zM333 37q99 0 160.5 67.5t61.5 170.5q0 104 -61.5 171t-160.5 67q-101 0 -161.5 -67t-60.5 -171q0 -103 61 -170.5t161 -67.5zM460 606h-40l-86 113l-84 -113h-40 l97 144h54z" horiz-adv-x="666" unicode="" glyph-name="Ocircumflex.smcp"/>
<glyph d="M333 -12q-125 0 -202 82t-77 205t77 205t202 82t202 -82t77 -205q0 -122 -77.5 -204.5t-201.5 -82.5zM333 37q99 0 160.5 67.5t61.5 170.5q0 104 -61.5 171t-160.5 67q-101 0 -161.5 -67t-60.5 -171q0 -103 61 -170.5t161 -67.5zM396 604q-25 0 -43.5 16t-27 35t-23 35 t-31.5 16q-24 0 -39 -24t-15 -72h-35q0 58 24.5 96t68.5 38q25 0 43.5 -16t27 -35t23 -35t31.5 -16q24 0 39 24t15 72h35q0 -59 -24.5 -96.5t-68.5 -37.5z" horiz-adv-x="666" unicode="" glyph-name="Otilde.smcp"/>
<glyph d="M333 -12q-125 0 -202 82t-77 205t77 205t202 82t202 -82t77 -205q0 -122 -77.5 -204.5t-201.5 -82.5zM333 37q99 0 160.5 67.5t61.5 170.5q0 104 -61.5 171t-160.5 67q-101 0 -161.5 -67t-60.5 -171q0 -103 61 -170.5t161 -67.5zM474 654q0 -15 -11 -26t-26 -11t-26 11 t-11 26t11 26t26 11t26 -11t11 -26zM270 654q0 -15 -11 -26t-26 -11t-26 11t-11 26t11 26t26 11t26 -11t11 -26z" horiz-adv-x="666" unicode="" glyph-name="Odieresis.smcp"/>
<glyph d="M333 -12q-87 0 -153 41l-21 -29h-51l39 54q-93 82 -93 221q0 123 77 205t202 82q82 0 149 -40l20 28h51l-38 -52q97 -83 97 -223q0 -122 -77.5 -204.5t-201.5 -82.5zM333 37q99 0 160.5 67.5t61.5 170.5q0 112 -70 180l-275 -384q53 -34 123 -34zM111 275q0 -110 67 -177 l274 382q-53 33 -119 33q-101 0 -161.5 -67t-60.5 -171z" horiz-adv-x="666" unicode="" glyph-name="Oslash.smcp"/>
<glyph d="M306 -12q-110 0 -167.5 59t-57.5 163v340h55v-338q0 -83 44 -129t126 -46t126.5 46.5t44.5 128.5v338h55v-340q0 -104 -58 -163t-168 -59zM366 606h-44l-172 144h62z" horiz-adv-x="613" unicode="" glyph-name="Ugrave.smcp"/>
<glyph d="M306 -12q-110 0 -167.5 59t-57.5 163v340h55v-338q0 -83 44 -129t126 -46t126.5 46.5t44.5 128.5v338h55v-340q0 -104 -58 -163t-168 -59zM466 750l-172 -144h-44l154 144h62z" horiz-adv-x="613" unicode="" glyph-name="Uacute.smcp"/>
<glyph d="M306 -12q-110 0 -167.5 59t-57.5 163v340h55v-338q0 -83 44 -129t126 -46t126.5 46.5t44.5 128.5v338h55v-340q0 -104 -58 -163t-168 -59zM432 606h-40l-86 113l-84 -113h-40l97 144h54z" horiz-adv-x="613" unicode="" glyph-name="Ucircumflex.smcp"/>
<glyph d="M306 -12q-110 0 -167.5 59t-57.5 163v340h55v-338q0 -83 44 -129t126 -46t126.5 46.5t44.5 128.5v338h55v-340q0 -104 -58 -163t-168 -59zM445 654q0 -15 -11 -26t-26 -11t-26 11t-11 26t11 26t26 11t26 -11t11 -26zM241 654q0 -15 -11 -26t-26 -11t-26 11t-11 26t11 26 t26 11t26 -11t11 -26z" horiz-adv-x="613" unicode="" glyph-name="Udieresis.smcp"/>
<glyph d="M299 0h-55v235l-232 315h66l194 -266l190 266h65l-228 -315v-235zM429 750l-172 -144h-44l154 144h62z" horiz-adv-x="539" unicode="" glyph-name="Yacute.smcp"/>
<glyph d="M136 0h-55v550h55v-97h163q84 0 129.5 -47t45.5 -116q0 -70 -45.5 -116.5t-129.5 -46.5h-163v-127zM295 176q59 0 90.5 31.5t31.5 82.5t-31.5 82.5t-90.5 31.5h-159v-228h159z" horiz-adv-x="509" unicode="" glyph-name="Thorn.smcp"/>
<glyph d="M299 0h-55v235l-232 315h66l194 -266l190 266h65l-228 -315v-235zM411 654q0 -15 -11 -26t-26 -11t-26 11t-11 26t11 26t26 11t26 -11t11 -26zM207 654q0 -15 -11 -26t-26 -11t-26 11t-11 26t11 26t26 11t26 -11t11 -26z" horiz-adv-x="539" unicode="" glyph-name="Ydieresis.smcp"/>
<glyph d="M136 0h-55v550h368v-49h-313v-194h308v-49h-308v-258zM619 0h-55v550h55v-550z" horiz-adv-x="699" unicode="" glyph-name="FI.smcp"/>
<glyph d="M136 0h-55v550h368v-49h-313v-194h308v-49h-308v-258zM896 0h-332v550h55v-501h277v-49z" horiz-adv-x="937" unicode="" glyph-name="FL.smcp"/>
<glyph d="M250 -12q-137 0 -211 88l34 39q29 -33 76 -56t102 -23q76 0 112.5 31.5t36.5 78.5q0 44 -35.5 69.5t-86 37.5t-101 26t-86 46.5t-35.5 86.5q0 66 55 108t135 42q123 0 197 -79l-32 -38q-59 69 -165 69q-56 0 -94.5 -29t-38.5 -72q0 -32 25.5 -53t64 -30.5t83 -23 t83 -28.5t64 -48.5t25.5 -82.5q0 -69 -52.5 -114t-155.5 -45zM749 -12q-137 0 -211 88l34 39q29 -33 76 -56t102 -23q76 0 112.5 31.5t36.5 78.5q0 44 -35.5 69.5t-86 37.5t-101 26t-86 46.5t-35.5 86.5q0 66 55 108t135 42q123 0 197 -79l-32 -38q-59 69 -165 69 q-56 0 -94.5 -29t-38.5 -72q0 -32 25.5 -53t64 -30.5t83 -23t83 -28.5t64 -48.5t25.5 -82.5q0 -69 -52.5 -114t-155.5 -45z" horiz-adv-x="998" unicode="" glyph-name="SS.smcp"/>
</font>
</defs>
</svg>
